<svg xmlns="http://www.w3.org/2000/svg" viewBox="0 0 1035.05 495.45"><defs><style>.cls-1{fill:#b3b3b3;}.cls-2{fill:#4d4d4d;}.cls-3{fill:gray;}.cls-4{fill:#333;}.cls-5{fill:#ccc;}</style></defs><title>schedule_withtextAsset 11</title><g id="Layer_2" data-name="Layer 2"><g id="opt1"><rect class="cls-1" x="99.59" y="105.71" width="119.64" height="119.64"/><rect class="cls-2" y="105.71" width="85.42" height="119.64"/><rect class="cls-2" y="240.76" width="85.42" height="119.64"/><rect class="cls-2" y="375.81" width="85.42" height="119.64"/><rect class="cls-3" x="235.56" y="105.71" width="119.64" height="119.64"/><rect class="cls-2" y="30.48" width="85.21" height="59.82"/><rect class="cls-1" x="371.53" y="105.71" width="119.64" height="119.64"/><rect class="cls-1" x="507.5" y="105.71" width="119.64" height="119.64"/><rect class="cls-1" x="643.47" y="105.71" width="119.64" height="119.64"/><rect class="cls-3" x="779.44" y="105.71" width="119.64" height="119.64"/><rect class="cls-3" x="915.41" y="105.71" width="119.64" height="119.64"/><rect class="cls-3" x="99.59" y="240.76" width="119.64" height="119.64"/><rect class="cls-1" x="235.56" y="240.76" width="119.64" height="119.64"/><rect class="cls-3" x="371.53" y="240.76" width="119.64" height="119.64"/><rect class="cls-1" x="507.5" y="240.76" width="119.64" height="119.64"/><rect class="cls-3" x="643.47" y="240.76" width="119.64" height="119.64"/><rect class="cls-3" x="779.44" y="240.76" width="119.64" height="119.64"/><rect class="cls-3" x="915.41" y="240.76" width="119.64" height="119.64"/><rect class="cls-1" x="99.59" y="375.81" width="119.64" height="119.64"/><rect class="cls-3" x="235.56" y="375.81" width="119.64" height="119.64"/><rect class="cls-1" x="371.53" y="375.81" width="119.64" height="119.64"/><rect class="cls-1" x="507.5" y="375.81" width="119.64" height="119.64"/><rect class="cls-3" x="643.47" y="375.81" width="119.64" height="119.64"/><rect class="cls-3" x="779.44" y="375.81" width="119.64" height="119.64"/><rect class="cls-3" x="915.41" y="375.81" width="119.64" height="119.64"/><rect class="cls-2" x="99.59" y="30.48" width="119.64" height="59.82"/><rect class="cls-2" x="235.56" y="30.48" width="119.64" height="59.82"/><rect class="cls-2" x="371.53" y="30.48" width="119.64" height="59.82"/><rect class="cls-2" x="507.5" y="30.48" width="119.64" height="59.82"/><rect class="cls-2" x="643.47" y="30.48" width="119.64" height="59.82"/><rect class="cls-2" x="779.44" y="30.48" width="119.64" height="59.82"/><rect class="cls-2" x="915.41" y="30.48" width="119.64" height="59.82"/></g><g id="opt2"><path class="cls-3" d="M109.79,50.71H108.5v-10h1.29l3.49,6.1h0l3.49-6.1h1.29v10h-1.29v-6l.05-1.68h-.05l-3.14,5.5h-.75l-3.14-5.5h-.06l.06,1.68Z"/><path class="cls-3" d="M119.51,47.28a3.65,3.65,0,0,1,1-2.62,3.38,3.38,0,0,1,2.53-1,3.33,3.33,0,0,1,2.52,1,3.9,3.9,0,0,1,0,5.24,3.33,3.33,0,0,1-2.52,1,3.38,3.38,0,0,1-2.53-1A3.65,3.65,0,0,1,119.51,47.28Zm1.28,0a2.49,2.49,0,0,0,.65,1.79,2.19,2.19,0,0,0,3.19,0,2.81,2.81,0,0,0,0-3.57,2.17,2.17,0,0,0-3.19,0A2.5,2.5,0,0,0,120.79,47.28Z"/><path class="cls-3" d="M127.6,43.85h1.23v.95h.06a2.3,2.3,0,0,1,.9-.84,2.62,2.62,0,0,1,1.27-.33,2.55,2.55,0,0,1,1.94.72,2.88,2.88,0,0,1,.67,2v4.31h-1.28V46.48a1.52,1.52,0,0,0-1.7-1.68,1.64,1.64,0,0,0-1.29.62,2.31,2.31,0,0,0-.51,1.5v3.79H127.6Z"/><path class="cls-3" d="M138.06,50.93a3,3,0,0,1-2.31-1.06,4,4,0,0,1,0-5.18,3,3,0,0,1,2.31-1.06,2.92,2.92,0,0,1,1.38.32,2.39,2.39,0,0,1,.95.85h.06l-.06-.95V40.69h1.29v10h-1.23v-1h-.06a2.39,2.39,0,0,1-.95.85A2.92,2.92,0,0,1,138.06,50.93Zm.21-1.17a2,2,0,0,0,1.55-.69,2.52,2.52,0,0,0,.63-1.79,2.57,2.57,0,0,0-.63-1.78,2,2,0,0,0-1.55-.7,2,2,0,0,0-1.56.7,2.57,2.57,0,0,0-.63,1.78,2.53,2.53,0,0,0,.63,1.78A2,2,0,0,0,138.27,49.76Z"/><path class="cls-3" d="M145.78,43.63a3.19,3.19,0,0,1,2.26.76,2.71,2.71,0,0,1,.82,2.09v4.23h-1.23v-1h0a2.48,2.48,0,0,1-2.13,1.17,2.76,2.76,0,0,1-1.9-.67,2.14,2.14,0,0,1-.76-1.68,2,2,0,0,1,.8-1.69,3.41,3.41,0,0,1,2.15-.63,3.78,3.78,0,0,1,1.89.42v-.3a1.5,1.5,0,0,0-.53-1.14,1.83,1.83,0,0,0-1.25-.47,2,2,0,0,0-1.7.91L143,45A3.15,3.15,0,0,1,145.78,43.63Zm-1.66,5a1,1,0,0,0,.42.84,1.62,1.62,0,0,0,1,.34,2,2,0,0,0,1.45-.61,1.89,1.89,0,0,0,.63-1.41,2.62,2.62,0,0,0-1.68-.48,2.21,2.21,0,0,0-1.31.38A1.12,1.12,0,0,0,144.12,48.61Z"/><path class="cls-3" d="M156.31,43.85,152,53.73h-1.33l1.6-3.45-2.83-6.43h1.4l2.05,4.93h0l2-4.93Z"/><path class="cls-3" d="M21.34,124.23v-10H25a2.89,2.89,0,0,1,2,.79,2.5,2.5,0,0,1,.86,1.94A2.11,2.11,0,0,1,26.51,119v0a2.44,2.44,0,0,1,1.23.88,2.3,2.3,0,0,1,.46,1.42,2.62,2.62,0,0,1-.89,2,3,3,0,0,1-2.14.82Zm1.29-8.8v3.07H25a1.55,1.55,0,0,0,1.15-.46,1.49,1.49,0,0,0,0-2.14,1.48,1.48,0,0,0-1.1-.47Zm0,4.27V123h2.59a1.66,1.66,0,0,0,1.67-1.65,1.57,1.57,0,0,0-.49-1.15,1.71,1.71,0,0,0-1.23-.49Z"/><path class="cls-3" d="M30.72,114.2v10H29.44v-10Z"/><path class="cls-3" d="M31.83,120.79a3.62,3.62,0,0,1,1-2.61,3.42,3.42,0,0,1,2.54-1,3.34,3.34,0,0,1,2.52,1,3.89,3.89,0,0,1,0,5.23,3.34,3.34,0,0,1-2.52,1,3.42,3.42,0,0,1-2.54-1A3.63,3.63,0,0,1,31.83,120.79Zm1.29,0a2.53,2.53,0,0,0,.64,1.8,2.21,2.21,0,0,0,3.19,0,2.53,2.53,0,0,0,.65-1.8A2.48,2.48,0,0,0,37,119a2.17,2.17,0,0,0-3.19,0A2.47,2.47,0,0,0,33.12,120.79Z"/><path class="cls-3" d="M43.2,124.45a3.42,3.42,0,0,1-2.54-1,3.68,3.68,0,0,1-1-2.62,3.62,3.62,0,0,1,1-2.61,3.42,3.42,0,0,1,2.54-1,3.16,3.16,0,0,1,3,2l-1.18.49a1.93,1.93,0,0,0-1.92-1.29,2,2,0,0,0-1.52.71,2.79,2.79,0,0,0,0,3.53,2,2,0,0,0,1.52.71,2,2,0,0,0,2-1.28l1.15.49a3.1,3.1,0,0,1-1.18,1.44A3.36,3.36,0,0,1,43.2,124.45Z"/><path class="cls-3" d="M53.4,124.23H51.85L49.71,121l-1.05,1v2.2H47.37v-10h1.29v6.18l3-3h1.65v0l-2.68,2.66,2.8,4.09Z"/><path class="cls-3" d="M60.63,114.65v9.58H59.34v-8l-1.86.81L57,116l2.81-1.32Z"/><path class="cls-3" d="M21.34,259.51v-10H25a2.92,2.92,0,0,1,2,.78,2.5,2.5,0,0,1,.86,1.95,2.1,2.1,0,0,1-1.36,2.08v.06a2.49,2.49,0,0,1,1.23.87,2.32,2.32,0,0,1,.46,1.42,2.64,2.64,0,0,1-.89,2.05,3,3,0,0,1-2.14.81Zm1.29-8.79v3.06H25a1.55,1.55,0,0,0,1.15-.46,1.49,1.49,0,0,0,0-2.14,1.47,1.47,0,0,0-1.1-.46Zm0,4.27v3.29h2.59a1.59,1.59,0,0,0,1.19-.49,1.62,1.62,0,0,0,.48-1.16,1.55,1.55,0,0,0-.49-1.15,1.67,1.67,0,0,0-1.23-.49Z"/><path class="cls-3" d="M30.72,249.49v10H29.44v-10Z"/><path class="cls-3" d="M31.83,256.08a3.65,3.65,0,0,1,1-2.62,3.41,3.41,0,0,1,2.54-1,3.33,3.33,0,0,1,2.52,1,3.9,3.9,0,0,1,0,5.24,3.33,3.33,0,0,1-2.52,1,3.41,3.41,0,0,1-2.54-1A3.65,3.65,0,0,1,31.83,256.08Zm1.29,0a2.5,2.5,0,0,0,.64,1.79,2.19,2.19,0,0,0,3.19,0,2.78,2.78,0,0,0,0-3.57,2.17,2.17,0,0,0-3.19,0A2.49,2.49,0,0,0,33.12,256.08Z"/><path class="cls-3" d="M43.2,259.73a3.41,3.41,0,0,1-2.54-1,3.7,3.7,0,0,1-1-2.62,3.65,3.65,0,0,1,1-2.62,3.41,3.41,0,0,1,2.54-1,3.14,3.14,0,0,1,3,2l-1.18.49a1.93,1.93,0,0,0-1.92-1.29,2,2,0,0,0-1.52.72,2.77,2.77,0,0,0,0,3.52,2,2,0,0,0,1.52.72,2,2,0,0,0,2-1.29l1.15.49a3.08,3.08,0,0,1-1.18,1.45A3.35,3.35,0,0,1,43.2,259.73Z"/><path class="cls-3" d="M53.4,259.51H51.85l-2.14-3.23-1.05,1v2.2H47.37v-10h1.29v6.17l3-3h1.65v.06l-2.68,2.66,2.8,4.08Z"/><path class="cls-3" d="M63.09,258.28v1.23H57v-1.29l2.48-2.5a21.45,21.45,0,0,0,1.72-1.92,2.23,2.23,0,0,0,.47-1.33,1.4,1.4,0,0,0-.49-1.08,1.77,1.77,0,0,0-1.26-.45,1.74,1.74,0,0,0-1.13.39,1.83,1.83,0,0,0-.62,1L57,251.81a2.88,2.88,0,0,1,1.08-1.49,3,3,0,0,1,1.87-.61,3.09,3.09,0,0,1,2.17.8,2.55,2.55,0,0,1,.87,2,4.56,4.56,0,0,1-1.53,3l-2.8,2.82Z"/><path class="cls-3" d="M21.34,394.79v-10H25a2.92,2.92,0,0,1,2,.78,2.53,2.53,0,0,1,.86,1.95,2.12,2.12,0,0,1-1.36,2.09v.05a2.44,2.44,0,0,1,1.23.88,2.3,2.3,0,0,1,.46,1.42,2.62,2.62,0,0,1-.89,2,3,3,0,0,1-2.14.81ZM22.63,386v3.07H25a1.59,1.59,0,0,0,1.15-.46,1.51,1.51,0,0,0,.46-1.08,1.53,1.53,0,0,0-.45-1.07A1.51,1.51,0,0,0,25,386Zm0,4.27v3.29h2.59a1.66,1.66,0,0,0,1.67-1.65,1.57,1.57,0,0,0-.49-1.15,1.71,1.71,0,0,0-1.23-.49Z"/><path class="cls-3" d="M30.72,384.77v10H29.44v-10Z"/><path class="cls-3" d="M31.83,391.36a3.62,3.62,0,0,1,1-2.61,3.38,3.38,0,0,1,2.54-1,3.3,3.3,0,0,1,2.52,1,3.89,3.89,0,0,1,0,5.23,3.34,3.34,0,0,1-2.52,1,3.42,3.42,0,0,1-2.54-1A3.63,3.63,0,0,1,31.83,391.36Zm1.29,0a2.53,2.53,0,0,0,.64,1.8,2.21,2.21,0,0,0,3.19,0,2.53,2.53,0,0,0,.65-1.8,2.48,2.48,0,0,0-.65-1.77,2.17,2.17,0,0,0-3.19,0A2.47,2.47,0,0,0,33.12,391.36Z"/><path class="cls-3" d="M43.2,395a3.42,3.42,0,0,1-2.54-1,3.7,3.7,0,0,1-1-2.62,3.62,3.62,0,0,1,1-2.61,3.38,3.38,0,0,1,2.54-1,3.2,3.2,0,0,1,1.83.52,3.25,3.25,0,0,1,1.18,1.45l-1.18.49a1.93,1.93,0,0,0-1.92-1.28,2,2,0,0,0-1.52.71,2.79,2.79,0,0,0,0,3.53,2.1,2.1,0,0,0,3.51-.58l1.15.49a3.08,3.08,0,0,1-1.18,1.45A3.36,3.36,0,0,1,43.2,395Z"/><path class="cls-3" d="M53.4,394.79H51.85l-2.14-3.23-1.05,1v2.19H47.37v-10h1.29v6.17l3-3h1.65V388l-2.68,2.66,2.8,4.09Z"/><path class="cls-3" d="M63.3,392.08a2.69,2.69,0,0,1-.94,2.1,3.27,3.27,0,0,1-2.29.84,3.2,3.2,0,0,1-2-.65,3.25,3.25,0,0,1-1.19-1.75l1.18-.49a2.39,2.39,0,0,0,.73,1.23,1.88,1.88,0,0,0,1.23.43,2.08,2.08,0,0,0,1.36-.49,1.61,1.61,0,0,0,.56-1.22,1.53,1.53,0,0,0-.59-1.21,2.11,2.11,0,0,0-1.39-.49h-.82v-1.2h.72a1.8,1.8,0,0,0,1.26-.43,1.38,1.38,0,0,0,.49-1.11,1.26,1.26,0,0,0-.46-1,1.82,1.82,0,0,0-1.22-.39,1.66,1.66,0,0,0-1.66,1.24l-1.19-.5a2.9,2.9,0,0,1,1.08-1.43A3,3,0,0,1,60,385a3.19,3.19,0,0,1,2.15.76,2.41,2.41,0,0,1,.85,1.89,2.2,2.2,0,0,1-1.29,2.06v.05a2.65,2.65,0,0,1,1.18.94A2.34,2.34,0,0,1,63.3,392.08Z"/><path class="cls-3" d="M111.69,57.05v9.58h-1.28v-8l-1.87.81-.49-1.09,2.82-1.32Z"/><path class="cls-3" d="M120.11,63.63a3.11,3.11,0,0,1-1,2.3,3.28,3.28,0,0,1-2.36.92,3.25,3.25,0,0,1-2-.7,3.38,3.38,0,0,1-1.2-1.89l1.15-.46a2.55,2.55,0,0,0,.76,1.33,1.88,1.88,0,0,0,1.3.49,2,2,0,0,0,1.46-.56,1.88,1.88,0,0,0,.57-1.42,2,2,0,0,0-.57-1.44,2,2,0,0,0-1.45-.56,1.88,1.88,0,0,0-1.61.83l-1.3-.56.61-4.86h5v1.23h-4L115.22,61h.06a2.67,2.67,0,0,1,1.73-.57,3,3,0,0,1,2.19.91A3,3,0,0,1,120.11,63.63Z"/><path class="cls-3" d="M126,62.82h-4.48V61.75H126Z"/><path class="cls-3" d="M133.93,63.63a3.08,3.08,0,0,1-1,2.3,3.35,3.35,0,0,1-5.58-1.67l1.15-.46a2.55,2.55,0,0,0,.76,1.33,1.87,1.87,0,0,0,1.29.49,2,2,0,0,0,1.47-.56,1.91,1.91,0,0,0,.56-1.42,1.92,1.92,0,0,0-2-2,1.88,1.88,0,0,0-1.61.83l-1.3-.56.61-4.86h5v1.23h-4L129,61h.06a2.67,2.67,0,0,1,1.73-.57,3,3,0,0,1,2.19.91A3.06,3.06,0,0,1,133.93,63.63Z"/><path class="cls-3" d="M247.61,57.05v9.58h-1.29v-8l-1.86.81L244,58.37l2.81-1.32Z"/><path class="cls-3" d="M255.18,64.61v2H253.9v-2h-4.55v-1l4.43-6.58h1.4v6.36h1.24v1.2Zm-4.38-1.2h3.1V58.94h-.06Z"/><path class="cls-3" d="M262.3,62.82h-4.48V61.75h4.48Z"/><path class="cls-3" d="M270.18,63.63a3.11,3.11,0,0,1-.95,2.3,3.28,3.28,0,0,1-2.36.92,3.25,3.25,0,0,1-2-.7,3.38,3.38,0,0,1-1.2-1.89l1.15-.46a2.55,2.55,0,0,0,.76,1.33,1.88,1.88,0,0,0,1.3.49,2,2,0,0,0,1.46-.56,1.88,1.88,0,0,0,.57-1.42,2,2,0,0,0-.57-1.44,2,2,0,0,0-1.45-.56,1.88,1.88,0,0,0-1.61.83l-1.3-.56.61-4.86h5v1.23h-3.95L265.29,61h.06a2.67,2.67,0,0,1,1.73-.57,3,3,0,0,1,2.19.91A3,3,0,0,1,270.18,63.63Z"/><path class="cls-3" d="M383.53,57.05v9.58h-1.29v-8l-1.86.81-.49-1.09,2.81-1.32Z"/><path class="cls-3" d="M388.9,60.55a2.83,2.83,0,0,1,2.07.92,2.94,2.94,0,0,1,.93,2.17,3.1,3.1,0,0,1-1,2.26,3.31,3.31,0,0,1-4.64,0,3.12,3.12,0,0,1-.95-2.26,5.16,5.16,0,0,1,.94-2.64l2.79-4.17,1,.71-2.36,3.28,0,0A2.08,2.08,0,0,1,388.9,60.55Zm-2.27,3.11a1.92,1.92,0,0,0,.58,1.4,2,2,0,0,0,1.41.56,1.91,1.91,0,0,0,1.4-.56,2,2,0,0,0,0-2.79,1.9,1.9,0,0,0-1.39-.57,2,2,0,0,0-1.4.57A1.88,1.88,0,0,0,386.63,63.66Z"/><path class="cls-3" d="M397.72,62.82h-4.48V61.75h4.48Z"/><path class="cls-3" d="M405.6,63.63a3.07,3.07,0,0,1-1,2.3,3.35,3.35,0,0,1-5.58-1.67l1.14-.46a2.56,2.56,0,0,0,.77,1.33,1.87,1.87,0,0,0,1.29.49,2,2,0,0,0,1.47-.56,1.91,1.91,0,0,0,.56-1.42,2,2,0,0,0-.56-1.44,2,2,0,0,0-1.45-.56,1.86,1.86,0,0,0-1.61.83l-1.31-.56.62-4.86h5v1.23h-3.95L400.72,61h0a2.72,2.72,0,0,1,1.74-.57,3,3,0,0,1,2.19.91A3.05,3.05,0,0,1,405.6,63.63Z"/><path class="cls-3" d="M519.44,57.05v9.58h-1.29v-8l-1.86.81-.49-1.09,2.82-1.32Z"/><path class="cls-3" d="M527.38,58.37l-4.65,8.48-1.15-.59,4.44-8h-4.84l0-1.23h6.17Z"/><path class="cls-3" d="M533.2,62.82h-4.48V61.75h4.48Z"/><path class="cls-3" d="M541.09,63.63a3.08,3.08,0,0,1-1,2.3,3.38,3.38,0,0,1-4.38.22,3.32,3.32,0,0,1-1.2-1.89l1.15-.46a2.55,2.55,0,0,0,.76,1.33,1.87,1.87,0,0,0,1.29.49,2,2,0,0,0,1.47-.56,1.87,1.87,0,0,0,.56-1.42,1.94,1.94,0,0,0-.56-1.44,2,2,0,0,0-1.45-.56,1.88,1.88,0,0,0-1.61.83l-1.3-.56.61-4.86h5v1.23h-4L536.2,61h.06a2.67,2.67,0,0,1,1.73-.57,3,3,0,0,1,2.19.91A3,3,0,0,1,541.09,63.63Z"/><path class="cls-3" d="M655.36,57.05v9.58h-1.29v-8l-1.86.81-.49-1.09,2.81-1.32Z"/><path class="cls-3" d="M663.59,64a2.57,2.57,0,0,1-.94,2,3.39,3.39,0,0,1-2.31.83A3.43,3.43,0,0,1,658,66a2.6,2.6,0,0,1-.94-2,2.51,2.51,0,0,1,.41-1.38,2.91,2.91,0,0,1,1.16-1v0a3,3,0,0,1-.9-.9,2,2,0,0,1-.34-1.12,2.56,2.56,0,0,1,.82-1.94,3.25,3.25,0,0,1,4.2,0,2.57,2.57,0,0,1,.83,1.94,2.1,2.1,0,0,1-.34,1.12,2.9,2.9,0,0,1-.91.9v0a2.84,2.84,0,0,1,1.16,1A2.43,2.43,0,0,1,663.59,64Zm-5.18-.07a1.58,1.58,0,0,0,.15.69,1.73,1.73,0,0,0,.4.53,1.79,1.79,0,0,0,.61.36,2.15,2.15,0,0,0,.77.13,2.11,2.11,0,0,0,.77-.13,1.62,1.62,0,0,0,.61-.36,1.76,1.76,0,0,0,.41-.53,1.58,1.58,0,0,0,.15-.69,1.5,1.5,0,0,0-.56-1.2,2.19,2.19,0,0,0-2.76,0A1.52,1.52,0,0,0,658.41,63.91Zm.32-4.4a1.42,1.42,0,0,0,.45,1.09,1.86,1.86,0,0,0,2.33,0,1.45,1.45,0,0,0,.44-1.09,1.37,1.37,0,0,0-.44-1.06,1.94,1.94,0,0,0-2.33,0A1.34,1.34,0,0,0,658.73,59.51Z"/><path class="cls-3" d="M669.41,62.82h-4.48V61.75h4.48Z"/><path class="cls-3" d="M677.3,63.63a3.08,3.08,0,0,1-1,2.3,3.38,3.38,0,0,1-4.38.22,3.32,3.32,0,0,1-1.2-1.89l1.15-.46a2.55,2.55,0,0,0,.76,1.33,1.87,1.87,0,0,0,1.29.49,2,2,0,0,0,1.47-.56,1.87,1.87,0,0,0,.56-1.42,1.94,1.94,0,0,0-.56-1.44,2,2,0,0,0-1.45-.56,1.88,1.88,0,0,0-1.61.83l-1.3-.56.61-4.86h5v1.23h-4L672.41,61h.06a2.67,2.67,0,0,1,1.73-.57,3,3,0,0,1,2.19.91A3,3,0,0,1,677.3,63.63Z"/><path class="cls-3" d="M791.27,57.05v9.58H790v-8l-1.87.81-.49-1.09,2.82-1.32Z"/><path class="cls-3" d="M796,63.13a3,3,0,0,1-2.09-.91A3,3,0,0,1,793,60a3,3,0,0,1,1-2.24,3.18,3.18,0,0,1,2.3-1,3.14,3.14,0,0,1,2.33,1,3,3,0,0,1,1,2.25,5.16,5.16,0,0,1-.94,2.65l-2.79,4.17-1-.71,2.36-3.28,0,0A2,2,0,0,1,796,63.13ZM798.27,60a1.87,1.87,0,0,0-.58-1.39,2,2,0,0,0-2.8,0,1.87,1.87,0,0,0-.58,1.39,1.85,1.85,0,0,0,.58,1.38,2,2,0,0,0,2.8,0A1.82,1.82,0,0,0,798.27,60Z"/><path class="cls-3" d="M805.4,62.82h-4.48V61.75h4.48Z"/><path class="cls-3" d="M813.28,63.63a3.07,3.07,0,0,1-.95,2.3,3.38,3.38,0,0,1-4.38.22,3.34,3.34,0,0,1-1.21-1.89l1.15-.46a2.56,2.56,0,0,0,.77,1.33,1.86,1.86,0,0,0,1.29.49,2,2,0,0,0,1.46-.56,1.88,1.88,0,0,0,.57-1.42,2,2,0,0,0-.57-1.44,2,2,0,0,0-1.45-.56,1.89,1.89,0,0,0-1.61.83l-1.3-.56.62-4.86h5v1.23h-3.94L808.4,61h.05a2.72,2.72,0,0,1,1.74-.57,3,3,0,0,1,2.19.91A3.05,3.05,0,0,1,813.28,63.63Z"/><path class="cls-3" d="M929.66,65.39v1.24h-6.11V65.34L926,62.83a21.69,21.69,0,0,0,1.72-1.91,2.18,2.18,0,0,0,.48-1.34,1.4,1.4,0,0,0-.49-1.07,1.8,1.8,0,0,0-1.26-.45,1.75,1.75,0,0,0-1.14.39,1.78,1.78,0,0,0-.61.95l-1.18-.47a3.08,3.08,0,0,1,3-2.1,3.1,3.1,0,0,1,2.17.79,2.6,2.6,0,0,1,.86,2,4.59,4.59,0,0,1-1.52,3l-2.8,2.81Z"/><path class="cls-3" d="M930.89,61.84a5.81,5.81,0,0,1,1.07-3.6,3.35,3.35,0,0,1,2.78-1.41,3.32,3.32,0,0,1,2.77,1.42,5.76,5.76,0,0,1,1.08,3.59,5.85,5.85,0,0,1-1.08,3.6,3.44,3.44,0,0,1-5.55,0A5.91,5.91,0,0,1,930.89,61.84Zm6.38,0a4.84,4.84,0,0,0-.7-2.72,2.12,2.12,0,0,0-3.67,0,4.92,4.92,0,0,0-.7,2.72,5,5,0,0,0,.7,2.73,2.12,2.12,0,0,0,3.67,0A4.83,4.83,0,0,0,937.27,61.84Z"/><path class="cls-3" d="M944.47,62.82H940V61.75h4.48Z"/><path class="cls-3" d="M952.35,63.63a3.11,3.11,0,0,1-1,2.3,3.28,3.28,0,0,1-2.36.92,3.25,3.25,0,0,1-2-.7,3.38,3.38,0,0,1-1.2-1.89L947,63.8a2.55,2.55,0,0,0,.76,1.33,1.88,1.88,0,0,0,1.3.49,2,2,0,0,0,1.46-.56,1.88,1.88,0,0,0,.57-1.42,2,2,0,0,0-.57-1.44,2,2,0,0,0-1.45-.56,1.88,1.88,0,0,0-1.61.83l-1.3-.56.61-4.86h5v1.23h-4L947.46,61h.06a2.67,2.67,0,0,1,1.73-.57,3,3,0,0,1,2.2.91A3.05,3.05,0,0,1,952.35,63.63Z"/><path class="cls-3" d="M247.83,41.92v8.79h-1.28V41.92h-2.8V40.69h6.88v1.23Z"/><path class="cls-3" d="M256.93,50.71H255.7v-1h0a2.4,2.4,0,0,1-.91.84,2.58,2.58,0,0,1-1.26.33,2.54,2.54,0,0,1-1.94-.72,2.84,2.84,0,0,1-.68-2.05V43.85h1.29v4.23a1.51,1.51,0,0,0,1.69,1.68,1.62,1.62,0,0,0,1.29-.63,2.27,2.27,0,0,0,.52-1.49V43.85h1.28Z"/><path class="cls-3" d="M261.51,50.93a3.27,3.27,0,0,1-2.49-1,3.68,3.68,0,0,1-1-2.62,3.73,3.73,0,0,1,.95-2.61,3.44,3.44,0,0,1,4.87-.06,4,4,0,0,1,.9,2.77v.14h-5.39a2.19,2.19,0,0,0,.67,1.62,2.17,2.17,0,0,0,3.47-.61l1.15.56a3.47,3.47,0,0,1-1.28,1.35A3.54,3.54,0,0,1,261.51,50.93Zm-2.06-4.48h3.94a1.72,1.72,0,0,0-.58-1.18,2.05,2.05,0,0,0-1.41-.47,1.86,1.86,0,0,0-1.25.45A2.2,2.2,0,0,0,259.45,46.45Z"/><path class="cls-3" d="M271.26,48.81a1.85,1.85,0,0,1-.79,1.51,3.09,3.09,0,0,1-2,.61,3.13,3.13,0,0,1-1.82-.54A2.91,2.91,0,0,1,265.56,49l1.15-.49a2.09,2.09,0,0,0,.73,1,1.8,1.8,0,0,0,1.06.35,1.86,1.86,0,0,0,1-.27.77.77,0,0,0,.41-.63c0-.44-.34-.76-1-1l-1.17-.29c-1.34-.34-2-1-2-1.93a1.79,1.79,0,0,1,.77-1.51,3.54,3.54,0,0,1,3.6-.13,2.33,2.33,0,0,1,1,1.16L270,45.7a1.45,1.45,0,0,0-.64-.68,2,2,0,0,0-1-.25,1.66,1.66,0,0,0-.9.26.7.7,0,0,0-.4.61q0,.59,1.11.84l1,.27C270.58,47.08,271.26,47.77,271.26,48.81Z"/><path class="cls-3" d="M275.32,50.93A3,3,0,0,1,273,49.87a4,4,0,0,1,0-5.18,3,3,0,0,1,2.31-1.06,2.92,2.92,0,0,1,1.38.32,2.39,2.39,0,0,1,.95.85h.06l-.06-.95V40.69h1.29v10h-1.23v-1h-.06a2.39,2.39,0,0,1-.95.85A2.92,2.92,0,0,1,275.32,50.93Zm.21-1.17a2,2,0,0,0,1.55-.69,2.52,2.52,0,0,0,.63-1.79,2.57,2.57,0,0,0-.63-1.78,2,2,0,0,0-1.55-.7,2,2,0,0,0-1.56.7,2.57,2.57,0,0,0-.63,1.78,2.53,2.53,0,0,0,.63,1.78A2,2,0,0,0,275.53,49.76Z"/><path class="cls-3" d="M283,43.63a3.19,3.19,0,0,1,2.26.76,2.71,2.71,0,0,1,.82,2.09v4.23h-1.23v-1h-.05a2.48,2.48,0,0,1-2.13,1.17,2.76,2.76,0,0,1-1.9-.67,2.14,2.14,0,0,1-.76-1.68,2,2,0,0,1,.8-1.69,3.41,3.41,0,0,1,2.15-.63,3.78,3.78,0,0,1,1.89.42v-.3a1.5,1.5,0,0,0-.53-1.14,1.83,1.83,0,0,0-1.25-.47,2,2,0,0,0-1.7.91L280.27,45A3.15,3.15,0,0,1,283,43.63Zm-1.66,5a1,1,0,0,0,.43.84,1.57,1.57,0,0,0,1,.34,2,2,0,0,0,1.45-.61,1.89,1.89,0,0,0,.63-1.41,2.62,2.62,0,0,0-1.68-.48,2.21,2.21,0,0,0-1.31.38A1.12,1.12,0,0,0,281.38,48.61Z"/><path class="cls-3" d="M293.57,43.85l-4.3,9.88h-1.33l1.6-3.45-2.83-6.43h1.4l2.05,4.93h0l2-4.93Z"/><path class="cls-3" d="M391.68,40.69H393l-2.67,10H389l-2.16-6.61h-.05l-2.16,6.61h-1.31l-2.79-10h1.34L384,48.57h.05L386.25,42h1.2l2.17,6.54h.05Z"/><path class="cls-3" d="M396.34,50.93a3.27,3.27,0,0,1-2.49-1,3.64,3.64,0,0,1-1-2.62,3.68,3.68,0,0,1,.95-2.61,3.43,3.43,0,0,1,4.86-.06,3.92,3.92,0,0,1,.91,2.77l0,.14h-5.39a2.27,2.27,0,0,0,.67,1.62,2.18,2.18,0,0,0,1.55.62,2.15,2.15,0,0,0,1.93-1.23l1.15.56a3.42,3.42,0,0,1-1.29,1.35A3.48,3.48,0,0,1,396.34,50.93Zm-2.06-4.48h3.94a1.73,1.73,0,0,0-.59-1.18,2,2,0,0,0-1.4-.47,1.87,1.87,0,0,0-1.26.45A2.13,2.13,0,0,0,394.28,46.45Z"/><path class="cls-3" d="M403.7,50.93a3,3,0,0,1-2.31-1.06,4,4,0,0,1,0-5.18,3,3,0,0,1,2.31-1.06,2.87,2.87,0,0,1,1.38.32,2.35,2.35,0,0,1,1,.85h.06l-.06-.95V40.69h1.29v10H406.1v-1H406a2.35,2.35,0,0,1-1,.85A2.87,2.87,0,0,1,403.7,50.93Zm.21-1.17a2,2,0,0,0,1.56-.69,2.52,2.52,0,0,0,.63-1.79,2.57,2.57,0,0,0-.63-1.78,2,2,0,0,0-1.56-.7,2,2,0,0,0-1.55.7,2.57,2.57,0,0,0-.63,1.78,2.53,2.53,0,0,0,.63,1.78A2,2,0,0,0,403.91,49.76Z"/><path class="cls-3" d="M408.9,43.85h1.23v.95h.05a2.4,2.4,0,0,1,.91-.84,2.61,2.61,0,0,1,1.26-.33,2.54,2.54,0,0,1,1.94.72,2.84,2.84,0,0,1,.68,2v4.31h-1.29V46.48A1.51,1.51,0,0,0,412,44.8a1.64,1.64,0,0,0-1.29.62,2.32,2.32,0,0,0-.52,1.5v3.79H408.9Z"/><path class="cls-3" d="M419.56,50.93a3.3,3.3,0,0,1-2.49-1,3.68,3.68,0,0,1-1-2.62,3.73,3.73,0,0,1,1-2.61,3.44,3.44,0,0,1,4.87-.06,4,4,0,0,1,.9,2.77v.14h-5.39a2.23,2.23,0,0,0,.67,1.62,2.17,2.17,0,0,0,3.47-.61l1.15.56a3.4,3.4,0,0,1-1.28,1.35A3.52,3.52,0,0,1,419.56,50.93Zm-2.05-4.48h3.93a1.72,1.72,0,0,0-.58-1.18,2.05,2.05,0,0,0-1.41-.47,1.86,1.86,0,0,0-1.25.45A2.13,2.13,0,0,0,417.51,46.45Z"/><path class="cls-3" d="M429.31,48.81a1.85,1.85,0,0,1-.79,1.51,3.09,3.09,0,0,1-2,.61,3.13,3.13,0,0,1-1.82-.54A2.91,2.91,0,0,1,423.61,49l1.15-.49a2.16,2.16,0,0,0,.73,1,1.82,1.82,0,0,0,1.06.35,1.86,1.86,0,0,0,1-.27.77.77,0,0,0,.41-.63c0-.44-.33-.76-1-1l-1.17-.29c-1.34-.34-2-1-2-1.93a1.78,1.78,0,0,1,.76-1.51,3.54,3.54,0,0,1,3.6-.13,2.4,2.4,0,0,1,1,1.16l-1.15.48a1.4,1.4,0,0,0-.64-.68,2,2,0,0,0-1-.25,1.66,1.66,0,0,0-.9.26.72.72,0,0,0-.4.61q0,.59,1.11.84l1,.27C428.63,47.08,429.31,47.77,429.31,48.81Z"/><path class="cls-3" d="M433.37,50.93a3,3,0,0,1-2.31-1.06,4,4,0,0,1,0-5.18,3,3,0,0,1,2.31-1.06,2.92,2.92,0,0,1,1.38.32,2.49,2.49,0,0,1,1,.85h.05l-.05-.95V40.69H437v10h-1.23v-1h-.05a2.49,2.49,0,0,1-1,.85A2.92,2.92,0,0,1,433.37,50.93Zm.21-1.17a2,2,0,0,0,1.55-.69,2.52,2.52,0,0,0,.63-1.79,2.57,2.57,0,0,0-.63-1.78,2,2,0,0,0-1.55-.7,2,2,0,0,0-1.56.7,2.57,2.57,0,0,0-.63,1.78,2.53,2.53,0,0,0,.63,1.78A2,2,0,0,0,433.58,49.76Z"/><path class="cls-3" d="M441.1,43.63a3.18,3.18,0,0,1,2.25.76,2.72,2.72,0,0,1,.83,2.09v4.23h-1.24v-1h-.05a2.46,2.46,0,0,1-2.13,1.17,2.76,2.76,0,0,1-1.9-.67,2.14,2.14,0,0,1-.76-1.68,2,2,0,0,1,.8-1.69,3.41,3.41,0,0,1,2.15-.63,3.78,3.78,0,0,1,1.89.42v-.3a1.47,1.47,0,0,0-.53-1.14,1.83,1.83,0,0,0-1.24-.47,2,2,0,0,0-1.71.91L438.32,45A3.16,3.16,0,0,1,441.1,43.63Zm-1.67,5a1,1,0,0,0,.43.84,1.59,1.59,0,0,0,1,.34,2,2,0,0,0,1.45-.61,1.89,1.89,0,0,0,.63-1.41,2.62,2.62,0,0,0-1.68-.48,2.17,2.17,0,0,0-1.3.38A1.11,1.11,0,0,0,439.43,48.61Z"/><path class="cls-3" d="M451.62,43.85l-4.29,9.88H446l1.59-3.45-2.83-6.43h1.4l2,4.93h0l2-4.93Z"/><path class="cls-3" d="M520.93,41.92v8.79h-1.29V41.92h-2.8V40.69h6.89v1.23Z"/><path class="cls-3" d="M524.85,40.69h1.29v3.16l-.06.95h.06A2.3,2.3,0,0,1,527,44a2.64,2.64,0,0,1,1.27-.33,2.55,2.55,0,0,1,1.94.72,2.88,2.88,0,0,1,.68,2v4.31h-1.29V46.65c0-1.23-.55-1.85-1.64-1.85a1.67,1.67,0,0,0-1.32.65,2.32,2.32,0,0,0-.54,1.52v3.74h-1.29Z"/><path class="cls-3" d="M538.46,50.71h-1.23v-1h-.06a2.44,2.44,0,0,1-.9.84,2.64,2.64,0,0,1-1.27.33,2.54,2.54,0,0,1-1.94-.72,2.88,2.88,0,0,1-.68-2.05V43.85h1.29v4.23a1.51,1.51,0,0,0,1.69,1.68,1.59,1.59,0,0,0,1.29-.63,2.22,2.22,0,0,0,.52-1.49V43.85h1.29Z"/><path class="cls-3" d="M541.31,50.71H540V43.85h1.23V45h0a1.88,1.88,0,0,1,.81-.93,2.19,2.19,0,0,1,1.2-.39,2.44,2.44,0,0,1,.95.17l-.4,1.25a2,2,0,0,0-.75-.1,1.68,1.68,0,0,0-1.27.59,2,2,0,0,0-.54,1.37Z"/><path class="cls-3" d="M550.08,48.81a1.85,1.85,0,0,1-.79,1.51,3.09,3.09,0,0,1-2,.61,3.13,3.13,0,0,1-1.82-.54A2.91,2.91,0,0,1,544.38,49l1.15-.49a2.09,2.09,0,0,0,.73,1,1.8,1.8,0,0,0,1.06.35,1.86,1.86,0,0,0,1-.27.77.77,0,0,0,.41-.63c0-.44-.34-.76-1-1l-1.17-.29c-1.34-.34-2-1-2-1.93a1.78,1.78,0,0,1,.76-1.51,3.54,3.54,0,0,1,3.6-.13,2.33,2.33,0,0,1,1,1.16l-1.14.48a1.45,1.45,0,0,0-.64-.68,2,2,0,0,0-1-.25,1.66,1.66,0,0,0-.9.26.7.7,0,0,0-.4.61q0,.59,1.11.84l1,.27C549.4,47.08,550.08,47.77,550.08,48.81Z"/><path class="cls-3" d="M554.14,50.93a3,3,0,0,1-2.31-1.06,4,4,0,0,1,0-5.18,3,3,0,0,1,2.31-1.06,2.92,2.92,0,0,1,1.38.32,2.49,2.49,0,0,1,1,.85h0l0-.95V40.69h1.28v10h-1.23v-1h0a2.49,2.49,0,0,1-1,.85A2.92,2.92,0,0,1,554.14,50.93Zm.21-1.17a2,2,0,0,0,1.55-.69,2.52,2.52,0,0,0,.63-1.79,2.57,2.57,0,0,0-.63-1.78,2,2,0,0,0-1.55-.7,2,2,0,0,0-1.56.7,2.57,2.57,0,0,0-.63,1.78,2.53,2.53,0,0,0,.63,1.78A2,2,0,0,0,554.35,49.76Z"/><path class="cls-3" d="M561.86,43.63a3.19,3.19,0,0,1,2.26.76,2.71,2.71,0,0,1,.82,2.09v4.23h-1.23v-1h-.05a2.47,2.47,0,0,1-2.13,1.17,2.76,2.76,0,0,1-1.9-.67,2.14,2.14,0,0,1-.76-1.68,2,2,0,0,1,.8-1.69,3.41,3.41,0,0,1,2.15-.63,3.78,3.78,0,0,1,1.89.42v-.3a1.47,1.47,0,0,0-.53-1.14,1.83,1.83,0,0,0-1.25-.47,2,2,0,0,0-1.7.91L559.09,45A3.15,3.15,0,0,1,561.86,43.63Zm-1.66,5a1,1,0,0,0,.43.84,1.57,1.57,0,0,0,1,.34,2,2,0,0,0,1.45-.61,1.89,1.89,0,0,0,.63-1.41,2.62,2.62,0,0,0-1.68-.48,2.21,2.21,0,0,0-1.31.38A1.12,1.12,0,0,0,560.2,48.61Z"/><path class="cls-3" d="M572.39,43.85l-4.3,9.88h-1.33l1.6-3.45-2.83-6.43h1.4L569,48.78h0l2-4.93Z"/><path class="cls-3" d="M654.72,46.41v4.3h-1.29v-10h5.85v1.23h-4.56v3.29h4.11v1.2Z"/><path class="cls-3" d="M661.52,50.71h-1.29V43.85h1.24V45h0a1.88,1.88,0,0,1,.81-.93,2.18,2.18,0,0,1,1.19-.39,2.41,2.41,0,0,1,1,.17l-.39,1.25a2,2,0,0,0-.75-.1,1.68,1.68,0,0,0-1.27.59,2,2,0,0,0-.54,1.37Z"/><path class="cls-3" d="M667,41.48a.91.91,0,0,1-.26.65.92.92,0,0,1-.65.26.9.9,0,0,1-.91-.91.87.87,0,0,1,.27-.64.85.85,0,0,1,.64-.27.9.9,0,0,1,.91.91Zm-.26,2.37v6.86h-1.29V43.85Z"/><path class="cls-3" d="M671.19,50.93a3,3,0,0,1-2.3-1.06,4,4,0,0,1,0-5.18,3,3,0,0,1,2.3-1.06,2.87,2.87,0,0,1,1.38.32,2.35,2.35,0,0,1,1,.85h.06l-.06-.95V40.69h1.29v10h-1.23v-1h-.06a2.35,2.35,0,0,1-1,.85A2.87,2.87,0,0,1,671.19,50.93Zm.21-1.17a2,2,0,0,0,1.56-.69,2.52,2.52,0,0,0,.63-1.79A2.57,2.57,0,0,0,673,45.5a2,2,0,0,0-1.56-.7,2,2,0,0,0-1.55.7,2.57,2.57,0,0,0-.63,1.78,2.53,2.53,0,0,0,.63,1.78A2,2,0,0,0,671.4,49.76Z"/><path class="cls-3" d="M678.92,43.63a3.2,3.2,0,0,1,2.26.76,2.71,2.71,0,0,1,.82,2.09v4.23h-1.23v-1h0a2.48,2.48,0,0,1-2.13,1.17,2.76,2.76,0,0,1-1.9-.67,2.14,2.14,0,0,1-.76-1.68,2,2,0,0,1,.8-1.69,3.41,3.41,0,0,1,2.15-.63,3.78,3.78,0,0,1,1.89.42v-.3a1.5,1.5,0,0,0-.53-1.14,1.85,1.85,0,0,0-1.25-.47,2,2,0,0,0-1.71.91L676.15,45A3.15,3.15,0,0,1,678.92,43.63Zm-1.66,5a1,1,0,0,0,.42.84,1.61,1.61,0,0,0,1,.34,2,2,0,0,0,1.45-.61,1.86,1.86,0,0,0,.64-1.41,2.62,2.62,0,0,0-1.68-.48,2.21,2.21,0,0,0-1.31.38A1.12,1.12,0,0,0,677.26,48.61Z"/><path class="cls-3" d="M689.45,43.85l-4.3,9.88h-1.33l1.6-3.45-2.83-6.43H684l2,4.93h0l2-4.93Z"/><path class="cls-3" d="M796.8,48a2.62,2.62,0,0,1-1,2.11,3.7,3.7,0,0,1-2.38.78,3.56,3.56,0,0,1-2.2-.72,3.75,3.75,0,0,1-1.31-2l1.23-.51a3.17,3.17,0,0,0,.35.82,2.64,2.64,0,0,0,.52.62,2.17,2.17,0,0,0,.67.4,2,2,0,0,0,.77.15,2.21,2.21,0,0,0,1.44-.45,1.5,1.5,0,0,0,.56-1.21A1.44,1.44,0,0,0,795,47a4.36,4.36,0,0,0-1.63-.84c-.8-.29-1.3-.49-1.49-.59a2.57,2.57,0,0,1-1.6-2.39,2.43,2.43,0,0,1,.88-1.89,3.2,3.2,0,0,1,2.2-.79,3.39,3.39,0,0,1,2,.59,2.75,2.75,0,0,1,1.12,1.44l-1.21.51a1.77,1.77,0,0,0-.66-.94,2,2,0,0,0-1.21-.37,2,2,0,0,0-1.28.42,1.26,1.26,0,0,0-.51,1,1.17,1.17,0,0,0,.4.89,7.21,7.21,0,0,0,2,.9,4.9,4.9,0,0,1,2.17,1.27A2.66,2.66,0,0,1,796.8,48Z"/><path class="cls-3" d="M800.73,43.63a3.18,3.18,0,0,1,2.25.76,2.72,2.72,0,0,1,.83,2.09v4.23h-1.23v-1h-.06a2.46,2.46,0,0,1-2.13,1.17,2.73,2.73,0,0,1-1.89-.67,2.15,2.15,0,0,1-.77-1.68,2,2,0,0,1,.81-1.69,3.37,3.37,0,0,1,2.15-.63,3.83,3.83,0,0,1,1.89.42v-.3a1.5,1.5,0,0,0-.53-1.14,1.85,1.85,0,0,0-1.25-.47,2,2,0,0,0-1.71.91L798,45A3.14,3.14,0,0,1,800.73,43.63Zm-1.67,5a1,1,0,0,0,.43.84,1.59,1.59,0,0,0,1,.34,2,2,0,0,0,1.45-.61,1.9,1.9,0,0,0,.64-1.41,2.62,2.62,0,0,0-1.68-.48,2.18,2.18,0,0,0-1.31.38A1.13,1.13,0,0,0,799.06,48.61Z"/><path class="cls-3" d="M807.84,50.82a1.93,1.93,0,0,1-1.39-.52,1.9,1.9,0,0,1-.57-1.44V45h-1.2V43.85h1.2v-2.1h1.29v2.1h1.68V45h-1.68v3.41a1.23,1.23,0,0,0,.27.93.82.82,0,0,0,.6.25,1,1,0,0,0,.3,0,1.07,1.07,0,0,0,.27-.09l.41,1.15A3.53,3.53,0,0,1,807.84,50.82Z"/><path class="cls-3" d="M816.1,50.71h-1.23v-1h-.06a2.3,2.3,0,0,1-.9.84,2.64,2.64,0,0,1-1.27.33,2.55,2.55,0,0,1-1.94-.72,2.88,2.88,0,0,1-.67-2.05V43.85h1.28v4.23a1.52,1.52,0,0,0,1.7,1.68,1.62,1.62,0,0,0,1.29-.63,2.26,2.26,0,0,0,.51-1.49V43.85h1.29Z"/><path class="cls-3" d="M819,50.71h-1.29V43.85h1.23V45H819a1.9,1.9,0,0,1,.8-.93,2.24,2.24,0,0,1,1.2-.39,2.44,2.44,0,0,1,.95.17l-.39,1.25a2,2,0,0,0-.76-.1,1.67,1.67,0,0,0-1.26.59,2,2,0,0,0-.54,1.37Z"/><path class="cls-3" d="M825.2,50.93a3,3,0,0,1-2.31-1.06,4,4,0,0,1,0-5.18,3,3,0,0,1,2.31-1.06,2.87,2.87,0,0,1,1.38.32,2.35,2.35,0,0,1,1,.85h.06l-.06-.95V40.69h1.29v10H827.6v-1h-.06a2.35,2.35,0,0,1-1,.85A2.87,2.87,0,0,1,825.2,50.93Zm.21-1.17a2,2,0,0,0,1.56-.69,2.52,2.52,0,0,0,.63-1.79A2.57,2.57,0,0,0,827,45.5a2.08,2.08,0,0,0-3.11,0,2.57,2.57,0,0,0-.63,1.78,2.53,2.53,0,0,0,.63,1.78A2,2,0,0,0,825.41,49.76Z"/><path class="cls-3" d="M832.93,43.63a3.18,3.18,0,0,1,2.25.76,2.72,2.72,0,0,1,.83,2.09v4.23h-1.23v-1h-.06a2.46,2.46,0,0,1-2.13,1.17,2.73,2.73,0,0,1-1.89-.67,2.15,2.15,0,0,1-.77-1.68,2,2,0,0,1,.81-1.69,3.37,3.37,0,0,1,2.15-.63,3.83,3.83,0,0,1,1.89.42v-.3a1.5,1.5,0,0,0-.53-1.14,1.85,1.85,0,0,0-1.25-.47,2,2,0,0,0-1.71.91L830.16,45A3.14,3.14,0,0,1,832.93,43.63Zm-1.67,5a1,1,0,0,0,.43.84,1.59,1.59,0,0,0,1,.34,2,2,0,0,0,1.45-.61,1.9,1.9,0,0,0,.64-1.41,2.62,2.62,0,0,0-1.68-.48,2.18,2.18,0,0,0-1.31.38A1.13,1.13,0,0,0,831.26,48.61Z"/><path class="cls-3" d="M843.46,43.85l-4.3,9.88h-1.33l1.59-3.45-2.82-6.43H838l2,4.93h0l2-4.93Z"/><path class="cls-3" d="M931.7,48a2.59,2.59,0,0,1-1,2.11,3.68,3.68,0,0,1-2.38.78,3.51,3.51,0,0,1-2.19-.72,3.71,3.71,0,0,1-1.32-2l1.23-.51a3.55,3.55,0,0,0,.35.82,2.67,2.67,0,0,0,.53.62,2.24,2.24,0,0,0,.66.4,2,2,0,0,0,.77.15,2.21,2.21,0,0,0,1.44-.45,1.47,1.47,0,0,0,.56-1.21,1.44,1.44,0,0,0-.46-1.08,4.38,4.38,0,0,0-1.62-.84c-.8-.29-1.3-.49-1.5-.59a2.57,2.57,0,0,1-1.59-2.39,2.43,2.43,0,0,1,.88-1.89,3.17,3.17,0,0,1,2.19-.79,3.39,3.39,0,0,1,2,.59,2.7,2.7,0,0,1,1.12,1.44l-1.2.51a1.79,1.79,0,0,0-.67-.94,2,2,0,0,0-1.21-.37,1.94,1.94,0,0,0-1.27.42,1.24,1.24,0,0,0-.52,1,1.18,1.18,0,0,0,.41.89,7.1,7.1,0,0,0,1.94.9,4.88,4.88,0,0,1,2.18,1.27A2.7,2.7,0,0,1,931.7,48Z"/><path class="cls-3" d="M938.84,50.71h-1.23v-1h-.06a2.3,2.3,0,0,1-.9.84,2.64,2.64,0,0,1-1.27.33,2.55,2.55,0,0,1-1.94-.72,2.88,2.88,0,0,1-.68-2.05V43.85h1.29v4.23a1.52,1.52,0,0,0,1.7,1.68,1.59,1.59,0,0,0,1.28-.63,2.22,2.22,0,0,0,.52-1.49V43.85h1.29Z"/><path class="cls-3" d="M940.41,43.85h1.23v.95h.06a2.3,2.3,0,0,1,.9-.84,2.64,2.64,0,0,1,1.27-.33,2.55,2.55,0,0,1,1.94.72,2.88,2.88,0,0,1,.67,2v4.31H945.2V46.48a1.52,1.52,0,0,0-1.7-1.68,1.64,1.64,0,0,0-1.29.62,2.31,2.31,0,0,0-.51,1.5v3.79h-1.29Z"/><path class="cls-3" d="M950.87,50.93a3,3,0,0,1-2.31-1.06,4,4,0,0,1,0-5.18,3,3,0,0,1,2.31-1.06,2.92,2.92,0,0,1,1.38.32,2.39,2.39,0,0,1,1,.85h.06l-.06-.95V40.69h1.29v10h-1.23v-1h-.06a2.39,2.39,0,0,1-1,.85A2.92,2.92,0,0,1,950.87,50.93Zm.21-1.17a2,2,0,0,0,1.55-.69,2.52,2.52,0,0,0,.63-1.79,2.57,2.57,0,0,0-.63-1.78,2,2,0,0,0-1.55-.7,2,2,0,0,0-1.56.7,2.57,2.57,0,0,0-.63,1.78,2.53,2.53,0,0,0,.63,1.78A2,2,0,0,0,951.08,49.76Z"/><path class="cls-3" d="M958.59,43.63a3.19,3.19,0,0,1,2.26.76,2.71,2.71,0,0,1,.82,2.09v4.23h-1.23v-1h-.05a2.47,2.47,0,0,1-2.13,1.17,2.76,2.76,0,0,1-1.9-.67,2.14,2.14,0,0,1-.76-1.68,2,2,0,0,1,.8-1.69,3.41,3.41,0,0,1,2.15-.63,3.78,3.78,0,0,1,1.89.42v-.3a1.47,1.47,0,0,0-.53-1.14,1.83,1.83,0,0,0-1.25-.47,2,2,0,0,0-1.7.91L955.82,45A3.15,3.15,0,0,1,958.59,43.63Zm-1.66,5a1,1,0,0,0,.43.84,1.57,1.57,0,0,0,1,.34,2,2,0,0,0,1.45-.61,1.89,1.89,0,0,0,.63-1.41,2.62,2.62,0,0,0-1.68-.48,2.21,2.21,0,0,0-1.31.38A1.12,1.12,0,0,0,956.93,48.61Z"/><path class="cls-3" d="M969.12,43.85l-4.3,9.88h-1.33l1.6-3.45-2.83-6.43h1.4l2.05,4.93h0l2-4.93Z"/><path class="cls-4" d="M124.09,125.43a4.54,4.54,0,0,1-1.25,3.35,4.81,4.81,0,0,1-3.68,1.48,5.24,5.24,0,1,1,0-10.47,5.54,5.54,0,0,1,2.08.39,4.07,4.07,0,0,1,1.61,1.11l-.92.92a3.18,3.18,0,0,0-1.2-.88,4.11,4.11,0,0,0-1.57-.31,3.78,3.78,0,0,0-2.77,1.13,4.24,4.24,0,0,0,0,5.74,4,4,0,0,0,5.26.3,3.35,3.35,0,0,0,1.15-2.31h-3.64v-1.21H124A5.24,5.24,0,0,1,124.09,125.43Z"/><path class="cls-4" d="M128.44,130.26a3.24,3.24,0,0,1-2.49-1,3.62,3.62,0,0,1-1-2.61,3.68,3.68,0,0,1,1-2.61,3.41,3.41,0,0,1,4.86-.06,3.91,3.91,0,0,1,.91,2.76l0,.14h-5.39a2.24,2.24,0,0,0,.68,1.63,2.18,2.18,0,0,0,3.47-.62l1.15.56a3.49,3.49,0,0,1-1.28,1.36A3.54,3.54,0,0,1,128.44,130.26Zm-2.06-4.48h3.94a1.74,1.74,0,0,0-.58-1.18,2,2,0,0,0-1.41-.47,1.89,1.89,0,0,0-1.26.45A2.13,2.13,0,0,0,126.38,125.78Z"/><path class="cls-4" d="M132.86,123.18h1.24v.95h.05a2.29,2.29,0,0,1,.9-.84,2.79,2.79,0,0,1,3.21.38,2.9,2.9,0,0,1,.68,2V130h-1.29v-4.23a1.51,1.51,0,0,0-1.69-1.68,1.61,1.61,0,0,0-1.29.62,2.24,2.24,0,0,0-.52,1.49V130h-1.29Z"/><path class="cls-4" d="M143.53,130.26a3.24,3.24,0,0,1-2.49-1,3.66,3.66,0,0,1-1-2.61A3.73,3.73,0,0,1,141,124a3.42,3.42,0,0,1,4.87-.06,4,4,0,0,1,.9,2.76v.14h-5.39a2.2,2.2,0,0,0,.67,1.63,2.18,2.18,0,0,0,3.47-.62l1.15.56a3.49,3.49,0,0,1-1.28,1.36A3.54,3.54,0,0,1,143.53,130.26Zm-2.06-4.48h3.94a1.7,1.7,0,0,0-.58-1.18,2,2,0,0,0-1.41-.47,1.85,1.85,0,0,0-1.25.45A2.2,2.2,0,0,0,141.47,125.78Z"/><path class="cls-4" d="M149.24,130H148v-6.86h1.23v1.12h.05a1.8,1.8,0,0,1,.81-.93,2.19,2.19,0,0,1,1.2-.39,2.44,2.44,0,0,1,.95.17l-.39,1.24a2.37,2.37,0,0,0-.76-.09,1.67,1.67,0,0,0-1.27.58,2,2,0,0,0-.54,1.38Z"/><path class="cls-4" d="M155.36,123a3.25,3.25,0,0,1,2.26.76,2.72,2.72,0,0,1,.82,2.1V130h-1.23v-1h-.06a2.44,2.44,0,0,1-2.12,1.18,2.76,2.76,0,0,1-1.9-.67,2.14,2.14,0,0,1-.76-1.68,2,2,0,0,1,.8-1.7,3.39,3.39,0,0,1,2.15-.63,3.78,3.78,0,0,1,1.89.42v-.29a1.47,1.47,0,0,0-.53-1.14,1.85,1.85,0,0,0-1.25-.47,2,2,0,0,0-1.71.91l-1.13-.71A3.16,3.16,0,0,1,155.36,123Zm-1.66,5a1.05,1.05,0,0,0,.42.84,1.6,1.6,0,0,0,1,.33,2,2,0,0,0,1.45-.6,1.86,1.86,0,0,0,.64-1.41,2.62,2.62,0,0,0-1.68-.48,2.21,2.21,0,0,0-1.31.38A1.11,1.11,0,0,0,153.7,127.94Z"/><path class="cls-4" d="M161.19,120v10H159.9V120Z"/><path class="cls-4" d="M166.06,130V120h3.62a2.9,2.9,0,0,1,2,.79,2.49,2.49,0,0,1,.85,1.94,2.11,2.11,0,0,1-1.36,2.09v0a2.43,2.43,0,0,1,1.24.88,2.36,2.36,0,0,1,.46,1.42,2.63,2.63,0,0,1-.9,2,3,3,0,0,1-2.14.82Zm1.29-8.8v3.07h2.33a1.55,1.55,0,0,0,1.15-.46,1.51,1.51,0,0,0,.46-1.08,1.53,1.53,0,0,0-.44-1.06,1.49,1.49,0,0,0-1.11-.47Zm0,4.27v3.29h2.59a1.64,1.64,0,0,0,1.66-1.65,1.57,1.57,0,0,0-.49-1.15,1.71,1.71,0,0,0-1.23-.49Z"/><path class="cls-4" d="M173.76,126.61a3.63,3.63,0,0,1,1-2.62,3.6,3.6,0,0,1,5.06,0,3.6,3.6,0,0,1,1,2.62,3.56,3.56,0,0,1-1,2.61,3.6,3.6,0,0,1-5.06,0A3.62,3.62,0,0,1,173.76,126.61Zm1.29,0a2.52,2.52,0,0,0,.64,1.79,2.21,2.21,0,0,0,3.19,0,2.78,2.78,0,0,0,0-3.57,2.17,2.17,0,0,0-3.19,0A2.49,2.49,0,0,0,175.05,126.61Z"/><path class="cls-4" d="M184.59,123a3.23,3.23,0,0,1,2.26.76,2.72,2.72,0,0,1,.82,2.1V130h-1.23v-1h-.05a2.47,2.47,0,0,1-2.13,1.18,2.76,2.76,0,0,1-1.9-.67,2.14,2.14,0,0,1-.76-1.68,2.06,2.06,0,0,1,.8-1.7,3.41,3.41,0,0,1,2.15-.63,3.78,3.78,0,0,1,1.89.42v-.29a1.47,1.47,0,0,0-.53-1.14,1.85,1.85,0,0,0-1.25-.47,2,2,0,0,0-1.7.91l-1.14-.71A3.16,3.16,0,0,1,184.59,123Zm-1.66,5a1.05,1.05,0,0,0,.42.84,1.61,1.61,0,0,0,1,.33,2,2,0,0,0,1.44-.6,1.86,1.86,0,0,0,.64-1.41,2.62,2.62,0,0,0-1.68-.48,2.21,2.21,0,0,0-1.31.38A1.11,1.11,0,0,0,182.93,127.94Z"/><path class="cls-4" d="M190.42,130h-1.29v-6.86h1.23v1.12h.06a1.82,1.82,0,0,1,.8-.93,2.24,2.24,0,0,1,1.2-.39,2.44,2.44,0,0,1,1,.17l-.39,1.24a2.32,2.32,0,0,0-.76-.09,1.66,1.66,0,0,0-1.26.58,2,2,0,0,0-.54,1.38Z"/><path class="cls-4" d="M196.66,130.26a3,3,0,0,1-2.31-1.06,4,4,0,0,1,0-5.18,3,3,0,0,1,2.31-1.07,3,3,0,0,1,1.38.32,2.37,2.37,0,0,1,1,.86h.06l-.06-.95V120h1.29v10h-1.23v-1H199a2.37,2.37,0,0,1-1,.86A3,3,0,0,1,196.66,130.26Zm.21-1.18a2,2,0,0,0,1.56-.68,2.84,2.84,0,0,0,0-3.57,2.08,2.08,0,0,0-3.11,0,2.55,2.55,0,0,0-.63,1.78,2.51,2.51,0,0,0,.63,1.77A2,2,0,0,0,196.87,129.08Z"/><path class="cls-4" d="M115.73,146.84h-1.29v-10h1.29l3.48,6.11h.06l3.49-6.11H124v10h-1.28v-6l0-1.68h0l-3.14,5.5h-.76l-3.13-5.5h-.06l.06,1.68Z"/><path class="cls-4" d="M128.92,147.06a3.3,3.3,0,0,1-2.5-1,4,4,0,0,1,0-5.23,3.41,3.41,0,0,1,4.86-.06,4,4,0,0,1,.9,2.76v.14h-5.39a2.24,2.24,0,0,0,.67,1.63,2.18,2.18,0,0,0,3.47-.62l1.15.56a3.42,3.42,0,0,1-1.28,1.36A3.51,3.51,0,0,1,128.92,147.06Zm-2.06-4.48h3.93a1.7,1.7,0,0,0-.58-1.18,2,2,0,0,0-1.41-.47,1.86,1.86,0,0,0-1.25.45A2.13,2.13,0,0,0,126.86,142.58Z"/><path class="cls-4" d="M136.49,147.06a3.27,3.27,0,0,1-2.49-1,4,4,0,0,1,0-5.23,3.41,3.41,0,0,1,4.86-.06,3.91,3.91,0,0,1,.91,2.76l0,.14h-5.39a2.24,2.24,0,0,0,.68,1.63,2.18,2.18,0,0,0,3.47-.62l1.15.56a3.47,3.47,0,0,1-3.14,1.85Zm-2.06-4.48h3.94a1.71,1.71,0,0,0-.59-1.18,2,2,0,0,0-1.4-.47,1.87,1.87,0,0,0-1.26.45A2.13,2.13,0,0,0,134.43,142.58Z"/><path class="cls-4" d="M143.42,147a1.87,1.87,0,0,1-2-2v-3.84h-1.2V140h1.2v-2.1h1.29V140h1.68v1.17h-1.68v3.42a1.28,1.28,0,0,0,.26.93.89.89,0,0,0,.6.25,1.55,1.55,0,0,0,.31,0,1.22,1.22,0,0,0,.27-.09l.4,1.15A3.43,3.43,0,0,1,143.42,147Z"/><path class="cls-4" d="M147.4,137.61a.85.85,0,0,1-.27.64.91.91,0,0,1-1.29,0,.89.89,0,0,1,0-1.28.91.91,0,0,1,1.29,0A.85.85,0,0,1,147.4,137.61Zm-.27,2.37v6.86h-1.29V140Z"/><path class="cls-4" d="M148.81,140H150v1h.06a2.16,2.16,0,0,1,.9-.84,2.66,2.66,0,0,1,1.27-.34,2.55,2.55,0,0,1,1.94.72,2.92,2.92,0,0,1,.67,2.06v4.31H153.6v-4.23a1.52,1.52,0,0,0-1.7-1.68,1.64,1.64,0,0,0-1.29.62,2.28,2.28,0,0,0-.51,1.49v3.8h-1.29Z"/><path class="cls-4" d="M159.36,150.08a3.62,3.62,0,0,1-2-.55,2.86,2.86,0,0,1-1.16-1.45l1.22-.5a1.94,1.94,0,0,0,.73,1,2,2,0,0,0,1.2.37,2.13,2.13,0,0,0,1.64-.63,2.46,2.46,0,0,0,.59-1.74v-.66h-.06a2.51,2.51,0,0,1-1,.87,3,3,0,0,1-1.35.31,3,3,0,0,1-2.31-1.05,3.78,3.78,0,0,1-1-2.6,3.72,3.72,0,0,1,1-2.59,3,3,0,0,1,3.66-.75,2.48,2.48,0,0,1,1,.86h.06v-1h1.23v6.56a3.48,3.48,0,0,1-.94,2.59A3.37,3.37,0,0,1,159.36,150.08Zm0-4.2a2,2,0,0,0,1.55-.68,2.84,2.84,0,0,0,0-3.57,2,2,0,0,0-1.55-.7,2,2,0,0,0-1.56.7,2.57,2.57,0,0,0-.63,1.78,2.51,2.51,0,0,0,.63,1.77A2,2,0,0,0,159.41,145.88Z"/><path class="cls-4" d="M115.73,396.67v4.06h-1.29v-10h3.42a3.1,3.1,0,0,1,2.21.87,2.9,2.9,0,0,1,0,4.24,3.1,3.1,0,0,1-2.21.86Zm0-4.74v3.5h2.15a1.76,1.76,0,0,0,1.8-1.75,1.81,1.81,0,0,0-1.8-1.75Z"/><path class="cls-4" d="M123.4,400.73h-1.29v-6.86h1.23V395h.06a1.82,1.82,0,0,1,.8-.93,2.24,2.24,0,0,1,1.2-.39,2.41,2.41,0,0,1,.95.17l-.39,1.24a2.3,2.3,0,0,0-.75-.09,1.67,1.67,0,0,0-1.27.58,2,2,0,0,0-.54,1.38Z"/><path class="cls-4" d="M126.38,397.3a3.6,3.6,0,0,1,1-2.62,3.38,3.38,0,0,1,2.53-1,3.34,3.34,0,0,1,2.52,1,3.9,3.9,0,0,1,0,5.24,3.33,3.33,0,0,1-2.52,1,3.37,3.37,0,0,1-2.53-1A3.63,3.63,0,0,1,126.38,397.3Zm1.29,0a2.52,2.52,0,0,0,.64,1.79,2.22,2.22,0,0,0,3.2,0,2.81,2.81,0,0,0,0-3.57,2.18,2.18,0,0,0-3.2,0A2.49,2.49,0,0,0,127.67,397.3Z"/><path class="cls-4" d="M133.89,403.89a2,2,0,0,1-.76-.14l.34-1.12a1,1,0,0,0,.37.08c.53,0,.8-.32.82-1v-7.88h1.28v7.68C135.94,403.11,135.26,403.89,133.89,403.89Zm2.32-12.39a.92.92,0,1,1-.27-.64A.85.85,0,0,1,136.21,391.5Z"/><path class="cls-4" d="M140.63,401a3.3,3.3,0,0,1-2.49-1,4,4,0,0,1,0-5.23,3.16,3.16,0,0,1,2.44-1.05,3.12,3.12,0,0,1,2.43,1,4,4,0,0,1,.9,2.76v.14h-5.39a2.24,2.24,0,0,0,.67,1.63,2.18,2.18,0,0,0,3.47-.62l1.15.56a3.49,3.49,0,0,1-1.28,1.36A3.54,3.54,0,0,1,140.63,401Zm-2-4.48h3.93a1.7,1.7,0,0,0-.58-1.18,2,2,0,0,0-1.41-.47,1.86,1.86,0,0,0-1.25.45A2.13,2.13,0,0,0,138.58,396.47Z"/><path class="cls-4" d="M148.26,401a3.38,3.38,0,0,1-2.53-1,3.72,3.72,0,0,1-1-2.62,3.63,3.63,0,0,1,1-2.62,3.39,3.39,0,0,1,2.53-1,3.26,3.26,0,0,1,1.84.53,3.18,3.18,0,0,1,1.17,1.45l-1.17.49a2,2,0,0,0-1.92-1.29,2,2,0,0,0-1.53.71,2.79,2.79,0,0,0,0,3.53,2,2,0,0,0,1.53.71,2,2,0,0,0,2-1.28l1.15.49a3.15,3.15,0,0,1-1.19,1.45A3.33,3.33,0,0,1,148.26,401Z"/><path class="cls-4" d="M155.08,400.84a1.87,1.87,0,0,1-2-2V395h-1.2v-1.17h1.2v-2.1h1.29v2.1h1.68V395h-1.68v3.42a1.23,1.23,0,0,0,.27.93.85.85,0,0,0,.6.24l.3,0a1.07,1.07,0,0,0,.27-.09l.41,1.15A3.53,3.53,0,0,1,155.08,400.84Z"/><path class="cls-4" d="M170.16,395.71a5.12,5.12,0,0,1-1.48,3.73,5.21,5.21,0,0,1-7.34,0,5.43,5.43,0,0,1,0-7.45,5.2,5.2,0,0,1,7.34,0A5.11,5.11,0,0,1,170.16,395.71Zm-9,0a4,4,0,0,0,1.09,2.87,3.69,3.69,0,0,0,2.75,1.14,3.63,3.63,0,0,0,2.73-1.14,4.29,4.29,0,0,0,0-5.74,3.66,3.66,0,0,0-2.73-1.13,3.72,3.72,0,0,0-2.75,1.13A4,4,0,0,0,161.17,395.71Z"/><path class="cls-4" d="M174.33,401a3,3,0,0,1-2.31-1.06,4,4,0,0,1,0-5.18,3.06,3.06,0,0,1,3.69-.75,2.37,2.37,0,0,1,1,.86h.05l-.05-.95V390.7H178v10h-1.24v-1h-.05a2.37,2.37,0,0,1-1,.86A3,3,0,0,1,174.33,401Zm.21-1.18a1.94,1.94,0,0,0,1.55-.68,2.84,2.84,0,0,0,0-3.57,2,2,0,0,0-1.55-.7,2,2,0,0,0-1.55.7,2.57,2.57,0,0,0-.63,1.78,2.51,2.51,0,0,0,.63,1.77A2,2,0,0,0,174.54,399.77Z"/><path class="cls-4" d="M181.19,391.5a.9.9,0,0,1-.91.91.91.91,0,0,1,0-1.82.9.9,0,0,1,.91.91Zm-.26,2.37v6.86h-1.29v-6.86Z"/><path class="cls-4" d="M182.6,393.87h1.24v.95h0a2.26,2.26,0,0,1,.91-.84,2.49,2.49,0,0,1,1.26-.34,2.54,2.54,0,0,1,1.94.72,2.91,2.91,0,0,1,.68,2.06v4.31h-1.29V396.5a1.51,1.51,0,0,0-1.69-1.68,1.64,1.64,0,0,0-1.29.62,2.29,2.29,0,0,0-.52,1.49v3.8H182.6Z"/><path class="cls-4" d="M115.73,417.53h-1.29v-10h1.29l3.48,6.11h.06l3.49-6.11H124v10h-1.28v-5.95l0-1.68h0l-3.14,5.5h-.76l-3.13-5.5h-.06l.06,1.68Z"/><path class="cls-4" d="M128.92,417.75a3.3,3.3,0,0,1-2.5-1,4,4,0,0,1,0-5.23,3.41,3.41,0,0,1,4.86-.06,4,4,0,0,1,.9,2.77v.13h-5.39a2.24,2.24,0,0,0,.67,1.63,2.15,2.15,0,0,0,1.54.62,2.13,2.13,0,0,0,1.93-1.24l1.15.56a3.42,3.42,0,0,1-1.28,1.36A3.51,3.51,0,0,1,128.92,417.75Zm-2.06-4.48h3.93a1.7,1.7,0,0,0-.58-1.18,2.05,2.05,0,0,0-1.41-.47,1.86,1.86,0,0,0-1.25.45A2.13,2.13,0,0,0,126.86,413.27Z"/><path class="cls-4" d="M136.49,417.75a3.27,3.27,0,0,1-2.49-1,4,4,0,0,1,0-5.23,3.41,3.41,0,0,1,4.86-.06,3.92,3.92,0,0,1,.91,2.77l0,.13h-5.39A2.24,2.24,0,0,0,135,416a2.16,2.16,0,0,0,3.47-.62l1.15.56a3.47,3.47,0,0,1-3.14,1.85Zm-2.06-4.48h3.94a1.71,1.71,0,0,0-.59-1.18,2,2,0,0,0-1.4-.47,1.87,1.87,0,0,0-1.26.45A2.13,2.13,0,0,0,134.43,413.27Z"/><path class="cls-4" d="M143.42,417.64a1.87,1.87,0,0,1-2-2v-3.84h-1.2v-1.17h1.2v-2.1h1.29v2.1h1.68v1.17h-1.68v3.42a1.28,1.28,0,0,0,.26.93.89.89,0,0,0,.6.25,1.55,1.55,0,0,0,.31,0,1.22,1.22,0,0,0,.27-.09l.4,1.15A3.43,3.43,0,0,1,143.42,417.64Z"/><path class="cls-4" d="M147.4,408.3a.9.9,0,0,1-.91.91.91.91,0,0,1-.65-.26.89.89,0,0,1-.27-.65.85.85,0,0,1,.27-.64.91.91,0,0,1,1.29,0A.85.85,0,0,1,147.4,408.3Zm-.27,2.37v6.86h-1.29v-6.86Z"/><path class="cls-4" d="M148.81,410.67H150v.95h.06a2.16,2.16,0,0,1,.9-.84,2.66,2.66,0,0,1,1.27-.34,2.55,2.55,0,0,1,1.94.72,2.92,2.92,0,0,1,.67,2.06v4.31H153.6V413.3a1.52,1.52,0,0,0-1.7-1.68,1.64,1.64,0,0,0-1.29.62,2.28,2.28,0,0,0-.51,1.49v3.8h-1.29Z"/><path class="cls-4" d="M159.36,420.78a3.74,3.74,0,0,1-2-.56,2.86,2.86,0,0,1-1.16-1.45l1.22-.5a2,2,0,0,0,.73,1,2.07,2.07,0,0,0,1.2.36A2.13,2.13,0,0,0,161,419a2.46,2.46,0,0,0,.59-1.74v-.65h-.06a2.56,2.56,0,0,1-1,.86,3,3,0,0,1-1.35.31,3,3,0,0,1-2.31-1.05,3.77,3.77,0,0,1-1-2.6,3.72,3.72,0,0,1,1-2.59,3,3,0,0,1,3.66-.75,2.48,2.48,0,0,1,1,.86h.06v-.95h1.23v6.56a3.48,3.48,0,0,1-.94,2.59A3.38,3.38,0,0,1,159.36,420.78Zm0-4.2a2,2,0,0,0,1.55-.69,2.84,2.84,0,0,0,0-3.57,2,2,0,0,0-1.55-.7,2,2,0,0,0-1.56.7,2.57,2.57,0,0,0-.63,1.78,2.53,2.53,0,0,0,.63,1.78A2,2,0,0,0,159.41,416.58Z"/><path class="cls-4" d="M261.57,260.77a4.53,4.53,0,0,1-1.24,3.35,4.81,4.81,0,0,1-3.68,1.48,5.24,5.24,0,1,1,0-10.47,5.57,5.57,0,0,1,2.08.39,4.29,4.29,0,0,1,1.61,1.11l-.92.92a3.16,3.16,0,0,0-1.2-.87,3.93,3.93,0,0,0-1.57-.31,3.76,3.76,0,0,0-2.78,1.13,4.24,4.24,0,0,0,0,5.74,3.76,3.76,0,0,0,2.78,1.13,3.71,3.71,0,0,0,2.49-.84,3.39,3.39,0,0,0,1.15-2.31h-3.64V260h4.85A4,4,0,0,1,261.57,260.77Z"/><path class="cls-4" d="M265.93,265.6a3.27,3.27,0,0,1-2.49-1,3.63,3.63,0,0,1-1-2.62,3.72,3.72,0,0,1,1-2.61,3.11,3.11,0,0,1,2.43-1,3.15,3.15,0,0,1,2.43,1,3.92,3.92,0,0,1,.91,2.77l0,.14h-5.39a2.27,2.27,0,0,0,.67,1.62,2.18,2.18,0,0,0,3.48-.61l1.14.56a3.36,3.36,0,0,1-1.28,1.36A3.57,3.57,0,0,1,265.93,265.6Zm-2.06-4.47h3.93a1.68,1.68,0,0,0-.58-1.19,2,2,0,0,0-1.4-.47,1.87,1.87,0,0,0-1.26.45A2.13,2.13,0,0,0,263.87,261.13Z"/><path class="cls-4" d="M270.35,258.52h1.23v1h.06a2.44,2.44,0,0,1,.9-.84,2.64,2.64,0,0,1,1.27-.33,2.54,2.54,0,0,1,1.94.72,2.88,2.88,0,0,1,.68,2.05v4.31h-1.29v-4.23a1.51,1.51,0,0,0-1.69-1.68,1.59,1.59,0,0,0-1.29.63,2.22,2.22,0,0,0-.52,1.49v3.79h-1.29Z"/><path class="cls-4" d="M281,265.6a3.27,3.27,0,0,1-2.49-1,3.63,3.63,0,0,1-1-2.62,3.76,3.76,0,0,1,.95-2.61,3.13,3.13,0,0,1,2.44-1,3.18,3.18,0,0,1,2.43,1,4,4,0,0,1,.9,2.77l0,.14h-5.39a2.24,2.24,0,0,0,.68,1.62,2.17,2.17,0,0,0,3.47-.61l1.15.56a3.49,3.49,0,0,1-1.28,1.36A3.63,3.63,0,0,1,281,265.6ZM279,261.13h3.94a1.72,1.72,0,0,0-.58-1.19,2.05,2.05,0,0,0-1.41-.47,1.85,1.85,0,0,0-1.25.45A2.14,2.14,0,0,0,279,261.13Z"/><path class="cls-4" d="M286.73,265.38h-1.29v-6.86h1.24v1.12h.05a1.88,1.88,0,0,1,.81-.93,2.17,2.17,0,0,1,1.19-.38,2.51,2.51,0,0,1,1,.16l-.4,1.25a2,2,0,0,0-.75-.1,1.68,1.68,0,0,0-1.27.59,2,2,0,0,0-.54,1.37Z"/><path class="cls-4" d="M292.85,258.3a3.18,3.18,0,0,1,2.25.76,2.72,2.72,0,0,1,.83,2.09v4.23H294.7v-.95h-.06a2.46,2.46,0,0,1-2.13,1.17,2.75,2.75,0,0,1-1.89-.67,2.15,2.15,0,0,1-.77-1.68,2,2,0,0,1,.81-1.69,3.39,3.39,0,0,1,2.15-.63,3.83,3.83,0,0,1,1.89.42v-.3a1.5,1.5,0,0,0-.53-1.14,1.84,1.84,0,0,0-1.25-.46,2,2,0,0,0-1.71.9l-1.13-.71A3.17,3.17,0,0,1,292.85,258.3Zm-1.67,5a1,1,0,0,0,.43.84,1.61,1.61,0,0,0,1,.34,2,2,0,0,0,1.45-.61,1.86,1.86,0,0,0,.64-1.41A2.62,2.62,0,0,0,293,262a2.21,2.21,0,0,0-1.31.38A1.13,1.13,0,0,0,291.18,263.28Z"/><path class="cls-4" d="M298.67,255.36v10h-1.28v-10Z"/><path class="cls-4" d="M303.55,265.38v-10h3.62a2.93,2.93,0,0,1,2.05.78,2.5,2.5,0,0,1,.85,1.95,2.1,2.1,0,0,1-1.36,2.08v.06a2.4,2.4,0,0,1,1.23.87,2.33,2.33,0,0,1,.47,1.42,2.63,2.63,0,0,1-.9,2.05,3,3,0,0,1-2.14.81Zm1.28-8.79v3.07h2.34a1.56,1.56,0,0,0,1.15-.47,1.47,1.47,0,0,0,.46-1.07,1.52,1.52,0,0,0-.45-1.07,1.44,1.44,0,0,0-1.1-.46Zm0,4.27v3.29h2.59a1.66,1.66,0,0,0,1.67-1.65,1.57,1.57,0,0,0-.49-1.15,1.67,1.67,0,0,0-1.23-.49Z"/><path class="cls-4" d="M311.25,262a3.65,3.65,0,0,1,1-2.62,3.38,3.38,0,0,1,2.53-1,3.33,3.33,0,0,1,2.52,1,3.9,3.9,0,0,1,0,5.24,3.33,3.33,0,0,1-2.52,1,3.38,3.38,0,0,1-2.53-1A3.63,3.63,0,0,1,311.25,262Zm1.28,0a2.49,2.49,0,0,0,.65,1.79,2.19,2.19,0,0,0,3.19,0,2.81,2.81,0,0,0,0-3.57,2.17,2.17,0,0,0-3.19,0A2.5,2.5,0,0,0,312.53,262Z"/><path class="cls-4" d="M322.08,258.3a3.2,3.2,0,0,1,2.26.76,2.71,2.71,0,0,1,.82,2.09v4.23h-1.23v-.95h-.06a2.45,2.45,0,0,1-2.12,1.17,2.76,2.76,0,0,1-1.9-.67,2.14,2.14,0,0,1-.76-1.68,2,2,0,0,1,.8-1.69,3.39,3.39,0,0,1,2.15-.63,3.78,3.78,0,0,1,1.89.42v-.3a1.5,1.5,0,0,0-.53-1.14,1.84,1.84,0,0,0-1.25-.46,2,2,0,0,0-1.71.9l-1.13-.71A3.18,3.18,0,0,1,322.08,258.3Zm-1.66,5a1,1,0,0,0,.42.84,1.61,1.61,0,0,0,1,.34,2,2,0,0,0,1.45-.61,1.86,1.86,0,0,0,.64-1.41,2.62,2.62,0,0,0-1.68-.48,2.21,2.21,0,0,0-1.31.38A1.12,1.12,0,0,0,320.42,263.28Z"/><path class="cls-4" d="M327.91,265.38h-1.29v-6.86h1.23v1.12h.06a1.9,1.9,0,0,1,.8-.93,2.22,2.22,0,0,1,1.2-.38,2.45,2.45,0,0,1,.95.16l-.39,1.25a2,2,0,0,0-.76-.1,1.69,1.69,0,0,0-1.27.59,2,2,0,0,0-.53,1.37Z"/><path class="cls-4" d="M334.15,265.6a3,3,0,0,1-2.31-1.06,4,4,0,0,1,0-5.18,3,3,0,0,1,2.31-1.06,2.92,2.92,0,0,1,1.38.32,2.49,2.49,0,0,1,1,.85h.05l-.05-1v-3.16h1.29v10h-1.24v-.95h-.05a2.49,2.49,0,0,1-1,.85A2.92,2.92,0,0,1,334.15,265.6Zm.21-1.17a2,2,0,0,0,1.55-.69,2.52,2.52,0,0,0,.63-1.79,2.57,2.57,0,0,0-.63-1.78,2,2,0,0,0-1.55-.7,2,2,0,0,0-1.55.7,2.57,2.57,0,0,0-.63,1.78,2.53,2.53,0,0,0,.63,1.78A2,2,0,0,0,334.36,264.43Z"/><path class="cls-4" d="M253.22,282.18h-1.29v-10h1.29l3.48,6.1h.06l3.48-6.1h1.29v10h-1.29v-5.95l.06-1.68h-.06l-3.13,5.5h-.76l-3.13-5.5h-.06l.06,1.68Z"/><path class="cls-4" d="M266.4,282.41a3.3,3.3,0,0,1-2.49-1,3.67,3.67,0,0,1-1-2.62,3.76,3.76,0,0,1,.95-2.61,3.18,3.18,0,0,1,2.44-1,3.15,3.15,0,0,1,2.43,1,4,4,0,0,1,.9,2.77V279h-5.39a2.23,2.23,0,0,0,.67,1.62,2.17,2.17,0,0,0,3.47-.61l1.15.56a3.42,3.42,0,0,1-1.28,1.36A3.64,3.64,0,0,1,266.4,282.41Zm-2-4.48h3.93a1.74,1.74,0,0,0-.58-1.19,2.05,2.05,0,0,0-1.41-.47,1.86,1.86,0,0,0-1.25.45A2.13,2.13,0,0,0,264.35,277.93Z"/><path class="cls-4" d="M274,282.41a3.27,3.27,0,0,1-2.49-1,3.63,3.63,0,0,1-1-2.62,3.72,3.72,0,0,1,.95-2.61,3.43,3.43,0,0,1,4.86-.06,4,4,0,0,1,.91,2.77l0,.14h-5.39a2.23,2.23,0,0,0,.67,1.62A2.18,2.18,0,0,0,276,280l1.14.56a3.36,3.36,0,0,1-1.28,1.36A3.57,3.57,0,0,1,274,282.41Zm-2.06-4.48h3.93a1.7,1.7,0,0,0-.58-1.19,2,2,0,0,0-1.4-.47,1.87,1.87,0,0,0-1.26.45A2.13,2.13,0,0,0,271.92,277.93Z"/><path class="cls-4" d="M280.91,282.29a2,2,0,0,1-1.4-.51,2,2,0,0,1-.56-1.45V276.5h-1.21v-1.18H279v-2.1h1.29v2.1h1.68v1.18h-1.68v3.41a1.23,1.23,0,0,0,.26.93.85.85,0,0,0,.6.25,1,1,0,0,0,.3,0,1.31,1.31,0,0,0,.28-.09l.4,1.15A3.43,3.43,0,0,1,280.91,282.29Z"/><path class="cls-4" d="M284.88,273a.9.9,0,0,1-.26.64.91.91,0,1,1-1.29-1.29.93.93,0,0,1,1.29,0A.91.91,0,0,1,284.88,273Zm-.26,2.36v6.86h-1.29v-6.86Z"/><path class="cls-4" d="M286.3,275.32h1.23v.95h.05a2.4,2.4,0,0,1,.91-.84,2.62,2.62,0,0,1,1.27-.33,2.51,2.51,0,0,1,1.93.72,2.84,2.84,0,0,1,.68,2.05v4.31h-1.29V278a1.51,1.51,0,0,0-1.69-1.68,1.62,1.62,0,0,0-1.29.63,2.27,2.27,0,0,0-.52,1.49v3.79H286.3Z"/><path class="cls-4" d="M296.85,285.43a3.69,3.69,0,0,1-1.07-.15,3.35,3.35,0,0,1-.92-.41,3.08,3.08,0,0,1-.71-.63,2.91,2.91,0,0,1-.45-.81l1.22-.51a1.87,1.87,0,0,0,.73,1,2,2,0,0,0,1.2.36,2.13,2.13,0,0,0,1.64-.63,2.43,2.43,0,0,0,.59-1.73v-.66H299a2.56,2.56,0,0,1-1,.86,3,3,0,0,1-1.35.32,3,3,0,0,1-2.31-1.05,3.79,3.79,0,0,1-1-2.61,3.72,3.72,0,0,1,1-2.59,3.06,3.06,0,0,1,3.66-.75,2.56,2.56,0,0,1,1,.86h.06v-.95h1.23v6.57a3.49,3.49,0,0,1-.94,2.59A3.41,3.41,0,0,1,296.85,285.43Zm0-4.2a2,2,0,0,0,1.55-.69,2.52,2.52,0,0,0,.63-1.79,2.57,2.57,0,0,0-.63-1.78,2,2,0,0,0-1.55-.7,2,2,0,0,0-1.56.7,2.57,2.57,0,0,0-.63,1.78,2.53,2.53,0,0,0,.63,1.78A2,2,0,0,0,296.9,281.23Z"/><path class="cls-4" d="M532.63,265.39l-1,.66-.68-1a5.5,5.5,0,0,1-2.41.57,4.93,4.93,0,0,1-3.67-1.51,5.43,5.43,0,0,1,0-7.45,5.19,5.19,0,0,1,7.34,0,5.09,5.09,0,0,1,1.48,3.71,5.26,5.26,0,0,1-.46,2.2,5.12,5.12,0,0,1-1.29,1.77Zm-4.1-1a3.81,3.81,0,0,0,1.69-.39l-1.17-1.76,1-.69,1.17,1.75a3.88,3.88,0,0,0,1.14-2.91,3.94,3.94,0,0,0-1.1-2.87,3.62,3.62,0,0,0-2.73-1.13,3.68,3.68,0,0,0-2.75,1.13,4.32,4.32,0,0,0,0,5.74A3.68,3.68,0,0,0,528.53,264.37Z"/><path class="cls-4" d="M541,265.38h-1.23v-.95h-.06a2.3,2.3,0,0,1-.9.84,2.64,2.64,0,0,1-1.27.33,2.55,2.55,0,0,1-1.94-.72,2.88,2.88,0,0,1-.67-2.05v-4.31h1.28v4.23a1.52,1.52,0,0,0,1.7,1.68,1.64,1.64,0,0,0,1.29-.62,2.31,2.31,0,0,0,.51-1.5v-3.79H541Z"/><path class="cls-4" d="M545.1,258.3a3.2,3.2,0,0,1,2.26.76,2.71,2.71,0,0,1,.82,2.09v4.23H547v-.95h-.05a2.48,2.48,0,0,1-2.13,1.17,2.76,2.76,0,0,1-1.9-.67,2.14,2.14,0,0,1-.76-1.68,2,2,0,0,1,.8-1.69,3.41,3.41,0,0,1,2.15-.63,3.78,3.78,0,0,1,1.89.42v-.3a1.5,1.5,0,0,0-.53-1.14,1.84,1.84,0,0,0-1.25-.46,2,2,0,0,0-1.7.9l-1.14-.71A3.18,3.18,0,0,1,545.1,258.3Zm-1.66,5a1,1,0,0,0,.42.84,1.61,1.61,0,0,0,1,.34,2,2,0,0,0,1.45-.61,1.86,1.86,0,0,0,.64-1.41,2.62,2.62,0,0,0-1.68-.48,2.21,2.21,0,0,0-1.31.38A1.12,1.12,0,0,0,543.44,263.28Z"/><path class="cls-4" d="M549.64,258.52h1.23v1.12h.06a2.3,2.3,0,0,1,2.36-1.31l.27,0v1.35l-.57-.06a2.1,2.1,0,0,0-1.48.55,1.86,1.86,0,0,0-.58,1.41v3.78h-1.29Zm8,7a1.94,1.94,0,0,1-1.4-.52,1.86,1.86,0,0,1-.56-1.44V259.7h-1.21v-1.18h1.21v-2.1H557v2.1h1.68v1.18H557v3.41a1.23,1.23,0,0,0,.27.93.85.85,0,0,0,.6.25,1,1,0,0,0,.3,0,1.31,1.31,0,0,0,.28-.09l.4,1.15A3.47,3.47,0,0,1,557.68,265.49Z"/><path class="cls-4" d="M562.93,265.6a3.3,3.3,0,0,1-2.5-1,3.67,3.67,0,0,1-1-2.62,3.72,3.72,0,0,1,1-2.61,3.11,3.11,0,0,1,2.43-1,3.15,3.15,0,0,1,2.43,1,4,4,0,0,1,.9,2.77v.14h-5.39a2.23,2.23,0,0,0,.67,1.62,2.17,2.17,0,0,0,3.47-.61l1.15.56a3.42,3.42,0,0,1-1.28,1.36A3.59,3.59,0,0,1,562.93,265.6Zm-2.06-4.47h3.93a1.72,1.72,0,0,0-.58-1.19,2.05,2.05,0,0,0-1.41-.47,1.86,1.86,0,0,0-1.25.45A2.13,2.13,0,0,0,560.87,261.13Z"/><path class="cls-4" d="M568.64,265.38h-1.29v-6.86h1.23v1.12h.06a1.9,1.9,0,0,1,.8-.93,2.22,2.22,0,0,1,1.2-.38,2.45,2.45,0,0,1,1,.16l-.39,1.25a2,2,0,0,0-.76-.1,1.67,1.67,0,0,0-1.26.59,2,2,0,0,0-.54,1.37Z"/><path class="cls-4" d="M573.79,255.36v10H572.5v-10Z"/><path class="cls-4" d="M581.49,258.52l-4.3,9.89h-1.33l1.6-3.46-2.83-6.43H576l2,4.93h0l2-4.93Z"/><path class="cls-4" d="M525.15,282.18h-1.29v-10h3.42a3.1,3.1,0,0,1,2.22.86,2.87,2.87,0,0,1,.24,4,3,3,0,0,1-1.72,1l0,0,2.81,4.08v.05h-1.53l-2.7-4.06h-1.43Zm0-8.79v3.53h2.08a1.89,1.89,0,0,0,1.33-.51,1.76,1.76,0,0,0-1.25-3Z"/><path class="cls-4" d="M534.67,282.41a3.27,3.27,0,0,1-2.49-1,3.67,3.67,0,0,1-1-2.62,3.76,3.76,0,0,1,.95-2.61,3.18,3.18,0,0,1,2.44-1,3.15,3.15,0,0,1,2.43,1,4,4,0,0,1,.9,2.77V279h-5.39a2.23,2.23,0,0,0,.67,1.62,2.17,2.17,0,0,0,3.47-.61l1.15.56a3.49,3.49,0,0,1-1.28,1.36A3.64,3.64,0,0,1,534.67,282.41Zm-2.06-4.48h3.94a1.74,1.74,0,0,0-.58-1.19,2.05,2.05,0,0,0-1.41-.47,1.86,1.86,0,0,0-1.25.45A2.2,2.2,0,0,0,532.61,277.93Z"/><path class="cls-4" d="M544.42,280.28a1.84,1.84,0,0,1-.79,1.51,3.09,3.09,0,0,1-2,.62,3.13,3.13,0,0,1-1.82-.54,3,3,0,0,1-1.12-1.42l1.15-.49a2.09,2.09,0,0,0,.73,1,1.95,1.95,0,0,0,2.09.07.77.77,0,0,0,.41-.63c0-.44-.34-.76-1-1l-1.17-.3c-1.34-.33-2-1-2-1.93a1.75,1.75,0,0,1,.76-1.5,3.51,3.51,0,0,1,3.6-.14,2.33,2.33,0,0,1,1,1.16l-1.14.48a1.45,1.45,0,0,0-.64-.68,2,2,0,0,0-1-.24,1.65,1.65,0,0,0-.9.25.72.72,0,0,0-.4.61q0,.6,1.11.84l1,.27C543.74,278.56,544.42,279.24,544.42,280.28Z"/><path class="cls-4" d="M551.56,282.18h-1.24v-.95h-.05a2.26,2.26,0,0,1-.91.84,2.59,2.59,0,0,1-1.26.34,2.5,2.5,0,0,1-1.94-.73,2.88,2.88,0,0,1-.68-2.05v-4.31h1.29v4.23a1.51,1.51,0,0,0,1.69,1.68,1.61,1.61,0,0,0,1.29-.62,2.26,2.26,0,0,0,.52-1.49v-3.8h1.29Z"/><path class="cls-4" d="M554.41,272.16v10h-1.29v-10Z"/><path class="cls-4" d="M558.77,282.29a2,2,0,0,1-1.4-.51,1.93,1.93,0,0,1-.56-1.45V276.5H555.6v-1.18h1.21v-2.1h1.28v2.1h1.68v1.18h-1.68v3.41a1.23,1.23,0,0,0,.27.93.85.85,0,0,0,.6.25,1,1,0,0,0,.3,0,1.31,1.31,0,0,0,.28-.09l.4,1.15A3.47,3.47,0,0,1,558.77,282.29Z"/><path class="cls-4" d="M566.4,280.28a1.87,1.87,0,0,1-.79,1.51,3.09,3.09,0,0,1-2,.62,3.13,3.13,0,0,1-1.82-.54,3,3,0,0,1-1.12-1.42l1.15-.49a2.09,2.09,0,0,0,.73,1,1.95,1.95,0,0,0,2.09.07.77.77,0,0,0,.41-.63c0-.44-.34-.76-1-1l-1.17-.3c-1.34-.33-2-1-2-1.93a1.76,1.76,0,0,1,.77-1.5,3.51,3.51,0,0,1,3.6-.14,2.38,2.38,0,0,1,1,1.16l-1.14.48a1.45,1.45,0,0,0-.64-.68,2,2,0,0,0-1-.24,1.65,1.65,0,0,0-.9.25.72.72,0,0,0-.4.61q0,.6,1.11.84l1,.27C565.71,278.56,566.4,279.24,566.4,280.28Z"/><path class="cls-4" d="M527.35,299.21a3.51,3.51,0,0,1-2.69-1.1,4,4,0,0,1-1-2.85V289h1.29v6.35a2.81,2.81,0,0,0,.64,1.95,2.59,2.59,0,0,0,3.56,0,2.81,2.81,0,0,0,.64-1.95V289h1.29v6.3a4,4,0,0,1-1,2.88A3.54,3.54,0,0,1,527.35,299.21Z"/><path class="cls-4" d="M536.2,299.21a2.93,2.93,0,0,1-1.38-.33,2.42,2.42,0,0,1-1-.85h-.06l.06,1v3h-1.29v-9.89h1.23v.95h.06a2.42,2.42,0,0,1,1-.85,3,3,0,0,1,3.67.74,3.94,3.94,0,0,1,0,5.18A2.94,2.94,0,0,1,536.2,299.21ZM536,298a2,2,0,0,0,1.55-.7,2.53,2.53,0,0,0,.63-1.78,2.57,2.57,0,0,0-.63-1.78,2.09,2.09,0,0,0-3.12,0,2.88,2.88,0,0,0,0,3.57A2,2,0,0,0,536,298Z"/><path class="cls-4" d="M543.51,299.21a3,3,0,0,1-2.31-1.07,4,4,0,0,1,0-5.18,3,3,0,0,1,2.31-1.06,2.92,2.92,0,0,1,1.38.32,2.39,2.39,0,0,1,1,.85h.06l-.06-.95V289h1.29v10H545.9v-1h-.06a2.39,2.39,0,0,1-1,.85A2.93,2.93,0,0,1,543.51,299.21Zm.21-1.18a2,2,0,0,0,1.55-.69,2.52,2.52,0,0,0,.63-1.79,2.57,2.57,0,0,0-.63-1.78,2,2,0,0,0-1.55-.7,2,2,0,0,0-1.56.7,2.57,2.57,0,0,0-.63,1.78,2.53,2.53,0,0,0,.63,1.78A2,2,0,0,0,543.72,298Z"/><path class="cls-4" d="M551.24,291.9a3.18,3.18,0,0,1,2.25.76,2.71,2.71,0,0,1,.82,2.09V299h-1.23v-1H553a2.48,2.48,0,0,1-2.13,1.18,2.77,2.77,0,0,1-1.9-.68,2.13,2.13,0,0,1-.76-1.68,2,2,0,0,1,.8-1.69,3.41,3.41,0,0,1,2.15-.63,3.78,3.78,0,0,1,1.89.42v-.29a1.47,1.47,0,0,0-.53-1.15,1.82,1.82,0,0,0-1.25-.46,2,2,0,0,0-1.7.91l-1.14-.72A3.18,3.18,0,0,1,551.24,291.9Zm-1.67,5a1,1,0,0,0,.43.84,1.52,1.52,0,0,0,1,.34,2.07,2.07,0,0,0,1.45-.6,1.92,1.92,0,0,0,.63-1.42,2.62,2.62,0,0,0-1.68-.47,2.2,2.2,0,0,0-1.31.37A1.13,1.13,0,0,0,549.57,296.88Z"/><path class="cls-4" d="M558.35,299.09a2,2,0,0,1-1.4-.51,2,2,0,0,1-.56-1.45V293.3h-1.21v-1.18h1.21V290h1.29v2.1h1.67v1.18h-1.67v3.41a1.23,1.23,0,0,0,.26.93.85.85,0,0,0,.6.25,1,1,0,0,0,.3,0,1.31,1.31,0,0,0,.28-.09l.4,1.15A3.43,3.43,0,0,1,558.35,299.09Z"/><path class="cls-4" d="M563.6,299.21a3.27,3.27,0,0,1-2.49-1,3.63,3.63,0,0,1-1-2.62,3.72,3.72,0,0,1,1-2.61,3.43,3.43,0,0,1,4.86-.06,4,4,0,0,1,.9,2.77v.14h-5.39a2.23,2.23,0,0,0,.67,1.62,2.18,2.18,0,0,0,3.48-.61l1.14.56a3.36,3.36,0,0,1-1.28,1.36A3.57,3.57,0,0,1,563.6,299.21Zm-2.06-4.48h3.93a1.7,1.7,0,0,0-.58-1.19,2,2,0,0,0-1.4-.47,1.87,1.87,0,0,0-1.26.45A2.13,2.13,0,0,0,561.54,294.73Z"/><path class="cls-4" d="M532.63,130.35l-1,.65-.68-1a5.51,5.51,0,0,1-2.41.58,4.93,4.93,0,0,1-3.67-1.52,5.42,5.42,0,0,1,0-7.44,5.18,5.18,0,0,1,7.34,0,5.11,5.11,0,0,1,1.48,3.71,5.32,5.32,0,0,1-1.75,4Zm-4.1-1a3.81,3.81,0,0,0,1.69-.39l-1.17-1.76,1-.69,1.17,1.75a3.86,3.86,0,0,0,1.14-2.91,3.94,3.94,0,0,0-1.1-2.87,3.62,3.62,0,0,0-2.73-1.13,3.68,3.68,0,0,0-2.75,1.13,4.32,4.32,0,0,0,0,5.74A3.68,3.68,0,0,0,528.53,129.32Z"/><path class="cls-4" d="M541,130.33h-1.23v-1h-.06a2.16,2.16,0,0,1-.9.84,2.66,2.66,0,0,1-1.27.34,2.52,2.52,0,0,1-1.94-.73,2.88,2.88,0,0,1-.67-2.05v-4.31h1.28v4.23a1.52,1.52,0,0,0,1.7,1.68,1.64,1.64,0,0,0,1.29-.62,2.3,2.3,0,0,0,.51-1.49v-3.8H541Z"/><path class="cls-4" d="M545.1,123.25a3.2,3.2,0,0,1,2.26.76,2.71,2.71,0,0,1,.82,2.09v4.23H547v-1h-.05a2.49,2.49,0,0,1-2.13,1.18,2.77,2.77,0,0,1-1.9-.68,2.12,2.12,0,0,1-.76-1.68,2.06,2.06,0,0,1,.8-1.69,3.41,3.41,0,0,1,2.15-.63,3.78,3.78,0,0,1,1.89.42V126a1.47,1.47,0,0,0-.53-1.14,1.8,1.8,0,0,0-1.25-.47,2,2,0,0,0-1.7.91l-1.14-.72A3.18,3.18,0,0,1,545.1,123.25Zm-1.66,5a1,1,0,0,0,.42.84,1.55,1.55,0,0,0,1,.34,2,2,0,0,0,1.45-.6,1.88,1.88,0,0,0,.64-1.42,2.69,2.69,0,0,0-1.68-.47,2.2,2.2,0,0,0-1.31.37A1.13,1.13,0,0,0,543.44,128.23Z"/><path class="cls-4" d="M549.64,123.47h1.23v1.12h.06a2.3,2.3,0,0,1,2.36-1.31l.27,0v1.35l-.57-.06a2.06,2.06,0,0,0-1.48.56,1.82,1.82,0,0,0-.58,1.4v3.78h-1.29Zm8,7a2,2,0,0,1-1.4-.51,1.9,1.9,0,0,1-.56-1.45v-3.83h-1.21v-1.18h1.21v-2.1H557v2.1h1.68v1.18H557v3.41a1.27,1.27,0,0,0,.27.94.88.88,0,0,0,.6.24l.3,0,.28-.1.4,1.15A3.47,3.47,0,0,1,557.68,130.44Z"/><path class="cls-4" d="M562.93,130.56a3.31,3.31,0,0,1-2.5-1,3.67,3.67,0,0,1-1-2.62,3.72,3.72,0,0,1,1-2.61,3.42,3.42,0,0,1,4.86-.05,3.92,3.92,0,0,1,.9,2.76v.14h-5.39a2.23,2.23,0,0,0,.67,1.62,2.17,2.17,0,0,0,3.47-.61l1.15.56a3.42,3.42,0,0,1-1.28,1.36A3.6,3.6,0,0,1,562.93,130.56Zm-2.06-4.48h3.93a1.74,1.74,0,0,0-.58-1.19,2.05,2.05,0,0,0-1.41-.47,1.86,1.86,0,0,0-1.25.45A2.13,2.13,0,0,0,560.87,126.08Z"/><path class="cls-4" d="M568.64,130.33h-1.29v-6.86h1.23v1.12h.06a1.9,1.9,0,0,1,.8-.93,2.22,2.22,0,0,1,1.2-.38,2.45,2.45,0,0,1,1,.16l-.39,1.25a2.27,2.27,0,0,0-.76-.1,1.67,1.67,0,0,0-1.26.59,2,2,0,0,0-.54,1.37Z"/><path class="cls-4" d="M573.79,120.31v10H572.5v-10Z"/><path class="cls-4" d="M581.49,123.47l-4.3,9.89h-1.33l1.6-3.46-2.83-6.43H576l2,4.93h0l2-4.93Z"/><path class="cls-4" d="M525.15,147.13h-1.29v-10h3.42a3.14,3.14,0,0,1,2.22.86,2.87,2.87,0,0,1,.24,4,3,3,0,0,1-1.72,1l0,0,2.81,4.08v0h-1.53l-2.7-4.06h-1.43Zm0-8.79v3.53h2.08a1.89,1.89,0,0,0,1.33-.51,1.74,1.74,0,0,0,0-2.49,1.72,1.72,0,0,0-1.28-.53Z"/><path class="cls-4" d="M534.67,147.36a3.27,3.27,0,0,1-2.49-1,3.67,3.67,0,0,1-1-2.62,3.76,3.76,0,0,1,.95-2.61,3.18,3.18,0,0,1,2.44-1,3.12,3.12,0,0,1,2.43,1,3.94,3.94,0,0,1,.9,2.76v.14h-5.39a2.23,2.23,0,0,0,.67,1.62,2.11,2.11,0,0,0,1.54.62,2.15,2.15,0,0,0,1.93-1.23l1.15.56a3.49,3.49,0,0,1-1.28,1.36A3.64,3.64,0,0,1,534.67,147.36Zm-2.06-4.48h3.94a1.74,1.74,0,0,0-.58-1.19,2.05,2.05,0,0,0-1.41-.47,1.86,1.86,0,0,0-1.25.45A2.2,2.2,0,0,0,532.61,142.88Z"/><path class="cls-4" d="M544.42,145.23a1.84,1.84,0,0,1-.79,1.51,3.09,3.09,0,0,1-2,.62,3.13,3.13,0,0,1-1.82-.54,3,3,0,0,1-1.12-1.42l1.15-.49a2.09,2.09,0,0,0,.73,1,1.95,1.95,0,0,0,2.09.07.74.74,0,0,0,.41-.63c0-.44-.34-.76-1-1l-1.17-.3c-1.34-.33-2-1-2-1.93a1.77,1.77,0,0,1,.76-1.5,3.51,3.51,0,0,1,3.6-.14,2.33,2.33,0,0,1,1,1.16l-1.14.48a1.5,1.5,0,0,0-.64-.68,2,2,0,0,0-1-.24,1.65,1.65,0,0,0-.9.25.72.72,0,0,0-.4.61c0,.4.37.68,1.11.85l1,.26C543.74,143.51,544.42,144.19,544.42,145.23Z"/><path class="cls-4" d="M551.56,147.13h-1.24v-.95h-.05a2.26,2.26,0,0,1-.91.84,2.49,2.49,0,0,1-1.26.34,2.54,2.54,0,0,1-1.94-.72,2.91,2.91,0,0,1-.68-2.06v-4.31h1.29v4.23a1.51,1.51,0,0,0,1.69,1.68,1.61,1.61,0,0,0,1.29-.62,2.24,2.24,0,0,0,.52-1.49v-3.8h1.29Z"/><path class="cls-4" d="M554.41,137.11v10h-1.29v-10Z"/><path class="cls-4" d="M558.77,147.25a2,2,0,0,1-1.4-.52,1.93,1.93,0,0,1-.56-1.44v-3.84H555.6v-1.18h1.21v-2.1h1.28v2.1h1.68v1.18h-1.68v3.42a1.26,1.26,0,0,0,.27.93.88.88,0,0,0,.6.24,1.39,1.39,0,0,0,.3,0l.28-.09.4,1.14A3.46,3.46,0,0,1,558.77,147.25Z"/><path class="cls-4" d="M566.4,145.23a1.87,1.87,0,0,1-.79,1.51,3.09,3.09,0,0,1-2,.62,3.13,3.13,0,0,1-1.82-.54,3,3,0,0,1-1.12-1.42l1.15-.49a2.09,2.09,0,0,0,.73,1,1.95,1.95,0,0,0,2.09.07.74.74,0,0,0,.41-.63c0-.44-.34-.76-1-1l-1.17-.3c-1.34-.33-2-1-2-1.93a1.78,1.78,0,0,1,.77-1.5,3.51,3.51,0,0,1,3.6-.14,2.38,2.38,0,0,1,1,1.16l-1.14.48a1.5,1.5,0,0,0-.64-.68,2,2,0,0,0-1-.24,1.65,1.65,0,0,0-.9.25.72.72,0,0,0-.4.61c0,.4.37.68,1.11.85l1,.26C565.71,143.51,566.4,144.19,566.4,145.23Z"/><path class="cls-4" d="M527.35,164.16a3.51,3.51,0,0,1-2.69-1.1,4,4,0,0,1-1-2.85v-6.3h1.29v6.35a2.8,2.8,0,0,0,.64,2,2.59,2.59,0,0,0,3.56,0,2.8,2.8,0,0,0,.64-2v-6.35h1.29v6.3a4,4,0,0,1-1,2.88A3.54,3.54,0,0,1,527.35,164.16Z"/><path class="cls-4" d="M536.2,164.16a2.93,2.93,0,0,1-1.38-.33,2.42,2.42,0,0,1-1-.85h-.06l.06,1v3h-1.29v-9.89h1.23v1h.06a2.49,2.49,0,0,1,1-.85,3,3,0,0,1,1.38-.32,2.93,2.93,0,0,1,2.29,1.06,3.94,3.94,0,0,1,0,5.18A2.94,2.94,0,0,1,536.2,164.16ZM536,163a2,2,0,0,0,1.55-.7,2.53,2.53,0,0,0,.63-1.78,2.57,2.57,0,0,0-.63-1.78,2.09,2.09,0,0,0-3.12,0,2.88,2.88,0,0,0,0,3.57A2,2,0,0,0,536,163Z"/><path class="cls-4" d="M543.51,164.16a3,3,0,0,1-2.31-1.07,4,4,0,0,1,0-5.18,3,3,0,0,1,2.31-1.06,3,3,0,0,1,1.38.32,2.46,2.46,0,0,1,1,.85h.06l-.06-1v-3.16h1.29v10H545.9v-1h-.06a2.39,2.39,0,0,1-1,.85A2.93,2.93,0,0,1,543.51,164.16Zm.21-1.18a2,2,0,0,0,1.55-.69,2.52,2.52,0,0,0,.63-1.79,2.57,2.57,0,0,0-.63-1.78,2,2,0,0,0-1.55-.7,2,2,0,0,0-1.56.7,2.57,2.57,0,0,0-.63,1.78,2.53,2.53,0,0,0,.63,1.78A2,2,0,0,0,543.72,163Z"/><path class="cls-4" d="M551.24,156.85a3.18,3.18,0,0,1,2.25.76,2.72,2.72,0,0,1,.82,2.1v4.22h-1.23v-1H553a2.48,2.48,0,0,1-2.13,1.18,2.77,2.77,0,0,1-1.9-.68,2.12,2.12,0,0,1-.76-1.68,2.06,2.06,0,0,1,.8-1.69,3.41,3.41,0,0,1,2.15-.63,3.78,3.78,0,0,1,1.89.42v-.29a1.44,1.44,0,0,0-.53-1.14,1.79,1.79,0,0,0-1.25-.47,2,2,0,0,0-1.7.91l-1.14-.72A3.18,3.18,0,0,1,551.24,156.85Zm-1.67,5a1,1,0,0,0,.43.84,1.52,1.52,0,0,0,1,.34,2.07,2.07,0,0,0,1.45-.6,1.91,1.91,0,0,0,.63-1.42,2.69,2.69,0,0,0-1.68-.47,2.2,2.2,0,0,0-1.31.37A1.13,1.13,0,0,0,549.57,161.83Z"/><path class="cls-4" d="M558.35,164a2,2,0,0,1-1.4-.51,2,2,0,0,1-.56-1.45v-3.83h-1.21v-1.18h1.21V155h1.29v2.1h1.67v1.18h-1.67v3.42a1.26,1.26,0,0,0,.26.93.88.88,0,0,0,.6.24,1.39,1.39,0,0,0,.3,0l.28-.1.4,1.15A3.43,3.43,0,0,1,558.35,164Z"/><path class="cls-4" d="M563.6,164.16a3.27,3.27,0,0,1-2.49-1,3.63,3.63,0,0,1-1-2.62,3.72,3.72,0,0,1,1-2.61,3.42,3.42,0,0,1,4.86,0,3.94,3.94,0,0,1,.9,2.76v.14h-5.39a2.23,2.23,0,0,0,.67,1.62,2.13,2.13,0,0,0,1.54.62,2.16,2.16,0,0,0,1.94-1.23l1.14.56a3.36,3.36,0,0,1-1.28,1.36A3.57,3.57,0,0,1,563.6,164.16Zm-2.06-4.48h3.93a1.7,1.7,0,0,0-.58-1.19,2,2,0,0,0-1.4-.47,1.87,1.87,0,0,0-1.26.45A2.13,2.13,0,0,0,561.54,159.68Z"/><path class="cls-4" d="M669.48,125.73a4.51,4.51,0,0,1-1.25,3.34,4.82,4.82,0,0,1-3.68,1.49,5.24,5.24,0,0,1,0-10.48,5.44,5.44,0,0,1,2.09.4,4.23,4.23,0,0,1,1.61,1.1l-.93.93a3,3,0,0,0-1.19-.88,4,4,0,0,0-1.58-.31,3.76,3.76,0,0,0-2.77,1.13,4.24,4.24,0,0,0,0,5.74,3.76,3.76,0,0,0,2.77,1.13,3.71,3.71,0,0,0,2.49-.84,3.31,3.31,0,0,0,1.15-2.31h-3.64V125h4.86A4,4,0,0,1,669.48,125.73Z"/><path class="cls-4" d="M673.83,130.56a3.3,3.3,0,0,1-2.49-1,3.67,3.67,0,0,1-1-2.62,3.76,3.76,0,0,1,.95-2.61,3.18,3.18,0,0,1,2.44-1,3.12,3.12,0,0,1,2.43,1,3.92,3.92,0,0,1,.9,2.76v.14h-5.39a2.23,2.23,0,0,0,.67,1.62,2.17,2.17,0,0,0,3.47-.61l1.15.56a3.49,3.49,0,0,1-1.28,1.36A3.64,3.64,0,0,1,673.83,130.56Zm-2.05-4.48h3.93a1.74,1.74,0,0,0-.58-1.19,2.05,2.05,0,0,0-1.41-.47,1.86,1.86,0,0,0-1.25.45A2.13,2.13,0,0,0,671.78,126.08Z"/><path class="cls-4" d="M678.26,123.47h1.23v1h.06a2.3,2.3,0,0,1,.9-.84,2.62,2.62,0,0,1,1.27-.33,2.51,2.51,0,0,1,1.93.72,2.84,2.84,0,0,1,.68,2v4.31h-1.28V126.1a1.52,1.52,0,0,0-1.7-1.68,1.62,1.62,0,0,0-1.29.63,2.26,2.26,0,0,0-.51,1.49v3.79h-1.29Z"/><path class="cls-4" d="M688.93,130.56a3.31,3.31,0,0,1-2.5-1,3.67,3.67,0,0,1-1-2.62,3.72,3.72,0,0,1,1-2.61,3.42,3.42,0,0,1,4.86-.05,3.92,3.92,0,0,1,.9,2.76v.14h-5.39a2.23,2.23,0,0,0,.67,1.62,2.17,2.17,0,0,0,3.47-.61l1.15.56a3.42,3.42,0,0,1-1.28,1.36A3.6,3.6,0,0,1,688.93,130.56Zm-2.06-4.48h3.93a1.74,1.74,0,0,0-.58-1.19,2.05,2.05,0,0,0-1.41-.47,1.86,1.86,0,0,0-1.25.45A2.13,2.13,0,0,0,686.87,126.08Z"/><path class="cls-4" d="M694.64,130.33h-1.29v-6.86h1.23v1.12h.06a1.9,1.9,0,0,1,.8-.93,2.22,2.22,0,0,1,1.2-.38,2.45,2.45,0,0,1,1,.16l-.39,1.25a2.27,2.27,0,0,0-.76-.1,1.67,1.67,0,0,0-1.26.59,2,2,0,0,0-.54,1.37Z"/><path class="cls-4" d="M700.76,123.25A3.18,3.18,0,0,1,703,124a2.72,2.72,0,0,1,.83,2.09v4.23H702.6v-1h-.05a2.47,2.47,0,0,1-2.13,1.18,2.77,2.77,0,0,1-1.9-.68,2.12,2.12,0,0,1-.76-1.68,2.06,2.06,0,0,1,.8-1.69,3.41,3.41,0,0,1,2.15-.63,3.78,3.78,0,0,1,1.89.42V126a1.44,1.44,0,0,0-.53-1.14,1.78,1.78,0,0,0-1.24-.47,2,2,0,0,0-1.71.91l-1.14-.72A3.18,3.18,0,0,1,700.76,123.25Zm-1.67,5a1,1,0,0,0,.43.84,1.52,1.52,0,0,0,1,.34,2.07,2.07,0,0,0,1.45-.6,1.91,1.91,0,0,0,.63-1.42,2.69,2.69,0,0,0-1.68-.47,2.2,2.2,0,0,0-1.31.37A1.13,1.13,0,0,0,699.09,128.23Z"/><path class="cls-4" d="M706.58,120.31v10h-1.29v-10Z"/><path class="cls-4" d="M711.45,130.33v-10h3.63a2.92,2.92,0,0,1,2,.78,2.52,2.52,0,0,1,.86,2,2.11,2.11,0,0,1-1.36,2.08v.06a2.49,2.49,0,0,1,1.23.87,2.33,2.33,0,0,1,.46,1.43,2.65,2.65,0,0,1-.89,2,3,3,0,0,1-2.15.81Zm1.29-8.79v3.07h2.34a1.58,1.58,0,0,0,1.15-.47,1.49,1.49,0,0,0,0-2.14,1.48,1.48,0,0,0-1.11-.46Zm0,4.27v3.29h2.59a1.63,1.63,0,0,0,1.18-2.8,1.67,1.67,0,0,0-1.24-.49Z"/><path class="cls-4" d="M719.15,126.9a3.61,3.61,0,0,1,1-2.62,3.37,3.37,0,0,1,2.53-1,3.33,3.33,0,0,1,2.52,1,3.62,3.62,0,0,1,1,2.62,3.57,3.57,0,0,1-1,2.62,3.34,3.34,0,0,1-2.52,1,3.38,3.38,0,0,1-2.53-1A3.6,3.6,0,0,1,719.15,126.9Zm1.29,0a2.49,2.49,0,0,0,.64,1.79,2.2,2.2,0,0,0,3.2,0,2.81,2.81,0,0,0,0-3.57,2.18,2.18,0,0,0-3.2,0A2.49,2.49,0,0,0,720.44,126.9Z"/><path class="cls-4" d="M730,123.25a3.18,3.18,0,0,1,2.25.76,2.72,2.72,0,0,1,.83,2.09v4.23h-1.24v-1h-.05a2.47,2.47,0,0,1-2.13,1.18,2.78,2.78,0,0,1-1.9-.68,2.15,2.15,0,0,1-.76-1.68,2,2,0,0,1,.81-1.69,3.37,3.37,0,0,1,2.15-.63,3.76,3.76,0,0,1,1.88.42V126a1.44,1.44,0,0,0-.53-1.14,1.78,1.78,0,0,0-1.24-.47,2,2,0,0,0-1.71.91l-1.13-.72A3.15,3.15,0,0,1,730,123.25Zm-1.67,5a1,1,0,0,0,.43.84,1.53,1.53,0,0,0,1,.34,2.07,2.07,0,0,0,1.45-.6,1.91,1.91,0,0,0,.63-1.42,2.67,2.67,0,0,0-1.67-.47,2.18,2.18,0,0,0-1.31.37A1.15,1.15,0,0,0,728.32,128.23Z"/><path class="cls-4" d="M735.81,130.33h-1.29v-6.86h1.24v1.12h0a1.88,1.88,0,0,1,.81-.93,2.17,2.17,0,0,1,1.19-.38,2.51,2.51,0,0,1,1,.16l-.4,1.25a2.24,2.24,0,0,0-.75-.1,1.68,1.68,0,0,0-1.27.59,2,2,0,0,0-.54,1.37Z"/><path class="cls-4" d="M742.06,130.56a3,3,0,0,1-2.31-1.07,4,4,0,0,1,0-5.18,3.06,3.06,0,0,1,3.68-.74,2.42,2.42,0,0,1,1,.85h.06l-.06-1v-3.16h1.29v10h-1.23v-1h-.06a2.35,2.35,0,0,1-1,.85A2.86,2.86,0,0,1,742.06,130.56Zm.21-1.18a2,2,0,0,0,1.55-.69,2.52,2.52,0,0,0,.63-1.79,2.57,2.57,0,0,0-.63-1.78,2,2,0,0,0-1.55-.7,2,2,0,0,0-1.56.7,2.57,2.57,0,0,0-.63,1.78,2.53,2.53,0,0,0,.63,1.78A2,2,0,0,0,742.27,129.38Z"/><path class="cls-4" d="M661.12,147.13h-1.29v-10h1.29l3.49,6.1h0l3.49-6.1h1.29v10h-1.29v-5.95l.06-1.68h-.06L665,145h-.75l-3.14-5.5h0l0,1.68Z"/><path class="cls-4" d="M674.31,147.36a3.27,3.27,0,0,1-2.49-1,3.63,3.63,0,0,1-1-2.62,3.72,3.72,0,0,1,.95-2.61,3.17,3.17,0,0,1,2.44-1,3.11,3.11,0,0,1,2.42,1,3.89,3.89,0,0,1,.91,2.76l0,.14h-5.39a2.24,2.24,0,0,0,.68,1.62,2.1,2.1,0,0,0,1.54.62A2.15,2.15,0,0,0,676.3,145l1.15.56a3.45,3.45,0,0,1-1.29,1.36A3.57,3.57,0,0,1,674.31,147.36Zm-2.06-4.48h3.94a1.75,1.75,0,0,0-.59-1.19,2,2,0,0,0-1.4-.47,1.87,1.87,0,0,0-1.26.45A2.13,2.13,0,0,0,672.25,142.88Z"/><path class="cls-4" d="M681.88,147.36a3.27,3.27,0,0,1-2.49-1,3.67,3.67,0,0,1-1-2.62,3.76,3.76,0,0,1,1-2.61,3.18,3.18,0,0,1,2.44-1,3.12,3.12,0,0,1,2.43,1,3.94,3.94,0,0,1,.9,2.76v.14h-5.39a2.23,2.23,0,0,0,.67,1.62,2.11,2.11,0,0,0,1.54.62,2.15,2.15,0,0,0,1.93-1.23l1.15.56a3.49,3.49,0,0,1-1.28,1.36A3.64,3.64,0,0,1,681.88,147.36Zm-2-4.48h3.93a1.74,1.74,0,0,0-.58-1.19,2.05,2.05,0,0,0-1.41-.47,1.86,1.86,0,0,0-1.25.45A2.13,2.13,0,0,0,679.83,142.88Z"/><path class="cls-4" d="M688.81,147.25a2,2,0,0,1-1.39-.52,1.93,1.93,0,0,1-.57-1.44v-3.84h-1.2v-1.18h1.2v-2.1h1.29v2.1h1.68v1.18h-1.68v3.42a1.26,1.26,0,0,0,.27.93.86.86,0,0,0,.6.24,1.53,1.53,0,0,0,.3,0l.27-.09.41,1.14A3.52,3.52,0,0,1,688.81,147.25Z"/><path class="cls-4" d="M692.79,137.91a.87.87,0,0,1-.27.64.85.85,0,0,1-.64.27.9.9,0,0,1-.91-.91.89.89,0,0,1,.91-.91.9.9,0,0,1,.91.91Zm-.27,2.36v6.86h-1.29v-6.86Z"/><path class="cls-4" d="M694.2,140.27h1.23v.95h.06a2.44,2.44,0,0,1,.9-.84,2.64,2.64,0,0,1,1.27-.33,2.54,2.54,0,0,1,1.94.72,2.88,2.88,0,0,1,.68,2v4.31H699v-4.22a1.52,1.52,0,0,0-1.69-1.69,1.59,1.59,0,0,0-1.29.63,2.22,2.22,0,0,0-.52,1.49v3.79H694.2Z"/><path class="cls-4" d="M704.76,150.38a3.81,3.81,0,0,1-1.08-.15,3.19,3.19,0,0,1-.92-.41,3,3,0,0,1-.7-.63,2.48,2.48,0,0,1-.45-.81l1.22-.5a1.92,1.92,0,0,0,.72,1,2.09,2.09,0,0,0,1.21.37,2.15,2.15,0,0,0,1.64-.63,2.46,2.46,0,0,0,.58-1.74v-.66h-.05a2.52,2.52,0,0,1-1,.86,2.92,2.92,0,0,1-1.35.32,3,3,0,0,1-2.31-1.05,3.83,3.83,0,0,1-.95-2.61,3.78,3.78,0,0,1,.95-2.59,3,3,0,0,1,2.31-1.06,2.91,2.91,0,0,1,1.35.31,2.52,2.52,0,0,1,1,.86H707v-.95h1.24v6.57a3.53,3.53,0,0,1-.94,2.59A3.44,3.44,0,0,1,704.76,150.38Zm0-4.2a2,2,0,0,0,1.55-.68,2.86,2.86,0,0,0,0-3.58,2,2,0,0,0-1.55-.7,2,2,0,0,0-1.55.7,2.57,2.57,0,0,0-.63,1.78,2.53,2.53,0,0,0,.63,1.78A2,2,0,0,0,704.8,146.18Z"/><path class="cls-4" d="M532.63,400.74l-1,.66-.68-1a5.5,5.5,0,0,1-2.41.57,4.93,4.93,0,0,1-3.67-1.51,5.43,5.43,0,0,1,0-7.45,5.2,5.2,0,0,1,7.34,0,5.11,5.11,0,0,1,1.48,3.71,5.23,5.23,0,0,1-.46,2.2,5.15,5.15,0,0,1-1.29,1.78Zm-4.1-1a3.81,3.81,0,0,0,1.69-.39l-1.17-1.77,1-.68,1.17,1.75a3.89,3.89,0,0,0,1.14-2.92,4,4,0,0,0-1.1-2.87,3.66,3.66,0,0,0-2.73-1.13,3.72,3.72,0,0,0-2.75,1.13,4.32,4.32,0,0,0,0,5.74A3.69,3.69,0,0,0,528.53,399.72Z"/><path class="cls-4" d="M541,400.73h-1.23v-1h-.06a2.16,2.16,0,0,1-.9.84,2.79,2.79,0,0,1-3.21-.38,2.88,2.88,0,0,1-.67-2.05v-4.31h1.28v4.22a1.52,1.52,0,0,0,1.7,1.68,1.61,1.61,0,0,0,1.29-.62,2.26,2.26,0,0,0,.51-1.49v-3.79H541Z"/><path class="cls-4" d="M545.1,393.64a3.21,3.21,0,0,1,2.26.77,2.68,2.68,0,0,1,.82,2.09v4.23H547v-1h-.05a2.47,2.47,0,0,1-2.13,1.18,2.76,2.76,0,0,1-1.9-.67,2.14,2.14,0,0,1-.76-1.68,2.06,2.06,0,0,1,.8-1.7,3.41,3.41,0,0,1,2.15-.63,3.89,3.89,0,0,1,1.89.42v-.29a1.47,1.47,0,0,0-.53-1.14,1.85,1.85,0,0,0-1.25-.47,2,2,0,0,0-1.7.91l-1.14-.71A3.16,3.16,0,0,1,545.1,393.64Zm-1.66,5a1.05,1.05,0,0,0,.42.84,1.6,1.6,0,0,0,1,.33,2,2,0,0,0,1.45-.6,1.86,1.86,0,0,0,.64-1.41,2.62,2.62,0,0,0-1.68-.48,2.21,2.21,0,0,0-1.31.38A1.11,1.11,0,0,0,543.44,398.63Z"/><path class="cls-4" d="M549.64,393.87h1.23V395h.06a2.3,2.3,0,0,1,2.36-1.32l.27,0V395L553,395a2.06,2.06,0,0,0-1.48.55,1.86,1.86,0,0,0-.58,1.41v3.78h-1.29Zm8,7a1.94,1.94,0,0,1-1.4-.52,1.88,1.88,0,0,1-.56-1.44V395h-1.21v-1.17h1.21v-2.1H557v2.1h1.68V395H557v3.42a1.23,1.23,0,0,0,.27.93.88.88,0,0,0,.6.24l.3,0a1.31,1.31,0,0,0,.28-.09l.4,1.15A3.47,3.47,0,0,1,557.68,400.84Z"/><path class="cls-4" d="M562.93,401a3.3,3.3,0,0,1-2.5-1,4,4,0,0,1,0-5.23,3.41,3.41,0,0,1,4.86-.06,4,4,0,0,1,.9,2.76v.14h-5.39a2.24,2.24,0,0,0,.67,1.63,2.18,2.18,0,0,0,3.47-.62l1.15.56a3.42,3.42,0,0,1-1.28,1.36A3.51,3.51,0,0,1,562.93,401Zm-2.06-4.48h3.93a1.7,1.7,0,0,0-.58-1.18,2,2,0,0,0-1.41-.47,1.86,1.86,0,0,0-1.25.45A2.13,2.13,0,0,0,560.87,396.47Z"/><path class="cls-4" d="M568.64,400.73h-1.29v-6.86h1.23V395h.06a1.82,1.82,0,0,1,.8-.93,2.24,2.24,0,0,1,1.2-.39,2.44,2.44,0,0,1,1,.17l-.39,1.24a2.32,2.32,0,0,0-.76-.09,1.66,1.66,0,0,0-1.26.58,2,2,0,0,0-.54,1.38Z"/><path class="cls-4" d="M573.79,390.7v10H572.5v-10Z"/><path class="cls-4" d="M581.49,393.87l-4.3,9.88h-1.33l1.6-3.46-2.83-6.42H576l2,4.92h0l2-4.92Z"/><path class="cls-4" d="M525.15,417.53h-1.29v-10h3.42a3.14,3.14,0,0,1,2.22.86,2.83,2.83,0,0,1,.92,2.13,2.79,2.79,0,0,1-.68,1.84,3.07,3.07,0,0,1-1.72,1l0,0,2.81,4.07v.06h-1.53l-2.7-4.06h-1.43Zm0-8.79v3.52h2.08a1.89,1.89,0,0,0,1.33-.51,1.66,1.66,0,0,0,.54-1.26,1.76,1.76,0,0,0-1.79-1.75Z"/><path class="cls-4" d="M534.67,417.75a3.27,3.27,0,0,1-2.49-1,4,4,0,0,1,0-5.23,3.16,3.16,0,0,1,2.44-1.05,3.12,3.12,0,0,1,2.43,1,4,4,0,0,1,.9,2.77v.13h-5.39a2.24,2.24,0,0,0,.67,1.63,2.16,2.16,0,0,0,3.47-.62l1.15.56a3.49,3.49,0,0,1-1.28,1.36A3.54,3.54,0,0,1,534.67,417.75Zm-2.06-4.48h3.94a1.7,1.7,0,0,0-.58-1.18,2.05,2.05,0,0,0-1.41-.47,1.86,1.86,0,0,0-1.25.45A2.2,2.2,0,0,0,532.61,413.27Z"/><path class="cls-4" d="M544.42,415.62a1.87,1.87,0,0,1-.79,1.52,3.09,3.09,0,0,1-2,.61,3.13,3.13,0,0,1-1.82-.54,3,3,0,0,1-1.12-1.42l1.15-.49a2.09,2.09,0,0,0,.73,1,1.78,1.78,0,0,0,1.06.34,1.94,1.94,0,0,0,1-.26.77.77,0,0,0,.41-.63c0-.44-.34-.76-1-1l-1.17-.29c-1.34-.34-2-1-2-1.93a1.78,1.78,0,0,1,.76-1.51,3.47,3.47,0,0,1,3.6-.13,2.29,2.29,0,0,1,1,1.16l-1.14.48a1.45,1.45,0,0,0-.64-.68,1.92,1.92,0,0,0-1-.25,1.74,1.74,0,0,0-.9.25.73.73,0,0,0-.4.62q0,.59,1.11.84l1,.27C543.74,413.9,544.42,414.59,544.42,415.62Z"/><path class="cls-4" d="M551.56,417.53h-1.24v-.95h-.05a2.4,2.4,0,0,1-.91.84,2.58,2.58,0,0,1-1.26.33,2.54,2.54,0,0,1-1.94-.72,2.88,2.88,0,0,1-.68-2v-4.31h1.29v4.23a1.51,1.51,0,0,0,1.69,1.68,1.59,1.59,0,0,0,1.29-.63,2.22,2.22,0,0,0,.52-1.49v-3.79h1.29Z"/><path class="cls-4" d="M554.41,407.5v10h-1.29v-10Z"/><path class="cls-4" d="M558.77,417.64a2,2,0,0,1-1.4-.52,1.91,1.91,0,0,1-.56-1.44v-3.84H555.6v-1.17h1.21v-2.1h1.28v2.1h1.68v1.17h-1.68v3.42a1.23,1.23,0,0,0,.27.93.89.89,0,0,0,.6.25,1.36,1.36,0,0,0,.3,0,1.31,1.31,0,0,0,.28-.09l.4,1.15A3.47,3.47,0,0,1,558.77,417.64Z"/><path class="cls-4" d="M566.4,415.62a1.9,1.9,0,0,1-.79,1.52,3.09,3.09,0,0,1-2,.61,3.13,3.13,0,0,1-1.82-.54,3,3,0,0,1-1.12-1.42l1.15-.49a2.09,2.09,0,0,0,.73,1,1.78,1.78,0,0,0,1.06.34,1.94,1.94,0,0,0,1-.26.77.77,0,0,0,.41-.63c0-.44-.34-.76-1-1l-1.17-.29c-1.34-.34-2-1-2-1.93a1.79,1.79,0,0,1,.77-1.51,3.47,3.47,0,0,1,3.6-.13,2.34,2.34,0,0,1,1,1.16l-1.14.48a1.45,1.45,0,0,0-.64-.68,1.94,1.94,0,0,0-1-.25,1.74,1.74,0,0,0-.9.25.73.73,0,0,0-.4.62q0,.59,1.11.84l1,.27C565.71,413.9,566.4,414.59,566.4,415.62Z"/><path class="cls-4" d="M527.35,434.55a3.5,3.5,0,0,1-2.69-1.09,4,4,0,0,1-1-2.86v-6.3h1.29v6.36a2.81,2.81,0,0,0,.64,1.95,2.59,2.59,0,0,0,3.56,0,2.81,2.81,0,0,0,.64-1.95V424.3h1.29v6.3a4,4,0,0,1-1,2.89A3.53,3.53,0,0,1,527.35,434.55Z"/><path class="cls-4" d="M536.2,434.55a3,3,0,0,1-1.38-.32,2.49,2.49,0,0,1-1-.85h-.06l.06.95v3h-1.29v-9.88h1.23v.95h.06a2.34,2.34,0,0,1,1-.85,3,3,0,0,1,3.67.74,3.94,3.94,0,0,1,0,5.18A2.93,2.93,0,0,1,536.2,434.55Zm-.21-1.17a2,2,0,0,0,1.55-.71,2.49,2.49,0,0,0,.63-1.77,2.57,2.57,0,0,0-.63-1.78,2.09,2.09,0,0,0-3.12,0,2.88,2.88,0,0,0,0,3.57A2,2,0,0,0,536,433.38Z"/><path class="cls-4" d="M543.51,434.55a3,3,0,0,1-2.31-1.06,4,4,0,0,1,0-5.18,3,3,0,0,1,2.31-1.07,2.93,2.93,0,0,1,1.38.33,2.31,2.31,0,0,1,1,.85h.06l-.06-.95V424.3h1.29v10H545.9v-.95h-.06a2.46,2.46,0,0,1-1,.85A3,3,0,0,1,543.51,434.55Zm.21-1.17a2,2,0,0,0,1.55-.69,2.84,2.84,0,0,0,0-3.57,2,2,0,0,0-1.55-.7,2,2,0,0,0-1.56.7,2.57,2.57,0,0,0-.63,1.78,2.49,2.49,0,0,0,.63,1.77A2,2,0,0,0,543.72,433.38Z"/><path class="cls-4" d="M551.24,427.24a3.18,3.18,0,0,1,2.25.77,2.68,2.68,0,0,1,.82,2.09v4.23h-1.23v-.95H553a2.47,2.47,0,0,1-2.13,1.17,2.76,2.76,0,0,1-1.9-.67,2.14,2.14,0,0,1-.76-1.68,2.06,2.06,0,0,1,.8-1.7,3.41,3.41,0,0,1,2.15-.62,3.89,3.89,0,0,1,1.89.41V430a1.44,1.44,0,0,0-.53-1.14,1.83,1.83,0,0,0-1.25-.47,2,2,0,0,0-1.7.91l-1.14-.71A3.17,3.17,0,0,1,551.24,427.24Zm-1.67,5a1,1,0,0,0,.43.84,1.56,1.56,0,0,0,1,.33,2.07,2.07,0,0,0,1.45-.6,1.89,1.89,0,0,0,.63-1.41,2.62,2.62,0,0,0-1.68-.48,2.21,2.21,0,0,0-1.31.38A1.11,1.11,0,0,0,549.57,432.23Z"/><path class="cls-4" d="M558.35,434.44a1.85,1.85,0,0,1-2-2v-3.84h-1.21v-1.17h1.21v-2.1h1.29v2.1h1.67v1.17h-1.67v3.42a1.23,1.23,0,0,0,.26.93.89.89,0,0,0,.6.25,1.36,1.36,0,0,0,.3,0,1.31,1.31,0,0,0,.28-.09l.4,1.15A3.43,3.43,0,0,1,558.35,434.44Z"/><path class="cls-4" d="M563.6,434.55a3.27,3.27,0,0,1-2.49-1,4,4,0,0,1,0-5.23,3.41,3.41,0,0,1,4.86-.06,4,4,0,0,1,.9,2.77v.13h-5.39a2.24,2.24,0,0,0,.67,1.63,2.17,2.17,0,0,0,3.48-.62l1.14.56a3.36,3.36,0,0,1-1.28,1.36A3.48,3.48,0,0,1,563.6,434.55Zm-2.06-4.48h3.93a1.66,1.66,0,0,0-.58-1.18,2,2,0,0,0-1.4-.47,1.87,1.87,0,0,0-1.26.45A2.13,2.13,0,0,0,561.54,430.07Z"/><path class="cls-4" d="M389.18,396.67v4.06H387.9v-10h3.41a3.1,3.1,0,0,1,2.22.87,2.9,2.9,0,0,1,0,4.24,3.1,3.1,0,0,1-2.22.86Zm0-4.74v3.5h2.16a1.7,1.7,0,0,0,1.27-.51,1.69,1.69,0,0,0,.52-1.24,1.64,1.64,0,0,0-.52-1.21,1.66,1.66,0,0,0-1.27-.54Z"/><path class="cls-4" d="M396.86,400.73h-1.29v-6.86h1.23V395h.06a1.82,1.82,0,0,1,.8-.93,2.24,2.24,0,0,1,1.2-.39,2.44,2.44,0,0,1,.95.17l-.39,1.24a2.32,2.32,0,0,0-.76-.09,1.66,1.66,0,0,0-1.26.58,2,2,0,0,0-.54,1.38Z"/><path class="cls-4" d="M399.84,397.3a3.63,3.63,0,0,1,1-2.62,3.42,3.42,0,0,1,2.54-1,3.37,3.37,0,0,1,2.52,1,3.9,3.9,0,0,1,0,5.24,3.36,3.36,0,0,1-2.52,1,3.41,3.41,0,0,1-2.54-1A3.67,3.67,0,0,1,399.84,397.3Zm1.29,0a2.52,2.52,0,0,0,.64,1.79,2.21,2.21,0,0,0,3.19,0,2.78,2.78,0,0,0,0-3.57,2.17,2.17,0,0,0-3.19,0A2.49,2.49,0,0,0,401.13,397.3Z"/><path class="cls-4" d="M407.34,403.89a2,2,0,0,1-.75-.14l.33-1.12a1,1,0,0,0,.38.08q.78,0,.81-1v-7.88h1.29v7.68C409.4,403.11,408.72,403.89,407.34,403.89Zm2.33-12.39a.85.85,0,0,1-.27.64.87.87,0,0,1-.64.27.91.91,0,1,1,0-1.82.87.87,0,0,1,.64.27A.85.85,0,0,1,409.67,391.5Z"/><path class="cls-4" d="M414.09,401a3.27,3.27,0,0,1-2.49-1,4,4,0,0,1,0-5.23,3.42,3.42,0,0,1,4.87-.06,4,4,0,0,1,.9,2.76l0,.14h-5.39a2.24,2.24,0,0,0,.68,1.63,2.18,2.18,0,0,0,3.47-.62l1.15.56a3.49,3.49,0,0,1-1.28,1.36A3.54,3.54,0,0,1,414.09,401ZM412,396.47H416a1.7,1.7,0,0,0-.58-1.18,2,2,0,0,0-1.41-.47,1.85,1.85,0,0,0-1.25.45A2.14,2.14,0,0,0,412,396.47Z"/><path class="cls-4" d="M421.72,401a3.37,3.37,0,0,1-2.53-1,3.68,3.68,0,0,1-1-2.62,3.6,3.6,0,0,1,1-2.62,3.38,3.38,0,0,1,2.53-1,3.2,3.2,0,0,1,1.83.53,3.14,3.14,0,0,1,1.18,1.45l-1.18.49a1.93,1.93,0,0,0-1.91-1.29,2,2,0,0,0-1.53.71,2.79,2.79,0,0,0,0,3.53,2.1,2.1,0,0,0,3.51-.57l1.15.49a3.07,3.07,0,0,1-1.18,1.45A3.35,3.35,0,0,1,421.72,401Z"/><path class="cls-4" d="M428.54,400.84a1.87,1.87,0,0,1-2-2V395h-1.21v-1.17h1.21v-2.1h1.29v2.1h1.68V395h-1.68v3.42a1.23,1.23,0,0,0,.26.93.88.88,0,0,0,.6.24,1.55,1.55,0,0,0,.31,0l.27-.09.4,1.15A3.43,3.43,0,0,1,428.54,400.84Z"/><path class="cls-4" d="M443.62,395.71a5.09,5.09,0,0,1-1.49,3.73,5.2,5.2,0,0,1-7.33,0,5.4,5.4,0,0,1,0-7.45,5.19,5.19,0,0,1,7.33,0A5.08,5.08,0,0,1,443.62,395.71Zm-9,0a4,4,0,0,0,1.09,2.87,3.67,3.67,0,0,0,2.74,1.14,3.6,3.6,0,0,0,2.73-1.14,4.27,4.27,0,0,0,0-5.74,3.63,3.63,0,0,0-2.73-1.13,3.7,3.7,0,0,0-2.74,1.13A4,4,0,0,0,434.63,395.71Z"/><path class="cls-4" d="M447.79,401a3,3,0,0,1-2.31-1.06,4,4,0,0,1,0-5.18,3,3,0,0,1,2.31-1.07,3,3,0,0,1,1.38.32,2.51,2.51,0,0,1,1,.86h.05l-.05-.95V390.7h1.28v10h-1.23v-1h-.05a2.51,2.51,0,0,1-1,.86A3,3,0,0,1,447.79,401Zm.21-1.18a2,2,0,0,0,1.55-.68,2.84,2.84,0,0,0,0-3.57,2,2,0,0,0-1.55-.7,2,2,0,0,0-1.56.7,2.57,2.57,0,0,0-.63,1.78,2.51,2.51,0,0,0,.63,1.77A2,2,0,0,0,448,399.77Z"/><path class="cls-4" d="M454.65,391.5a.85.85,0,0,1-.27.64.87.87,0,0,1-.64.27.91.91,0,1,1,0-1.82.87.87,0,0,1,.64.27A.85.85,0,0,1,454.65,391.5Zm-.27,2.37v6.86h-1.29v-6.86Z"/><path class="cls-4" d="M456.06,393.87h1.23v.95h.06a2.29,2.29,0,0,1,.9-.84,2.79,2.79,0,0,1,3.21.38,2.91,2.91,0,0,1,.68,2.06v4.31h-1.29V396.5a1.51,1.51,0,0,0-1.69-1.68,1.61,1.61,0,0,0-1.29.62,2.24,2.24,0,0,0-.52,1.49v3.8h-1.29Z"/><path class="cls-4" d="M389.18,417.53H387.9v-10h1.28l3.49,6.11h.06l3.48-6.11h1.29v10h-1.29v-5.95l.06-1.68h-.06l-3.13,5.5h-.76l-3.14-5.5h-.05l.05,1.68Z"/><path class="cls-4" d="M402.37,417.75a3.27,3.27,0,0,1-2.49-1,4,4,0,0,1,0-5.23,3.16,3.16,0,0,1,2.44-1.05,3.12,3.12,0,0,1,2.43,1,4,4,0,0,1,.9,2.77v.13h-5.39a2.24,2.24,0,0,0,.67,1.63,2.16,2.16,0,0,0,3.47-.62l1.15.56a3.49,3.49,0,0,1-1.28,1.36A3.54,3.54,0,0,1,402.37,417.75Zm-2.06-4.48h3.94a1.7,1.7,0,0,0-.58-1.18,2.05,2.05,0,0,0-1.41-.47,1.86,1.86,0,0,0-1.25.45A2.2,2.2,0,0,0,400.31,413.27Z"/><path class="cls-4" d="M410,417.75a3.3,3.3,0,0,1-2.5-1,4,4,0,0,1,0-5.23,3.41,3.41,0,0,1,4.86-.06,4,4,0,0,1,.9,2.77v.13h-5.39a2.24,2.24,0,0,0,.67,1.63,2.17,2.17,0,0,0,1.54.62,2.13,2.13,0,0,0,1.93-1.24l1.15.56a3.42,3.42,0,0,1-1.28,1.36A3.48,3.48,0,0,1,410,417.75Zm-2.06-4.48h3.93a1.7,1.7,0,0,0-.58-1.18,2.05,2.05,0,0,0-1.41-.47,1.86,1.86,0,0,0-1.25.45A2.13,2.13,0,0,0,407.89,413.27Z"/><path class="cls-4" d="M416.88,417.64a2,2,0,0,1-1.4-.52,1.91,1.91,0,0,1-.56-1.44v-3.84h-1.21v-1.17h1.21v-2.1h1.28v2.1h1.68v1.17H416.2v3.42a1.23,1.23,0,0,0,.27.93.89.89,0,0,0,.6.25,1.36,1.36,0,0,0,.3,0,1.31,1.31,0,0,0,.28-.09l.4,1.15A3.47,3.47,0,0,1,416.88,417.64Z"/><path class="cls-4" d="M420.85,408.3a.89.89,0,0,1-.91.91.9.9,0,0,1-.91-.91.85.85,0,0,1,.27-.64.87.87,0,0,1,.64-.27.9.9,0,0,1,.91.91Zm-.26,2.37v6.86H419.3v-6.86Z"/><path class="cls-4" d="M422.27,410.67h1.23v.95h.05a2.26,2.26,0,0,1,.91-.84,2.59,2.59,0,0,1,1.26-.34,2.54,2.54,0,0,1,1.94.72,2.88,2.88,0,0,1,.68,2.06v4.31h-1.29V413.3a1.51,1.51,0,0,0-1.69-1.68,1.64,1.64,0,0,0-1.29.62,2.29,2.29,0,0,0-.52,1.49v3.8h-1.28Z"/><path class="cls-4" d="M432.82,420.78a3.81,3.81,0,0,1-1.08-.15,3.77,3.77,0,0,1-.91-.41,2.9,2.9,0,0,1-.71-.64,2.48,2.48,0,0,1-.45-.81l1.22-.5a2,2,0,0,0,.73,1,2,2,0,0,0,1.2.36,2.13,2.13,0,0,0,1.64-.63,2.46,2.46,0,0,0,.59-1.74v-.65H435a2.52,2.52,0,0,1-1,.86,2.91,2.91,0,0,1-1.35.31,3.05,3.05,0,0,1-2.31-1.05,3.81,3.81,0,0,1-.95-2.6,3.76,3.76,0,0,1,.95-2.59,3,3,0,0,1,2.31-1.07,2.92,2.92,0,0,1,1.35.32,2.44,2.44,0,0,1,1,.86h.06v-.95h1.23v6.56a3.48,3.48,0,0,1-.94,2.59A3.38,3.38,0,0,1,432.82,420.78Zm0-4.2a2,2,0,0,0,1.56-.69,2.84,2.84,0,0,0,0-3.57,2,2,0,0,0-1.56-.7,2,2,0,0,0-1.55.7,2.57,2.57,0,0,0-.63,1.78,2.53,2.53,0,0,0,.63,1.78A2,2,0,0,0,432.86,416.58Z"/><path class="cls-4" d="M397.54,125.73a4.51,4.51,0,0,1-1.24,3.34,4.84,4.84,0,0,1-3.69,1.49,5.24,5.24,0,0,1,0-10.48,5.4,5.4,0,0,1,2.09.4,4.23,4.23,0,0,1,1.61,1.1l-.92.93a3.08,3.08,0,0,0-1.2-.88,3.94,3.94,0,0,0-1.58-.31,3.76,3.76,0,0,0-2.77,1.13,4.24,4.24,0,0,0,0,5.74,4,4,0,0,0,5.27.29,3.39,3.39,0,0,0,1.15-2.31h-3.65V125h4.86A4,4,0,0,1,397.54,125.73Z"/><path class="cls-4" d="M401.9,130.56a3.27,3.27,0,0,1-2.49-1,3.63,3.63,0,0,1-1-2.62,3.72,3.72,0,0,1,.95-2.61,3.42,3.42,0,0,1,4.86-.05,3.92,3.92,0,0,1,.9,2.76v.14h-5.39a2.23,2.23,0,0,0,.67,1.62,2.18,2.18,0,0,0,3.48-.61l1.14.56a3.42,3.42,0,0,1-1.28,1.36A3.57,3.57,0,0,1,401.9,130.56Zm-2.06-4.48h3.93a1.7,1.7,0,0,0-.58-1.19,2.05,2.05,0,0,0-1.41-.47,1.86,1.86,0,0,0-1.25.45A2.13,2.13,0,0,0,399.84,126.08Z"/><path class="cls-4" d="M406.32,123.47h1.23v1h.06a2.37,2.37,0,0,1,.9-.84,2.64,2.64,0,0,1,1.27-.33,2.55,2.55,0,0,1,1.94.72,2.88,2.88,0,0,1,.68,2v4.31h-1.29V126.1a1.52,1.52,0,0,0-1.7-1.68,1.59,1.59,0,0,0-1.28.63,2.22,2.22,0,0,0-.52,1.49v3.79h-1.29Z"/><path class="cls-4" d="M417,130.56a3.27,3.27,0,0,1-2.49-1,3.63,3.63,0,0,1-1-2.62,3.72,3.72,0,0,1,1-2.61,3.16,3.16,0,0,1,2.43-1,3.12,3.12,0,0,1,2.43,1,3.88,3.88,0,0,1,.91,2.76l0,.14h-5.39a2.27,2.27,0,0,0,.67,1.62,2.18,2.18,0,0,0,3.48-.61l1.14.56a3.36,3.36,0,0,1-1.28,1.36A3.57,3.57,0,0,1,417,130.56Zm-2.06-4.48h3.93a1.7,1.7,0,0,0-.58-1.19,2,2,0,0,0-1.4-.47,1.87,1.87,0,0,0-1.26.45A2.13,2.13,0,0,0,414.93,126.08Z"/><path class="cls-4" d="M422.7,130.33h-1.29v-6.86h1.23v1.12h.06a1.88,1.88,0,0,1,.81-.93,2.17,2.17,0,0,1,1.19-.38,2.42,2.42,0,0,1,.95.16l-.39,1.25a2.24,2.24,0,0,0-.75-.1,1.68,1.68,0,0,0-1.27.59,2,2,0,0,0-.54,1.37Z"/><path class="cls-4" d="M428.82,123.25a3.18,3.18,0,0,1,2.25.76,2.72,2.72,0,0,1,.83,2.09v4.23h-1.23v-1h-.06a2.47,2.47,0,0,1-2.13,1.18,2.74,2.74,0,0,1-1.89-.68,2.13,2.13,0,0,1-.77-1.68,2,2,0,0,1,.81-1.69,3.37,3.37,0,0,1,2.15-.63,3.83,3.83,0,0,1,1.89.42V126a1.47,1.47,0,0,0-.53-1.14,1.82,1.82,0,0,0-1.25-.47,2,2,0,0,0-1.71.91l-1.13-.72A3.17,3.17,0,0,1,428.82,123.25Zm-1.67,5a1,1,0,0,0,.43.84,1.53,1.53,0,0,0,1,.34,2.05,2.05,0,0,0,1.45-.6,1.92,1.92,0,0,0,.64-1.42,2.69,2.69,0,0,0-1.68-.47,2.18,2.18,0,0,0-1.31.37A1.15,1.15,0,0,0,427.15,128.23Z"/><path class="cls-4" d="M434.64,120.31v10h-1.28v-10Z"/><path class="cls-4" d="M439.51,130.33v-10h3.63a2.92,2.92,0,0,1,2,.78,2.52,2.52,0,0,1,.86,2,2.1,2.1,0,0,1-1.36,2.08v.06a2.49,2.49,0,0,1,1.23.87,2.33,2.33,0,0,1,.46,1.43,2.62,2.62,0,0,1-.89,2,3,3,0,0,1-2.14.81Zm1.29-8.79v3.07h2.34a1.56,1.56,0,0,0,1.15-.47,1.47,1.47,0,0,0,.46-1.07,1.52,1.52,0,0,0-.45-1.07,1.46,1.46,0,0,0-1.1-.46Zm0,4.27v3.29h2.59a1.66,1.66,0,0,0,1.67-1.65,1.57,1.57,0,0,0-.49-1.15,1.67,1.67,0,0,0-1.23-.49Z"/><path class="cls-4" d="M447.21,126.9a3.66,3.66,0,0,1,1-2.62,3.38,3.38,0,0,1,2.53-1,3.33,3.33,0,0,1,2.52,1,3.62,3.62,0,0,1,1,2.62,3.57,3.57,0,0,1-1,2.62,3.34,3.34,0,0,1-2.52,1,3.39,3.39,0,0,1-2.53-1A3.64,3.64,0,0,1,447.21,126.9Zm1.29,0a2.49,2.49,0,0,0,.65,1.79,2.19,2.19,0,0,0,3.19,0,2.81,2.81,0,0,0,0-3.57,2.17,2.17,0,0,0-3.19,0A2.5,2.5,0,0,0,448.5,126.9Z"/><path class="cls-4" d="M458.05,123.25a3.18,3.18,0,0,1,2.25.76,2.72,2.72,0,0,1,.83,2.09v4.23H459.9v-1h-.06a2.47,2.47,0,0,1-2.13,1.18,2.76,2.76,0,0,1-1.89-.68,2.13,2.13,0,0,1-.77-1.68,2,2,0,0,1,.81-1.69,3.39,3.39,0,0,1,2.15-.63,3.83,3.83,0,0,1,1.89.42V126a1.47,1.47,0,0,0-.53-1.14,1.8,1.8,0,0,0-1.25-.47,2,2,0,0,0-1.71.91l-1.13-.72A3.17,3.17,0,0,1,458.05,123.25Zm-1.67,5a1,1,0,0,0,.43.84,1.55,1.55,0,0,0,1,.34,2.05,2.05,0,0,0,1.45-.6,1.88,1.88,0,0,0,.64-1.42,2.69,2.69,0,0,0-1.68-.47,2.2,2.2,0,0,0-1.31.37A1.15,1.15,0,0,0,456.38,128.23Z"/><path class="cls-4" d="M463.87,130.33h-1.28v-6.86h1.23v1.12h.05a1.93,1.93,0,0,1,.81-.93,2.2,2.2,0,0,1,1.2-.38,2.45,2.45,0,0,1,.95.16l-.39,1.25a2.27,2.27,0,0,0-.76-.1,1.69,1.69,0,0,0-1.27.59,2,2,0,0,0-.54,1.37Z"/><path class="cls-4" d="M470.12,130.56a3,3,0,0,1-2.31-1.07,4,4,0,0,1,0-5.18,3,3,0,0,1,2.31-1.06,3,3,0,0,1,1.38.32,2.57,2.57,0,0,1,1,.85h.05l-.05-1v-3.16h1.28v10h-1.23v-1h-.05a2.49,2.49,0,0,1-1,.85A2.93,2.93,0,0,1,470.12,130.56Zm.21-1.18a2,2,0,0,0,1.55-.69,2.52,2.52,0,0,0,.63-1.79,2.57,2.57,0,0,0-.63-1.78,2,2,0,0,0-1.55-.7,2,2,0,0,0-1.56.7,2.57,2.57,0,0,0-.63,1.78,2.53,2.53,0,0,0,.63,1.78A2,2,0,0,0,470.33,129.38Z"/><path class="cls-4" d="M389.18,147.13H387.9v-10h1.28l3.49,6.1h.06l3.48-6.1h1.29v10h-1.29v-5.95l.06-1.68h-.06l-3.13,5.5h-.76l-3.14-5.5h-.05l.05,1.68Z"/><path class="cls-4" d="M402.37,147.36a3.27,3.27,0,0,1-2.49-1,3.67,3.67,0,0,1-1-2.62,3.76,3.76,0,0,1,1-2.61,3.18,3.18,0,0,1,2.44-1,3.12,3.12,0,0,1,2.43,1,3.94,3.94,0,0,1,.9,2.76v.14h-5.39a2.23,2.23,0,0,0,.67,1.62,2.11,2.11,0,0,0,1.54.62,2.15,2.15,0,0,0,1.93-1.23l1.15.56a3.49,3.49,0,0,1-1.28,1.36A3.64,3.64,0,0,1,402.37,147.36Zm-2.06-4.48h3.94a1.74,1.74,0,0,0-.58-1.19,2.05,2.05,0,0,0-1.41-.47,1.86,1.86,0,0,0-1.25.45A2.2,2.2,0,0,0,400.31,142.88Z"/><path class="cls-4" d="M410,147.36a3.31,3.31,0,0,1-2.5-1,3.67,3.67,0,0,1-1-2.62,3.72,3.72,0,0,1,1-2.61,3.42,3.42,0,0,1,4.86-.05,3.94,3.94,0,0,1,.9,2.76v.14h-5.39a2.23,2.23,0,0,0,.67,1.62,2.17,2.17,0,0,0,3.47-.61l1.15.56a3.42,3.42,0,0,1-1.28,1.36A3.57,3.57,0,0,1,410,147.36Zm-2.06-4.48h3.93a1.74,1.74,0,0,0-.58-1.19,2.05,2.05,0,0,0-1.41-.47,1.86,1.86,0,0,0-1.25.45A2.13,2.13,0,0,0,407.89,142.88Z"/><path class="cls-4" d="M416.88,147.25a2,2,0,0,1-1.4-.52,1.93,1.93,0,0,1-.56-1.44v-3.84h-1.21v-1.18h1.21v-2.1h1.28v2.1h1.68v1.18H416.2v3.42a1.26,1.26,0,0,0,.27.93.88.88,0,0,0,.6.24,1.39,1.39,0,0,0,.3,0l.28-.09.4,1.14A3.46,3.46,0,0,1,416.88,147.25Z"/><path class="cls-4" d="M420.85,137.91a.9.9,0,0,1-.91.91.92.92,0,0,1-.91-.91.9.9,0,0,1,.91-.91.89.89,0,0,1,.91.91Zm-.26,2.36v6.86H419.3v-6.86Z"/><path class="cls-4" d="M422.27,140.27h1.23v.95h.05a2.4,2.4,0,0,1,.91-.84,2.58,2.58,0,0,1,1.26-.33,2.54,2.54,0,0,1,1.94.72,2.84,2.84,0,0,1,.68,2v4.31h-1.29v-4.22a1.52,1.52,0,0,0-1.69-1.69,1.62,1.62,0,0,0-1.29.63,2.27,2.27,0,0,0-.52,1.49v3.79h-1.28Z"/><path class="cls-4" d="M432.82,150.38a3.81,3.81,0,0,1-1.08-.15,3.13,3.13,0,0,1-.91-.41,3.08,3.08,0,0,1-.71-.63,2.48,2.48,0,0,1-.45-.81l1.22-.5a1.89,1.89,0,0,0,.73,1,2,2,0,0,0,1.2.37,2.13,2.13,0,0,0,1.64-.63,2.46,2.46,0,0,0,.59-1.74v-.66H435a2.52,2.52,0,0,1-1,.86,2.92,2.92,0,0,1-1.35.32,3.05,3.05,0,0,1-2.31-1.05,3.83,3.83,0,0,1-.95-2.61,3.78,3.78,0,0,1,.95-2.59,3,3,0,0,1,2.31-1.06,2.91,2.91,0,0,1,1.35.31,2.52,2.52,0,0,1,1,.86h.06v-.95h1.23v6.57a3.49,3.49,0,0,1-.94,2.59A3.41,3.41,0,0,1,432.82,150.38Zm0-4.2a2,2,0,0,0,1.56-.68,2.86,2.86,0,0,0,0-3.58,2,2,0,0,0-1.56-.7,2,2,0,0,0-1.55.7,2.57,2.57,0,0,0-.63,1.78,2.53,2.53,0,0,0,.63,1.78A2,2,0,0,0,432.86,146.18Z"/></g><g id="popups"><path class="cls-5" d="M6.89,13.1V.22h1.7V5.51h6.7V.22H17V13.1h-1.7V7H8.59V13.1Z"/><path class="cls-5" d="M26,10.1l1.64.2a3.94,3.94,0,0,1-1.44,2.22,4.26,4.26,0,0,1-2.67.8,4.29,4.29,0,0,1-3.25-1.27,4.92,4.92,0,0,1-1.2-3.53,5.17,5.17,0,0,1,1.22-3.66,4.08,4.08,0,0,1,3.14-1.3,4,4,0,0,1,3.06,1.27,5.08,5.08,0,0,1,1.19,3.59c0,.09,0,.23,0,.42h-7a3.62,3.62,0,0,0,.87,2.36,2.6,2.6,0,0,0,1.95.81,2.46,2.46,0,0,0,1.49-.45A3,3,0,0,0,26,10.1ZM20.83,7.54H26a3.19,3.19,0,0,0-.6-1.77,2.45,2.45,0,0,0-2-.91,2.48,2.48,0,0,0-1.83.73A2.86,2.86,0,0,0,20.83,7.54Z"/><path class="cls-5" d="M29.62,13.1V3.77h1.43V5.19a3.83,3.83,0,0,1,1-1.31,1.79,1.79,0,0,1,1-.32,3.1,3.1,0,0,1,1.63.51l-.55,1.47A2.26,2.26,0,0,0,33,5.19a1.5,1.5,0,0,0-.93.32,1.63,1.63,0,0,0-.59.86,6,6,0,0,0-.26,1.85V13.1Z"/><path class="cls-5" d="M42,10.1l1.63.2a3.93,3.93,0,0,1-1.43,2.22,4.82,4.82,0,0,1-5.92-.47,4.92,4.92,0,0,1-1.2-3.53,5.17,5.17,0,0,1,1.21-3.66,4.1,4.1,0,0,1,3.15-1.3,4,4,0,0,1,3.06,1.27,5.08,5.08,0,0,1,1.18,3.59c0,.09,0,.23,0,.42h-7a3.62,3.62,0,0,0,.87,2.36,2.63,2.63,0,0,0,2,.81,2.44,2.44,0,0,0,1.49-.45A3.06,3.06,0,0,0,42,10.1Zm-5.2-2.56H42a3.27,3.27,0,0,0-.59-1.77,2.46,2.46,0,0,0-2-.91,2.52,2.52,0,0,0-1.84.73A2.91,2.91,0,0,0,36.83,7.54Z"/><path class="cls-5" d="M45.55,1.92V.09h1.7V1.54A3.71,3.71,0,0,1,47,3.23,2.38,2.38,0,0,1,45.8,4.31l-.39-.63a1.38,1.38,0,0,0,.71-.61,2.68,2.68,0,0,0,.26-1.15Z"/><path class="cls-5" d="M48.69,10.32l1.56-.25A2.14,2.14,0,0,0,51,11.51a2.51,2.51,0,0,0,1.68.5,2.45,2.45,0,0,0,1.62-.44,1.31,1.31,0,0,0,.52-1,.94.94,0,0,0-.46-.84,6.63,6.63,0,0,0-1.62-.54,14.87,14.87,0,0,1-2.41-.76,2.29,2.29,0,0,1-1-.89A2.36,2.36,0,0,1,49,6.25a2.43,2.43,0,0,1,.29-1.16A2.53,2.53,0,0,1,50,4.21a3.34,3.34,0,0,1,1-.46,4.68,4.68,0,0,1,1.37-.19,5.46,5.46,0,0,1,1.93.32,2.59,2.59,0,0,1,1.22.85,3.31,3.31,0,0,1,.55,1.45l-1.55.21a1.69,1.69,0,0,0-.61-1.13,2.3,2.3,0,0,0-1.43-.4A2.58,2.58,0,0,0,51,5.22a1.05,1.05,0,0,0-.47.84,1,1,0,0,0,.19.56,1.43,1.43,0,0,0,.61.42c.16.06.62.19,1.4.4A19.2,19.2,0,0,1,55,8.18a2.39,2.39,0,0,1,1,.83,2.31,2.31,0,0,1,.38,1.35A2.62,2.62,0,0,1,56,11.85a2.93,2.93,0,0,1-1.33,1.08,4.78,4.78,0,0,1-2,.39,4.39,4.39,0,0,1-2.77-.76A3.46,3.46,0,0,1,48.69,10.32Z"/><path class="cls-5" d="M63.25,16.7l-.17-1.49a3.19,3.19,0,0,0,.9.14,1.7,1.7,0,0,0,.84-.17,1.36,1.36,0,0,0,.52-.49,8.33,8.33,0,0,0,.49-1.18c0-.09.07-.22.14-.39L62.43,3.77h1.7l1.94,5.41c.25.68.48,1.4.68,2.16a21,21,0,0,1,.65-2.13l2-5.44H71l-3.55,9.49a18.5,18.5,0,0,1-.89,2.12,3.06,3.06,0,0,1-1,1.15,2.3,2.3,0,0,1-1.3.36A3.18,3.18,0,0,1,63.25,16.7Z"/><path class="cls-5" d="M71.73,8.44A4.81,4.81,0,0,1,73.17,4.6a4.39,4.39,0,0,1,2.94-1,4.21,4.21,0,0,1,3.15,1.26,4.82,4.82,0,0,1,1.22,3.49,6.17,6.17,0,0,1-.54,2.83,3.81,3.81,0,0,1-1.58,1.6,4.46,4.46,0,0,1-2.25.58,4.2,4.2,0,0,1-3.17-1.26A5.06,5.06,0,0,1,71.73,8.44Zm1.63,0a4,4,0,0,0,.78,2.68,2.61,2.61,0,0,0,3.93,0,4.09,4.09,0,0,0,.78-2.74,3.89,3.89,0,0,0-.78-2.62,2.61,2.61,0,0,0-3.93,0A4,4,0,0,0,73.36,8.44Z"/><path class="cls-5" d="M88.45,13.1V11.73a3.41,3.41,0,0,1-3,1.59A3.76,3.76,0,0,1,84,13a2.53,2.53,0,0,1-1.07-.8A3.11,3.11,0,0,1,82.39,11a8.61,8.61,0,0,1-.09-1.48V3.77h1.58V9a8.7,8.7,0,0,0,.1,1.67,1.68,1.68,0,0,0,.63,1A2,2,0,0,0,85.8,12a2.64,2.64,0,0,0,1.34-.36,2,2,0,0,0,.88-1,4.86,4.86,0,0,0,.26-1.83v-5h1.58V13.1Z"/><path class="cls-5" d="M92.33,13.1V3.77h1.42V5.19a3.71,3.71,0,0,1,1-1.31,1.73,1.73,0,0,1,1-.32,3.1,3.1,0,0,1,1.63.51l-.55,1.47a2.23,2.23,0,0,0-1.16-.35,1.52,1.52,0,0,0-.93.32,1.63,1.63,0,0,0-.59.86,6.36,6.36,0,0,0-.26,1.85V13.1Z"/><path class="cls-5" d="M102.71,10.32l1.56-.25a2.18,2.18,0,0,0,.73,1.44,2.56,2.56,0,0,0,1.69.5,2.44,2.44,0,0,0,1.61-.44,1.29,1.29,0,0,0,.53-1,.94.94,0,0,0-.46-.84,6.63,6.63,0,0,0-1.62-.54,14.53,14.53,0,0,1-2.41-.76A2.32,2.32,0,0,1,103,6.25a2.43,2.43,0,0,1,.28-1.16,2.64,2.64,0,0,1,.78-.88,3.41,3.41,0,0,1,1-.46,4.63,4.63,0,0,1,1.37-.19,5.36,5.36,0,0,1,1.92.32,2.57,2.57,0,0,1,1.23.85,3.44,3.44,0,0,1,.55,1.45l-1.55.21A1.69,1.69,0,0,0,108,5.26a2.3,2.3,0,0,0-1.43-.4,2.6,2.6,0,0,0-1.56.36,1,1,0,0,0-.46.84.88.88,0,0,0,.19.56,1.37,1.37,0,0,0,.61.42c.16.06.62.19,1.4.4a19.82,19.82,0,0,1,2.34.74,2.39,2.39,0,0,1,1,.83,2.31,2.31,0,0,1,.38,1.35,2.7,2.7,0,0,1-.46,1.49,3,3,0,0,1-1.34,1.08,4.73,4.73,0,0,1-2,.39,4.43,4.43,0,0,1-2.78-.76A3.5,3.5,0,0,1,102.71,10.32Z"/><path class="cls-5" d="M118.43,9.69l1.55.2a4.05,4.05,0,0,1-1.3,2.52,3.83,3.83,0,0,1-2.58.91A4,4,0,0,1,113,12.06a5.06,5.06,0,0,1-1.17-3.59,6.34,6.34,0,0,1,.51-2.64,3.42,3.42,0,0,1,1.52-1.7,4.51,4.51,0,0,1,2.23-.57,3.91,3.91,0,0,1,2.49.77,3.58,3.58,0,0,1,1.24,2.18l-1.54.24a2.61,2.61,0,0,0-.78-1.42,2,2,0,0,0-1.35-.47,2.46,2.46,0,0,0-1.94.86,4,4,0,0,0-.75,2.71,4.21,4.21,0,0,0,.72,2.73,2.34,2.34,0,0,0,1.88.85,2.24,2.24,0,0,0,1.56-.57A2.84,2.84,0,0,0,118.43,9.69Z"/><path class="cls-5" d="M121.34,13.1V.22h1.58V4.84a3.55,3.55,0,0,1,2.8-1.28,3.8,3.8,0,0,1,1.8.41,2.38,2.38,0,0,1,1.09,1.13,5.2,5.2,0,0,1,.33,2.09V13.1h-1.58V7.19a2.42,2.42,0,0,0-.52-1.73,1.89,1.89,0,0,0-1.45-.54,2.49,2.49,0,0,0-1.32.37,2,2,0,0,0-.89,1A4.64,4.64,0,0,0,122.92,8v5.1Z"/><path class="cls-5" d="M137.74,10.1l1.63.2a3.88,3.88,0,0,1-1.43,2.22,4.82,4.82,0,0,1-5.92-.47,4.92,4.92,0,0,1-1.2-3.53A5.21,5.21,0,0,1,132,4.86a4.1,4.1,0,0,1,3.15-1.3,4,4,0,0,1,3.06,1.27,5.08,5.08,0,0,1,1.19,3.59c0,.09,0,.23,0,.42h-7a3.62,3.62,0,0,0,.87,2.36,2.6,2.6,0,0,0,1.95.81,2.43,2.43,0,0,0,1.48-.45A3.06,3.06,0,0,0,137.74,10.1Zm-5.2-2.56h5.22a3.19,3.19,0,0,0-.6-1.77,2.61,2.61,0,0,0-3.79-.18A2.92,2.92,0,0,0,132.54,7.54Z"/><path class="cls-5" d="M147.42,13.1V11.93a2.93,2.93,0,0,1-2.61,1.39,3.69,3.69,0,0,1-2.06-.62A4.1,4.1,0,0,1,141.3,11a6,6,0,0,1-.51-2.53,6.64,6.64,0,0,1,.46-2.54,3.64,3.64,0,0,1,1.4-1.74,3.7,3.7,0,0,1,2.08-.61,3.14,3.14,0,0,1,2.58,1.28V.22h1.57V13.1Zm-5-4.65a4.08,4.08,0,0,0,.76,2.68,2.26,2.26,0,0,0,3.55,0,3.94,3.94,0,0,0,.72-2.59,4.31,4.31,0,0,0-.74-2.81,2.27,2.27,0,0,0-1.82-.9,2.2,2.2,0,0,0-1.76.86A4.26,4.26,0,0,0,142.41,8.45Z"/><path class="cls-5" d="M157.49,13.1V11.73a3.42,3.42,0,0,1-3,1.59A3.84,3.84,0,0,1,153,13a2.56,2.56,0,0,1-1.06-.8,3.11,3.11,0,0,1-.49-1.17,8.61,8.61,0,0,1-.09-1.48V3.77h1.58V9a10,10,0,0,0,.09,1.67,1.65,1.65,0,0,0,.64,1,2,2,0,0,0,1.19.35,2.64,2.64,0,0,0,1.34-.36,2.05,2.05,0,0,0,.88-1,5.07,5.07,0,0,0,.26-1.83v-5h1.58V13.1Z"/><path class="cls-5" d="M161.35,13.1V.22h1.58V13.1Z"/><path class="cls-5" d="M171.77,10.1l1.63.2A3.88,3.88,0,0,1,172,12.52a4.82,4.82,0,0,1-5.92-.47,4.92,4.92,0,0,1-1.2-3.53,5.17,5.17,0,0,1,1.22-3.66,4.07,4.07,0,0,1,3.14-1.3,4,4,0,0,1,3.06,1.27,5.08,5.08,0,0,1,1.19,3.59c0,.09,0,.23,0,.42h-7a3.62,3.62,0,0,0,.87,2.36,2.6,2.6,0,0,0,1.95.81,2.43,2.43,0,0,0,1.48-.45A3.06,3.06,0,0,0,171.77,10.1Zm-5.19-2.56h5.21a3.19,3.19,0,0,0-.6-1.77,2.45,2.45,0,0,0-2-.91,2.48,2.48,0,0,0-1.83.73A2.86,2.86,0,0,0,166.58,7.54Z"/><path class="cls-5" d="M180.77,13.1V5h-1.4V3.77h1.4v-1a4.36,4.36,0,0,1,.17-1.4,2.05,2.05,0,0,1,.8-1A2.92,2.92,0,0,1,183.35,0a7.41,7.41,0,0,1,1.48.16l-.24,1.38a5.13,5.13,0,0,0-.93-.09,1.37,1.37,0,0,0-1,.31,1.65,1.65,0,0,0-.3,1.15v.86h1.82V5h-1.82v8.1Z"/><path class="cls-5" d="M184.8,8.44a4.78,4.78,0,0,1,1.45-3.84,4.34,4.34,0,0,1,2.93-1,4.21,4.21,0,0,1,3.15,1.26,4.82,4.82,0,0,1,1.22,3.49,6.17,6.17,0,0,1-.54,2.83,3.84,3.84,0,0,1-1.57,1.6,4.5,4.5,0,0,1-2.26.58A4.2,4.2,0,0,1,186,12.06,5.06,5.06,0,0,1,184.8,8.44Zm1.63,0a4,4,0,0,0,.78,2.68,2.61,2.61,0,0,0,3.93,0,4.09,4.09,0,0,0,.78-2.74,3.89,3.89,0,0,0-.78-2.62,2.61,2.61,0,0,0-3.93,0A4,4,0,0,0,186.43,8.44Z"/><path class="cls-5" d="M195.39,13.1V3.77h1.42V5.19a3.71,3.71,0,0,1,1-1.31,1.73,1.73,0,0,1,1-.32,3.1,3.1,0,0,1,1.63.51l-.55,1.47a2.23,2.23,0,0,0-1.16-.35,1.52,1.52,0,0,0-.93.32,1.69,1.69,0,0,0-.59.86A6.36,6.36,0,0,0,197,8.22V13.1Z"/><path class="cls-5" d="M209.85,11.69l.23,1.4a6.06,6.06,0,0,1-1.19.14,2.74,2.74,0,0,1-1.34-.27,1.54,1.54,0,0,1-.67-.72,5.69,5.69,0,0,1-.19-1.87V5h-1.16V3.77h1.16V1.46l1.57-.95V3.77h1.59V5h-1.59v5.46a2.58,2.58,0,0,0,.09.87.62.62,0,0,0,.27.31,1.09,1.09,0,0,0,.54.11A5.2,5.2,0,0,0,209.85,11.69Z"/><path class="cls-5" d="M211.4,13.1V.22H213V4.84a3.55,3.55,0,0,1,2.8-1.28,3.8,3.8,0,0,1,1.8.41,2.38,2.38,0,0,1,1.09,1.13A5.2,5.2,0,0,1,219,7.19V13.1h-1.58V7.19a2.47,2.47,0,0,0-.51-1.73,1.93,1.93,0,0,0-1.46-.54,2.49,2.49,0,0,0-1.32.37,2,2,0,0,0-.88,1A4.42,4.42,0,0,0,213,8v5.1Z"/><path class="cls-5" d="M227.8,10.1l1.64.2A3.94,3.94,0,0,1,228,12.52a4.82,4.82,0,0,1-5.92-.47,4.92,4.92,0,0,1-1.2-3.53,5.17,5.17,0,0,1,1.22-3.66,4.07,4.07,0,0,1,3.14-1.3,4,4,0,0,1,3.06,1.27,5.08,5.08,0,0,1,1.19,3.59c0,.09,0,.23,0,.42h-7a3.62,3.62,0,0,0,.87,2.36,2.6,2.6,0,0,0,2,.81,2.43,2.43,0,0,0,1.48-.45A3.06,3.06,0,0,0,227.8,10.1Zm-5.19-2.56h5.21a3.19,3.19,0,0,0-.6-1.77,2.45,2.45,0,0,0-2-.91,2.48,2.48,0,0,0-1.83.73A2.86,2.86,0,0,0,222.61,7.54Z"/><path class="cls-5" d="M238.15,13.1l-2.86-9.33h1.63l1.49,5.39.55,2c0-.1.19-.74.49-1.92l1.48-5.47h1.63L244,9.18l.47,1.79.54-1.8,1.6-5.4h1.53l-2.91,9.33h-1.65l-1.48-5.59-.36-1.59L239.8,13.1Z"/><path class="cls-5" d="M255.81,10.1l1.64.2A3.94,3.94,0,0,1,256,12.52a4.82,4.82,0,0,1-5.92-.47,4.92,4.92,0,0,1-1.2-3.53,5.17,5.17,0,0,1,1.22-3.66,4.08,4.08,0,0,1,3.14-1.3,4,4,0,0,1,3.06,1.27,5.08,5.08,0,0,1,1.19,3.59c0,.09,0,.23,0,.42h-7a3.62,3.62,0,0,0,.87,2.36,2.6,2.6,0,0,0,1.95.81,2.46,2.46,0,0,0,1.49-.45A3,3,0,0,0,255.81,10.1Zm-5.19-2.56h5.21a3.19,3.19,0,0,0-.6-1.77,2.45,2.45,0,0,0-2-.91,2.48,2.48,0,0,0-1.83.73A2.86,2.86,0,0,0,250.62,7.54Z"/><path class="cls-5" d="M265.82,10.1l1.64.2A3.94,3.94,0,0,1,266,12.52a4.82,4.82,0,0,1-5.92-.47,4.92,4.92,0,0,1-1.2-3.53,5.17,5.17,0,0,1,1.22-3.66,4.1,4.1,0,0,1,3.14-1.3,4,4,0,0,1,3.06,1.27,5.08,5.08,0,0,1,1.19,3.59c0,.09,0,.23,0,.42h-7a3.62,3.62,0,0,0,.87,2.36,2.6,2.6,0,0,0,1.95.81,2.46,2.46,0,0,0,1.49-.45A3,3,0,0,0,265.82,10.1Zm-5.19-2.56h5.21a3.19,3.19,0,0,0-.6-1.77,2.45,2.45,0,0,0-2-.91,2.5,2.5,0,0,0-1.83.73A2.86,2.86,0,0,0,260.63,7.54Z"/><path class="cls-5" d="M269.45,13.1V.22H271V7.57l3.75-3.8h2.05l-3.57,3.46,3.93,5.87h-2l-3.08-4.77L271,9.4v3.7Z"/><path class="cls-5" d="M278.88,5.57V3.77h1.8v1.8Zm0,7.53V11.3h1.8v1.8Z"/></g></g></svg>