<?xml version="1.0" encoding="UTF-8" standalone="no"?>
<!DOCTYPE svg PUBLIC "-//W3C//DTD SVG 1.1//EN" "http://www.w3.org/Graphics/SVG/1.1/DTD/svg11.dtd">
<svg width="100%" height="100%" viewBox="0 0 1119 717" version="1.1" xmlns="http://www.w3.org/2000/svg" xmlns:xlink="http://www.w3.org/1999/xlink" xml:space="preserve" xmlns:serif="http://www.serif.com/" style="fill-rule:evenodd;clip-rule:evenodd;stroke-linejoin:round;stroke-miterlimit:10;">
    <g id="Layer_2">
        <g>
            <rect x="0" y="0" width="1119.6" height="717.4" style="fill:rgb(242,242,242);"/>
            <g>
                <path d="M686.6,231.8C686.6,231.8 649,115.7 806.5,116.9C806.5,117 807.3,268.1 686.6,231.8Z" style="fill:none;fill-rule:nonzero;stroke:rgb(52,168,83);stroke-width:19px;"/>
                <path d="M686.6,231.8C686.6,231.8 731.5,205.8 755.7,170.9" style="fill:none;fill-rule:nonzero;stroke:rgb(52,168,83);stroke-width:19px;"/>
            </g>
            <g>
                <path d="M679,354.7L679,237.4L724.1,237.4L724.1,354.6L679,354.6L679,354.7Z" style="fill:rgb(52,168,83);fill-rule:nonzero;"/>
                <path d="M724.1,343.8L723.3,470.2C723.3,502.5 713.2,527.7 693,545.7C672.8,563.7 645.6,572.7 611.2,572.7C592.4,572.7 574.8,570.2 558.5,565.1C542.2,560.1 530.5,555 523.4,550L512.8,541.9L540.1,499C542.1,500.7 545.1,502.9 548.9,505.6C552.8,508.3 560.8,511.9 572.9,516.5C585,521 597.1,523.3 609.2,523.3C629.1,523.3 644.4,518.7 655.1,509.4C665.9,500.1 671.2,487.1 671.2,470.3L671.2,451.6" style="fill:rgb(251,188,5);fill-rule:nonzero;"/>
                <path d="M691.3,273.9C713.2,295.9 724.1,322.9 724.1,354.9C724.1,386.9 713.2,413.8 691.3,435.9C669.4,457.9 642.4,468.9 610.1,468.9C577.8,468.9 550.7,457.9 528.9,435.9C507,413.9 496.1,386.9 496.1,354.9C496.1,323 507,296 528.9,273.9C550.8,251.9 577.8,240.9 610.1,240.9C642.4,240.9 669.5,251.9 691.3,273.9ZM565.7,308.2C553.9,320.1 548,335.7 548,354.9C548,374.1 553.9,389.6 565.7,401.6C577.5,413.5 592.3,419.5 610.1,419.5C627.9,419.5 642.7,413.5 654.5,401.6C666.3,389.7 672.2,374.1 672.2,354.9C672.2,335.7 666.3,320.2 654.5,308.2C642.7,296.3 627.9,290.3 610.1,290.3C592.3,290.3 577.5,296.3 565.7,308.2Z" style="fill:rgb(234,67,53);fill-rule:nonzero;"/>
                <path d="M683.9,262.2L664.4,289.5C662.9,288 660.7,286.3 657.8,284.2C654.9,282.1 648.7,279.3 639.4,275.7C630.1,272.1 620.5,270.4 610.7,270.4C587.2,270.4 568,278.4 552.9,294.4C537.8,310.4 530.3,330.8 530.3,355.5C530.3,379.2 537.9,399.1 553.2,415.2C568.5,431.3 588,439.4 611.6,439.4C632.5,439.4 649.7,433.4 663,421.5C676.3,409.6 684.6,393.9 688,374.4L609.8,374.4L609.8,342.4L724.1,342.4C724.5,346.6 724.7,350.8 724.7,355C724.7,388.7 714.2,416.7 693.1,439C672.1,461.3 644.7,472.5 611,472.5C578.1,472.5 550.6,461.3 528.5,438.9C506.4,416.5 495.4,388.7 495.4,355.7C495.4,323 506.3,295.2 528.1,272.1C549.9,249.1 577.5,237.5 611,237.5C619.6,237.5 628,238.3 636.1,240C644.3,241.7 651.1,243.7 656.5,246.1C661.9,248.5 666.9,251 671.3,253.5C675.7,256 678.9,258.1 681,259.8L683.9,262.2Z" style="fill:rgb(66,133,244);fill-rule:nonzero;"/>
            </g>
            <g>
                <ellipse cx="462.8" cy="492.8" rx="59" ry="22" style="fill:none;stroke:rgb(66,133,244);stroke-width:6px;stroke-linejoin:miter;"/>
                <g transform="matrix(0.866,-0.5,0.5,0.866,-184.509,297.101)">
                    <ellipse cx="462.1" cy="492.8" rx="22" ry="59" style="fill:none;stroke:rgb(66,133,244);stroke-width:6px;stroke-linejoin:miter;"/>
                </g>
                <g transform="matrix(0.5,-0.866,0.866,0.5,-195.438,647.19)">
                    <ellipse cx="462.8" cy="492.8" rx="59" ry="22" style="fill:none;stroke:rgb(66,133,244);stroke-width:6px;stroke-linejoin:miter;"/>
                </g>
            </g>
            <path d="M333.7,600.7L800.3,600.7" style="fill:none;fill-rule:nonzero;stroke:rgb(251,188,5);stroke-width:22px;stroke-linejoin:miter;"/>
            <rect x="739.3" y="258.6" width="36" height="318.4" style="fill:rgb(251,188,5);"/>
            <rect x="358.4" y="245.8" width="38.7" height="331.3" style="fill:rgb(251,188,5);"/>
            <path d="M800.3,402.7L927.7,402.7" style="fill:none;fill-rule:nonzero;stroke:rgb(234,67,53);stroke-width:11px;stroke-linejoin:miter;"/>
            <path d="M212.2,508.8L339.5,508.8" style="fill:none;fill-rule:nonzero;stroke:rgb(52,168,83);stroke-width:11px;stroke-linejoin:miter;"/>
            <path d="M-85.6,652.7L41.7,652.7" style="fill:none;fill-rule:nonzero;stroke:rgb(52,168,83);stroke-width:11px;stroke-linejoin:miter;"/>
            <path d="M643,682.8L770.3,682.8" style="fill:none;fill-rule:nonzero;stroke:rgb(66,133,244);stroke-width:11px;stroke-linejoin:miter;"/>
            <path d="M485.8,682.8L613.2,682.8" style="fill:none;fill-rule:nonzero;stroke:rgb(66,133,244);stroke-width:11px;stroke-linejoin:miter;"/>
            <g transform="matrix(1,0,0,1,51.7797,-29.4402)">
                <path d="M-83,248.9L44.4,248.9" style="fill:none;fill-rule:nonzero;stroke:rgb(251,188,5);stroke-width:11px;stroke-linejoin:miter;"/>
            </g>
            <path d="M1091.8,673.3L1219.1,673.3" style="fill:none;fill-rule:nonzero;stroke:rgb(234,67,53);stroke-width:11px;stroke-linejoin:miter;"/>
            <path d="M1011,481.9L1011,591.3" style="fill:none;fill-rule:nonzero;stroke:rgb(234,67,53);stroke-width:11px;stroke-linejoin:miter;"/>
            <path d="M658.5,38.5L658.5,147.8" style="fill:none;fill-rule:nonzero;stroke:rgb(66,133,244);stroke-width:11px;stroke-linejoin:miter;"/>
            <g transform="matrix(1,0,0,1,51.7797,-29.4402)">
                <path d="M270.3,201.4L270.3,310.7" style="fill:none;fill-rule:nonzero;stroke:rgb(251,188,5);stroke-width:11px;stroke-linejoin:miter;"/>
            </g>
            <path d="M1193.1,342.8L1083.8,342.8" style="fill:none;fill-rule:nonzero;stroke:rgb(52,168,83);stroke-width:11px;stroke-linejoin:miter;"/>
            <path d="M949.3,402.7C983.4,402.7 1011.1,430.4 1011.1,464.5" style="fill:none;fill-rule:nonzero;stroke:rgb(234,67,53);stroke-width:11px;stroke-linejoin:miter;"/>
            <g transform="matrix(1,0,0,1,51.7797,-29.4402)">
                <path d="M346.1,116.9C380.2,116.9 407.9,144.6 407.9,178.7" style="fill:none;fill-rule:nonzero;stroke:rgb(251,188,5);stroke-width:11px;stroke-linejoin:miter;"/>
            </g>
            <path d="M943.2,196.9C977.3,196.9 1005,224.6 1005,258.7" style="fill:none;fill-rule:nonzero;stroke:rgb(52,168,83);stroke-width:11px;stroke-linejoin:miter;"/>
            <g transform="matrix(1,0,0,1,51.7797,-29.4402)">
                <path d="M69.1,248.9C103.2,248.9 130.9,276.6 130.9,310.7" style="fill:none;fill-rule:nonzero;stroke:rgb(251,188,5);stroke-width:11px;stroke-linejoin:miter;"/>
            </g>
            <g transform="matrix(1,0,0,1,51.7797,-29.4402)">
                <path d="M270.3,178.7C270.3,144.6 298,116.9 332.1,116.9" style="fill:none;fill-rule:nonzero;stroke:rgb(251,188,5);stroke-width:11px;stroke-linejoin:miter;"/>
            </g>
            <path d="M125.3,570.5C125.3,536.4 153,508.7 187.1,508.7" style="fill:none;fill-rule:nonzero;stroke:rgb(52,168,83);stroke-width:11px;stroke-linejoin:miter;"/>
            <path d="M864,258.6C864,224.5 891.7,196.8 925.8,196.8" style="fill:none;fill-rule:nonzero;stroke:rgb(52,168,83);stroke-width:11px;stroke-linejoin:miter;"/>
            <g transform="matrix(1,0,0,1,1.82151,6)">
                <path d="M656.7,24.9C656.7,-9.2 684.4,-36.9 718.5,-36.9" style="fill:none;fill-rule:nonzero;stroke:rgb(66,133,244);stroke-width:11px;stroke-linejoin:miter;"/>
            </g>
            <path d="M401,744.6C401,710.5 428.7,682.8 462.8,682.8" style="fill:none;fill-rule:nonzero;stroke:rgb(66,133,244);stroke-width:11px;stroke-linejoin:miter;"/>
            <path d="M798.5,542.1C832.6,542.1 860.3,569.8 860.3,603.9" style="fill:none;fill-rule:nonzero;stroke:rgb(66,133,244);stroke-width:11px;stroke-linejoin:miter;"/>
            <path d="M860.3,621.8C860.3,655.9 832.6,683.6 798.5,683.6" style="fill:none;fill-rule:nonzero;stroke:rgb(66,133,244);stroke-width:11px;stroke-linejoin:miter;"/>
            <g transform="matrix(1,0,0,1,51.7797,-29.4402)">
                <path d="M192.6,395.1C158.5,395.1 130.8,367.4 130.8,333.3" style="fill:none;fill-rule:nonzero;stroke:rgb(251,188,5);stroke-width:11px;stroke-linejoin:miter;"/>
            </g>
            <path d="M1066.7,342.7C1032.6,342.7 1004.9,315 1004.9,280.9" style="fill:none;fill-rule:nonzero;stroke:rgb(52,168,83);stroke-width:11px;stroke-linejoin:miter;"/>
            <g transform="matrix(1,0,0,1,51.7797,-29.4402)">
                <path d="M268.4,333.4C268.4,367.5 240.7,395.2 206.6,395.2" style="fill:none;fill-rule:nonzero;stroke:rgb(251,188,5);stroke-width:11px;stroke-linejoin:miter;"/>
            </g>
            <path d="M125.3,590.9C125.3,625 97.6,652.7 63.5,652.7" style="fill:none;fill-rule:nonzero;stroke:rgb(52,168,83);stroke-width:11px;stroke-linejoin:miter;"/>
            <path d="M862.1,279.8C862.1,313.9 834.4,341.6 800.3,341.6" style="fill:none;fill-rule:nonzero;stroke:rgb(52,168,83);stroke-width:11px;stroke-linejoin:miter;"/>
            <path d="M1074,673.3C1039.9,673.3 1012.2,645.6 1012.2,611.5" style="fill:none;fill-rule:nonzero;stroke:rgb(234,67,53);stroke-width:11px;stroke-linejoin:miter;"/>
            <g>
                <g>
                    <path d="M444.2,414.1L444.2,310.9" style="fill:none;fill-rule:nonzero;stroke:rgb(234,67,53);stroke-width:18px;stroke-linejoin:miter;"/>
                    <g>
                        <path d="M474.8,346.8L444.2,316.2L413.7,346.8L413.7,320.9L444.2,290.3L474.8,320.9L474.8,346.8Z" style="fill:rgb(234,67,53);fill-rule:nonzero;"/>
                    </g>
                </g>
            </g>
            <g>
                <clipPath id="_clip1">
                    <path d="M664.1,172.6C661.5,179.3 654.9,200.8 662.6,228.4C663,229.7 662,231.1 660.6,231.1L543.5,231.8L385.9,233.4L331.6,233.4L331.6,217L571.4,129.6L662.8,169.4C664,170 664.6,171.4 664.1,172.6Z"/>
                </clipPath>
                <g clip-path="url(#_clip1)">
                    <path d="M346.8,231.8L792.8,231.8C796.3,231.8 797.5,228.1 794.4,226.8L573.3,130.5C572.3,130.1 571,130.1 570,130.5L345,226.8C342.1,228.1 343.3,231.8 346.8,231.8Z" style="fill:rgb(251,188,5);fill-rule:nonzero;"/>
                </g>
            </g>
        </g>
        <g>
            <path d="M189,537.1C189,539.6 188.3,541.6 186.8,543.1C185.1,544.9 182.9,545.8 180.2,545.8C177.6,545.8 175.4,544.9 173.6,543.1C171.8,541.3 170.9,539.1 170.9,536.4C170.9,533.8 171.8,531.5 173.6,529.7C175.4,527.9 177.6,527 180.2,527C181.5,527 182.8,527.2 183.9,527.7C185.1,528.2 186,528.8 186.8,529.7L185.1,531.4C184.5,530.7 183.8,530.2 183,529.8C182.1,529.4 181.2,529.2 180.2,529.2C178.2,529.2 176.6,529.9 175.2,531.2C173.9,532.6 173.2,534.3 173.2,536.4C173.2,538.5 173.9,540.2 175.2,541.6C176.6,543 178.2,543.6 180.2,543.6C182,543.6 183.5,543.1 184.7,542.1C185.9,541.1 186.6,539.7 186.8,538L180.3,538L180.3,535.8L189,535.8C188.9,536.2 189,536.6 189,537.1Z" style="fill:rgb(128,128,128);fill-rule:nonzero;"/>
            <path d="M191.1,539.2C191.1,537.3 191.7,535.7 192.9,534.5C194.1,533.3 195.6,532.6 197.5,532.6C199.3,532.6 200.8,533.2 202,534.5C203.2,535.7 203.8,537.3 203.8,539.2C203.8,541.1 203.2,542.7 202,543.9C200.8,545.1 199.3,545.8 197.5,545.8C195.7,545.8 194.2,545.2 192.9,543.9C191.7,542.6 191.1,541.1 191.1,539.2ZM193.4,539.2C193.4,540.5 193.8,541.6 194.6,542.4C195.4,543.2 196.3,543.6 197.5,543.6C198.6,543.6 199.6,543.2 200.4,542.4C201.2,541.6 201.6,540.5 201.6,539.2C201.6,537.9 201.2,536.8 200.4,536C199.6,535.2 198.7,534.7 197.5,534.7C196.4,534.7 195.4,535.1 194.6,536C193.8,536.8 193.4,537.9 193.4,539.2Z" style="fill:rgb(128,128,128);fill-rule:nonzero;"/>
            <path d="M211.8,551.2C211.1,551.2 210.5,551.1 209.9,550.9C209.3,550.7 208.7,550.5 208.3,550.2C207.8,549.9 207.4,549.5 207,549.1C206.6,548.7 206.4,548.2 206.2,547.6L208.4,546.7C208.7,547.4 209.1,548 209.7,548.4C210.3,548.8 211,549.1 211.9,549.1C213.2,549.1 214.1,548.7 214.8,548C215.5,547.2 215.9,546.2 215.9,544.9L215.9,543.7L215.8,543.7C215.4,544.4 214.8,544.9 214,545.2C213.3,545.6 212.4,545.8 211.6,545.8C210,545.8 208.6,545.2 207.5,543.9C206.4,542.6 205.8,541.1 205.8,539.2C205.8,537.3 206.4,535.8 207.5,534.5C208.7,533.2 210,532.6 211.6,532.6C212.5,532.6 213.3,532.8 214,533.2C214.7,533.6 215.3,534.1 215.8,534.7L215.9,534.7L215.9,533L218.1,533L218.1,544.8C218.1,546.8 217.5,548.3 216.4,549.5C215.2,550.6 213.7,551.2 211.8,551.2ZM211.9,543.6C213,543.6 214,543.2 214.7,542.4C215.5,541.6 215.8,540.5 215.8,539.2C215.8,537.9 215.4,536.8 214.7,536C214,535.2 213,534.7 211.9,534.7C210.8,534.7 209.9,535.1 209.1,536C208.3,536.8 208,537.9 208,539.2C208,540.5 208.4,541.6 209.1,542.4C209.8,543.2 210.8,543.6 211.9,543.6Z" style="fill:rgb(128,128,128);fill-rule:nonzero;"/>
            <rect x="221.3" y="527.3" width="2.3" height="18" style="fill:rgb(128,128,128);fill-rule:nonzero;"/>
            <path d="M232.4,545.8C230.6,545.8 229.1,545.2 227.9,543.9C226.7,542.7 226.1,541.1 226.1,539.2C226.1,537.3 226.7,535.8 227.8,534.5C228.9,533.3 230.4,532.6 232.2,532.6C234,532.6 235.5,533.2 236.6,534.4C237.7,535.6 238.2,537.2 238.2,539.4L238.2,539.7L228.5,539.7C228.5,540.9 228.9,541.9 229.7,542.6C230.5,543.3 231.4,543.7 232.5,543.7C234,543.7 235.1,543 236,541.5L238.1,542.5C237.5,543.5 236.8,544.4 235.8,544.9C234.8,545.4 233.6,545.8 232.4,545.8ZM228.7,537.7L235.8,537.7C235.7,536.8 235.4,536.1 234.8,535.6C234.2,535 233.3,534.8 232.3,534.8C231.4,534.8 230.7,535.1 230,535.6C229.3,536.1 228.9,536.8 228.7,537.7Z" style="fill:rgb(128,128,128);fill-rule:nonzero;"/>
            <path d="M264.1,537.1C264.1,539.6 263.4,541.6 261.9,543.1C260.2,544.9 258,545.8 255.3,545.8C252.7,545.8 250.5,544.9 248.7,543.1C246.9,541.3 246,539.1 246,536.4C246,533.8 246.9,531.5 248.7,529.7C250.5,527.9 252.7,527 255.3,527C256.6,527 257.9,527.2 259,527.7C260.2,528.2 261.1,528.8 261.9,529.7L260.2,531.4C259.6,530.7 258.9,530.2 258.1,529.8C257.2,529.4 256.3,529.2 255.3,529.2C253.3,529.2 251.7,529.9 250.3,531.2C249,532.6 248.3,534.3 248.3,536.4C248.3,538.5 249,540.2 250.3,541.6C251.7,543 253.3,543.6 255.3,543.6C257.1,543.6 258.6,543.1 259.8,542.1C261,541.1 261.7,539.7 261.9,538L255.4,538L255.4,535.8L264.1,535.8C264,536.2 264.1,536.6 264.1,537.1Z" style="fill:rgb(52,168,83);fill-rule:nonzero;"/>
            <path d="M268.8,545.3L266.5,545.3L266.5,533L268.7,533L268.7,535L268.8,535C269,534.3 269.5,533.8 270.2,533.3C270.9,532.8 271.6,532.6 272.3,532.6C273,532.6 273.5,532.7 274,532.9L273.3,535.1C273,535 272.6,534.9 271.9,534.9C271,534.9 270.3,535.3 269.6,536C269,536.7 268.6,537.5 268.6,538.5L268.6,545.3L268.8,545.3Z" style="fill:rgb(52,168,83);fill-rule:nonzero;"/>
            <path d="M280.9,545.8C279.1,545.8 277.6,545.2 276.4,543.9C275.2,542.7 274.6,541.1 274.6,539.2C274.6,537.3 275.2,535.8 276.3,534.5C277.4,533.3 278.9,532.6 280.7,532.6C282.5,532.6 284,533.2 285.1,534.4C286.2,535.6 286.7,537.2 286.7,539.4L286.7,539.7L277,539.7C277,540.9 277.4,541.9 278.2,542.6C279,543.3 279.9,543.7 281,543.7C282.5,543.7 283.6,543 284.5,541.5L286.6,542.5C286,543.5 285.3,544.4 284.3,544.9C283.3,545.4 282.1,545.8 280.9,545.8ZM277.2,537.7L284.3,537.7C284.2,536.8 283.9,536.1 283.3,535.6C282.7,535 281.8,534.8 280.8,534.8C279.9,534.8 279.2,535.1 278.5,535.6C277.8,536.1 277.4,536.8 277.2,537.7Z" style="fill:rgb(52,168,83);fill-rule:nonzero;"/>
            <path d="M295,545.8C293.2,545.8 291.7,545.2 290.5,543.9C289.3,542.7 288.7,541.1 288.7,539.2C288.7,537.3 289.3,535.8 290.4,534.5C291.5,533.3 293,532.6 294.8,532.6C296.6,532.6 298.1,533.2 299.2,534.4C300.3,535.6 300.8,537.2 300.8,539.4L300.8,539.7L291.1,539.7C291.1,540.9 291.5,541.9 292.3,542.6C293.1,543.3 294,543.7 295.1,543.7C296.6,543.7 297.7,543 298.6,541.5L300.7,542.5C300.1,543.5 299.4,544.4 298.4,544.9C297.4,545.4 296.2,545.8 295,545.8ZM291.3,537.7L298.4,537.7C298.3,536.8 298,536.1 297.4,535.6C296.8,535 295.9,534.8 294.9,534.8C294,534.8 293.3,535.1 292.6,535.6C291.9,536.1 291.5,536.8 291.3,537.7Z" style="fill:rgb(52,168,83);fill-rule:nonzero;"/>
            <path d="M303.4,533L305.6,533L305.6,534.7L305.7,534.7C306.1,534.1 306.6,533.6 307.3,533.2C308,532.8 308.8,532.6 309.6,532.6C311.1,532.6 312.3,533 313.1,533.9C313.9,534.8 314.3,536 314.3,537.6L314.3,545.3L312,545.3L312,537.7C312,535.7 310.9,534.7 309,534.7C308.1,534.7 307.3,535.1 306.7,535.8C306.1,536.5 305.8,537.4 305.8,538.5L305.8,545.3L303.5,545.3L303.5,533L303.4,533Z" style="fill:rgb(52,168,83);fill-rule:nonzero;"/>
        </g>
        <g>
            <path d="M836.7,437.2C836.7,439.7 836,441.7 834.5,443.2C832.8,445 830.6,445.9 827.9,445.9C825.3,445.9 823.1,445 821.3,443.2C819.5,441.4 818.6,439.2 818.6,436.5C818.6,433.9 819.5,431.6 821.3,429.8C823.1,428 825.3,427.1 827.9,427.1C829.2,427.1 830.5,427.3 831.6,427.8C832.8,428.3 833.7,428.9 834.5,429.8L832.8,431.5C832.2,430.8 831.5,430.3 830.7,429.9C829.8,429.5 828.9,429.3 827.9,429.3C825.9,429.3 824.3,430 822.9,431.3C821.6,432.7 820.9,434.4 820.9,436.5C820.9,438.6 821.6,440.3 822.9,441.7C824.3,443.1 825.9,443.7 827.9,443.7C829.7,443.7 831.2,443.2 832.4,442.2C833.6,441.2 834.3,439.8 834.5,438.1L828,438.1L828,435.9L836.7,435.9L836.7,437.2Z" style="fill:rgb(128,128,128);fill-rule:nonzero;"/>
            <path d="M838.8,439.3C838.8,437.4 839.4,435.8 840.6,434.6C841.8,433.4 843.3,432.7 845.2,432.7C847,432.7 848.5,433.3 849.7,434.6C850.9,435.8 851.5,437.4 851.5,439.3C851.5,441.2 850.9,442.8 849.7,444C848.5,445.2 847,445.9 845.2,445.9C843.4,445.9 841.9,445.3 840.6,444C839.4,442.8 838.8,441.2 838.8,439.3ZM841.1,439.3C841.1,440.6 841.5,441.7 842.3,442.5C843.1,443.3 844,443.7 845.2,443.7C846.3,443.7 847.3,443.3 848.1,442.5C848.9,441.7 849.3,440.6 849.3,439.3C849.3,438 848.9,436.9 848.1,436.1C847.3,435.3 846.4,434.8 845.2,434.8C844.1,434.8 843.1,435.2 842.3,436.1C841.5,437 841.1,438 841.1,439.3Z" style="fill:rgb(128,128,128);fill-rule:nonzero;"/>
            <path d="M859.5,451.3C858.8,451.3 858.2,451.2 857.6,451C857,450.8 856.4,450.6 856,450.3C855.5,450 855.1,449.6 854.7,449.2C854.3,448.8 854.1,448.3 853.9,447.7L856.1,446.8C856.4,447.5 856.8,448.1 857.4,448.5C858,448.9 858.7,449.2 859.6,449.2C860.9,449.2 861.8,448.8 862.5,448.1C863.2,447.3 863.6,446.3 863.6,445L863.6,443.8L863.5,443.8C863.1,444.5 862.5,445 861.7,445.3C861,445.7 860.1,445.9 859.3,445.9C857.7,445.9 856.3,445.3 855.2,444C854.1,442.7 853.5,441.2 853.5,439.3C853.5,437.4 854.1,435.9 855.2,434.6C856.4,433.3 857.7,432.7 859.3,432.7C860.2,432.7 861,432.9 861.7,433.3C862.4,433.7 863,434.2 863.5,434.8L863.6,434.8L863.6,433.1L865.8,433.1L865.8,445C865.8,447 865.2,448.5 864.1,449.7C862.9,450.8 861.4,451.3 859.5,451.3ZM859.6,443.8C860.7,443.8 861.7,443.4 862.4,442.6C863.2,441.8 863.5,440.7 863.5,439.4C863.5,438.1 863.1,437 862.4,436.2C861.7,435.4 860.7,434.9 859.6,434.9C858.5,434.9 857.6,435.3 856.8,436.2C856,437 855.7,438.1 855.7,439.4C855.7,440.7 856.1,441.8 856.8,442.6C857.6,443.4 858.5,443.8 859.6,443.8Z" style="fill:rgb(128,128,128);fill-rule:nonzero;"/>
            <rect x="869.1" y="427.5" width="2.3" height="18" style="fill:rgb(128,128,128);fill-rule:nonzero;"/>
            <path d="M880.1,445.9C878.3,445.9 876.8,445.3 875.6,444C874.4,442.7 873.8,441.2 873.8,439.3C873.8,437.4 874.4,435.9 875.5,434.6C876.6,433.4 878.1,432.7 879.9,432.7C881.7,432.7 883.2,433.3 884.3,434.5C885.4,435.7 885.9,437.3 885.9,439.5L885.9,439.8L876.2,439.8C876.2,441 876.6,442 877.4,442.7C878.2,443.4 879.1,443.8 880.2,443.8C881.7,443.8 882.8,443.1 883.7,441.6L885.8,442.6C885.2,443.6 884.5,444.5 883.5,445C882.5,445.5 881.3,445.9 880.1,445.9ZM876.4,437.9L883.5,437.9C883.4,437 883.1,436.3 882.5,435.8C881.9,435.2 881,435 880,435C879.1,435 878.4,435.3 877.7,435.8C877,436.2 876.6,437 876.4,437.9Z" style="fill:rgb(128,128,128);fill-rule:nonzero;"/>
            <path d="M905.3,440.7C905.3,442.3 904.7,443.5 903.6,444.5C902.4,445.4 901,445.9 899.3,445.9C897.8,445.9 896.5,445.5 895.4,444.6C894.3,443.7 893.5,442.5 893,441L895.2,440.1C895.4,440.6 895.6,441.1 895.8,441.6C896.1,442 896.4,442.4 896.7,442.7C897.1,443 897.5,443.3 897.9,443.4C898.3,443.6 898.8,443.7 899.3,443.7C900.4,443.7 901.2,443.4 901.9,442.9C902.6,442.4 902.9,441.6 902.9,440.7C902.9,439.9 902.6,439.3 902.1,438.8C901.6,438.3 900.6,437.8 899.2,437.3C897.8,436.8 896.9,436.4 896.5,436.2C894.6,435.2 893.6,433.8 893.6,431.9C893.6,430.6 894.1,429.4 895.2,428.5C896.3,427.6 897.6,427.1 899.1,427.1C900.5,427.1 901.7,427.5 902.7,428.2C903.7,428.9 904.4,429.8 904.7,430.8L902.5,431.7C902.3,431 901.9,430.5 901.3,430C900.7,429.6 900,429.3 899.1,429.3C898.2,429.3 897.4,429.6 896.8,430.1C896.2,430.6 895.9,431.2 895.9,431.9C895.9,432.5 896.1,433.1 896.6,433.5C897.1,434 898.3,434.5 900.1,435.1C901.9,435.7 903.2,436.5 904,437.4C904.8,438.3 905.3,439.4 905.3,440.7Z" style="fill:rgb(234,67,53);fill-rule:nonzero;"/>
            <path d="M912.5,445.7C911.5,445.7 910.7,445.4 910,444.8C909.3,444.2 909,443.3 909,442.2L909,435.3L906.8,435.3L906.8,433.2L909,433.2L909,429.4L911.3,429.4L911.3,433.2L914.3,433.2L914.3,435.3L911.3,435.3L911.3,441.4C911.3,442.2 911.5,442.8 911.8,443.1C912.1,443.4 912.5,443.5 912.9,443.5C913.1,443.5 913.3,443.5 913.4,443.4C913.5,443.3 913.7,443.3 913.9,443.2L914.6,445.3C914,445.6 913.3,445.7 912.5,445.7Z" style="fill:rgb(234,67,53);fill-rule:nonzero;"/>
            <path d="M916.2,439.3C916.2,437.4 916.8,435.8 918,434.6C919.2,433.4 920.7,432.7 922.6,432.7C924.5,432.7 925.9,433.3 927.1,434.6C928.3,435.8 928.9,437.4 928.9,439.3C928.9,441.2 928.3,442.8 927.1,444C925.9,445.2 924.4,445.9 922.6,445.9C920.8,445.9 919.3,445.3 918,444C916.8,442.8 916.2,441.2 916.2,439.3ZM918.5,439.3C918.5,440.6 918.9,441.7 919.7,442.5C920.5,443.3 921.4,443.7 922.6,443.7C923.7,443.7 924.7,443.3 925.5,442.5C926.3,441.7 926.7,440.6 926.7,439.3C926.7,438 926.3,436.9 925.5,436.1C924.7,435.3 923.8,434.8 922.6,434.8C921.4,434.8 920.5,435.2 919.7,436.1C918.9,437 918.5,438 918.5,439.3Z" style="fill:rgb(234,67,53);fill-rule:nonzero;"/>
            <path d="M937.1,445.9C935.3,445.9 933.8,445.3 932.5,444C931.3,442.7 930.7,441.2 930.7,439.3C930.7,437.4 931.3,435.8 932.5,434.6C933.7,433.4 935.2,432.7 937.1,432.7C938.4,432.7 939.5,433 940.4,433.6C941.3,434.2 942,435.1 942.5,436.2L940.4,437.1C939.7,435.6 938.6,434.8 937,434.8C935.9,434.8 935,435.2 934.3,436.1C933.5,437 933.2,438 933.2,439.3C933.2,440.6 933.6,441.6 934.3,442.5C935.1,443.4 936,443.8 937,443.8C938.7,443.8 939.9,443 940.6,441.5L942.7,442.4C942.2,443.5 941.5,444.4 940.6,445C939.5,445.6 938.4,445.9 937.1,445.9Z" style="fill:rgb(234,67,53);fill-rule:nonzero;"/>
            <path d="M955.9,445.5L953.1,445.5L949.3,439.7L947.4,441.6L947.4,445.5L945.1,445.5L945.1,427.5L947.4,427.5L947.4,438.6L952.7,433.2L955.7,433.2L955.7,433.3L950.9,438.1L955.9,445.4L955.9,445.5Z" style="fill:rgb(234,67,53);fill-rule:nonzero;"/>
            <path d="M966.9,442.1C966.9,443.2 966.4,444.1 965.5,444.8C964.6,445.5 963.4,445.9 962,445.9C960.8,445.9 959.7,445.6 958.7,444.9C957.8,444.3 957.1,443.4 956.7,442.3L958.8,441.4C959.1,442.1 959.5,442.7 960.1,443.1C960.7,443.5 961.3,443.7 962,443.7C962.7,443.7 963.4,443.5 963.8,443.2C964.2,442.9 964.5,442.5 964.5,442.1C964.5,441.3 963.9,440.7 962.7,440.4L960.6,439.9C958.2,439.3 957,438.1 957,436.4C957,435.3 957.5,434.4 958.4,433.7C959.3,433 960.5,432.7 961.9,432.7C963,432.7 964,433 964.9,433.5C965.8,434 966.4,434.7 966.7,435.6L964.6,436.5C964.4,436 964,435.6 963.5,435.3C963,435 962.4,434.9 961.7,434.9C961.1,434.9 960.6,435.1 960.1,435.4C959.6,435.7 959.4,436.1 959.4,436.5C959.4,437.2 960.1,437.7 961.4,438L963.3,438.5C965.7,439 966.9,440.2 966.9,442.1Z" style="fill:rgb(234,67,53);fill-rule:nonzero;"/>
        </g>
        <g transform="matrix(0.930033,0.367476,-0.367476,0.930033,-320.494,-121.036)">
            <path d="M445,157.1C445.9,159.4 445.9,161.6 445.1,163.5C444.2,165.8 442.4,167.4 439.9,168.4C437.5,169.3 435.1,169.3 432.7,168.3C430.4,167.3 428.7,165.5 427.8,163C426.8,160.5 426.9,158.1 427.9,155.8C428.9,153.5 430.7,151.8 433.1,150.9C434.3,150.4 435.6,150.2 436.8,150.2C438.1,150.2 439.2,150.5 440.2,151L439.2,153.1C438.4,152.7 437.6,152.4 436.6,152.4C435.6,152.4 434.7,152.5 433.8,152.9C432,153.6 430.7,154.8 429.9,156.6C429.1,158.4 429.1,160.2 429.9,162.1C430.6,164 431.9,165.4 433.6,166.2C435.4,167 437.1,167 439,166.3C440.7,165.7 441.9,164.6 442.6,163.3C443.3,161.9 443.5,160.4 443,158.7L437,161L436.2,159L444.3,155.9C444.6,156.3 444.8,156.7 445,157.1Z" style="fill:rgb(128,128,128);fill-rule:nonzero;"/>
            <path d="M447.7,158.3C447,156.5 447,154.9 447.7,153.3C448.4,151.7 449.6,150.6 451.3,149.9C453,149.2 454.6,149.3 456.2,150C457.8,150.7 458.9,152 459.6,153.7C460.3,155.5 460.3,157.2 459.6,158.7C458.9,160.3 457.8,161.4 456,162.1C454.3,162.8 452.7,162.7 451.1,162C449.5,161.3 448.4,160.1 447.7,158.3ZM449.9,157.5C450.4,158.7 451.1,159.6 452.1,160.1C453.1,160.6 454.2,160.6 455.2,160.2C456.3,159.8 457,159.1 457.4,158C457.8,157 457.8,155.8 457.3,154.6C456.8,153.4 456.1,152.5 455.1,152C454.1,151.5 453,151.5 452,151.9C451,152.3 450.2,153 449.8,154.1C449.4,155.1 449.4,156.2 449.9,157.5Z" style="fill:rgb(128,128,128);fill-rule:nonzero;"/>
            <path d="M471.4,162C470.8,162.2 470.1,162.4 469.5,162.5C468.9,162.6 468.3,162.5 467.7,162.4C467.1,162.3 466.6,162.1 466.1,161.8C465.6,161.5 465.2,161.2 464.8,160.7L466.5,159.1C467,159.7 467.6,160.1 468.3,160.2C469,160.4 469.8,160.3 470.6,160C471.8,159.5 472.6,158.8 472.9,157.9C473.3,156.9 473.2,155.8 472.8,154.6L472.4,153.5L472.3,153.5C472.1,154.3 471.8,155 471.2,155.6C470.6,156.2 470,156.7 469.1,157C467.6,157.6 466.1,157.5 464.6,156.7C463.1,155.9 462,154.7 461.3,153C460.6,151.3 460.6,149.6 461.2,148C461.8,146.4 462.9,145.3 464.4,144.7C465.2,144.4 466,144.3 466.9,144.4C467.7,144.5 468.5,144.8 469.1,145.2L469.2,145.2L468.6,143.6L470.7,142.8L474.9,153.8C475.6,155.6 475.6,157.3 475,158.7C474.3,160.3 473.1,161.3 471.4,162ZM468.7,154.9C469.8,154.5 470.5,153.8 470.9,152.7C471.3,151.7 471.3,150.5 470.8,149.3C470.3,148.1 469.6,147.2 468.6,146.7C467.6,146.2 466.6,146.1 465.5,146.5C464.5,146.9 463.8,147.6 463.3,148.7C462.9,149.8 462.9,150.9 463.4,152.1C463.9,153.3 464.6,154.2 465.6,154.7C466.7,155.3 467.7,155.3 468.7,154.9Z" style="fill:rgb(128,128,128);fill-rule:nonzero;"/>
            <path d="M473.8,135.5L480.3,152.3L478.1,153.1L471.6,136.3L473.8,135.5Z" style="fill:rgb(128,128,128);fill-rule:nonzero;"/>
            <path d="M488.6,149.5C486.9,150.2 485.3,150.1 483.8,149.4C482.3,148.7 481.1,147.4 480.5,145.6C479.8,143.8 479.8,142.2 480.4,140.6C481,139 482.1,137.9 483.8,137.3C485.5,136.6 487.1,136.7 488.5,137.4C489.9,138.1 491,139.5 491.8,141.4L491.9,141.6L482.9,145.1C483.4,146.2 484.1,147 485.1,147.4C486.1,147.8 487.1,147.8 488.1,147.4C489.5,146.9 490.3,145.8 490.5,144.1L492.8,144.3C492.7,145.5 492.2,146.5 491.5,147.4C490.7,148.4 489.8,149.1 488.6,149.5ZM482.3,143.4L488.9,140.9C488.5,140.1 488,139.6 487.2,139.3C486.4,139 485.5,139 484.5,139.4C483.7,139.7 483.1,140.2 482.7,141C482.2,141.6 482.1,142.5 482.3,143.4Z" style="fill:rgb(128,128,128);fill-rule:nonzero;"/>
            <path d="M515,130C515.9,132.3 515.9,134.5 515.1,136.4C514.2,138.7 512.4,140.3 509.9,141.3C507.5,142.2 505.1,142.2 502.7,141.2C500.4,140.2 498.7,138.4 497.8,135.9C496.8,133.4 496.9,131 497.9,128.7C498.9,126.4 500.7,124.7 503.1,123.8C504.3,123.3 505.6,123.1 506.8,123.1C508.1,123.1 509.2,123.4 510.2,123.9L509.2,126C508.4,125.6 507.6,125.3 506.6,125.3C505.6,125.3 504.7,125.4 503.8,125.8C502,126.5 500.7,127.7 499.9,129.5C499.1,131.3 499.1,133.1 499.9,135C500.6,136.9 501.9,138.3 503.6,139.1C505.4,139.9 507.1,139.9 509,139.2C510.7,138.6 511.9,137.5 512.6,136.2C513.3,134.8 513.5,133.3 513,131.6L506.9,134L506.1,132L514.2,128.9C514.7,129.2 514.9,129.6 515,130Z" style="fill:rgb(251,188,5);fill-rule:nonzero;"/>
            <path d="M517.8,131.3C517.1,129.5 517.1,127.9 517.8,126.3C518.5,124.7 519.7,123.6 521.4,122.9C523.1,122.2 524.7,122.3 526.3,123C527.9,123.7 529,125 529.7,126.7C530.4,128.5 530.4,130.2 529.7,131.7C529,133.3 527.9,134.4 526.1,135.1C524.4,135.8 522.8,135.7 521.2,135C519.6,134.3 518.4,133 517.8,131.3ZM519.9,130.4C520.4,131.6 521.1,132.5 522.1,133C523.1,133.5 524.2,133.5 525.2,133.1C526.2,132.7 527,132 527.4,130.9C527.8,129.9 527.8,128.7 527.3,127.5C526.8,126.3 526.1,125.4 525.1,124.9C524.1,124.4 523,124.4 522,124.8C521,125.2 520.2,125.9 519.8,127C519.4,128.1 519.4,129.2 519.9,130.4Z" style="fill:rgb(251,188,5);fill-rule:nonzero;"/>
            <path d="M539.6,129.4L537.4,130.2L528.3,120.5L530.6,119.6L537.4,127.2L537.4,117L539.7,116.1L539.6,129.4Z" style="fill:rgb(251,188,5);fill-rule:nonzero;"/>
        </g>
        <g>
            <path d="M599.7,653.3C599.7,655.8 599,657.8 597.5,659.3C595.8,661.1 593.6,662 590.9,662C588.3,662 586.1,661.1 584.3,659.3C582.5,657.5 581.6,655.3 581.6,652.6C581.6,650 582.5,647.7 584.3,645.9C586.1,644.1 588.3,643.2 590.9,643.2C592.2,643.2 593.5,643.4 594.6,643.9C595.8,644.4 596.7,645 597.5,645.9L595.8,647.6C595.2,646.9 594.5,646.4 593.7,646C592.8,645.6 591.9,645.4 590.9,645.4C588.9,645.4 587.3,646.1 585.9,647.4C584.6,648.8 583.9,650.5 583.9,652.6C583.9,654.7 584.6,656.4 585.9,657.8C587.3,659.2 588.9,659.8 590.9,659.8C592.7,659.8 594.2,659.3 595.4,658.3C596.6,657.3 597.3,655.9 597.5,654.2L591,654.2L591,652L599.7,652C599.6,652.4 599.7,652.9 599.7,653.3Z" style="fill:rgb(128,128,128);fill-rule:nonzero;"/>
            <path d="M601.8,655.4C601.8,653.5 602.4,651.9 603.6,650.7C604.8,649.5 606.3,648.8 608.1,648.8C609.9,648.8 611.4,649.4 612.6,650.7C613.8,651.9 614.4,653.5 614.4,655.4C614.4,657.3 613.8,658.9 612.6,660.1C611.4,661.3 609.9,662 608.1,662C606.3,662 604.8,661.4 603.6,660.1C602.4,658.9 601.8,657.3 601.8,655.4ZM604.1,655.4C604.1,656.7 604.5,657.8 605.3,658.6C606.1,659.4 607,659.8 608.2,659.8C609.4,659.8 610.3,659.4 611.1,658.6C611.9,657.8 612.3,656.7 612.3,655.4C612.3,654.1 611.9,653 611.1,652.2C610.3,651.4 609.4,650.9 608.2,650.9C607,650.9 606.1,651.3 605.3,652.2C604.5,653.1 604.1,654.1 604.1,655.4Z" style="fill:rgb(128,128,128);fill-rule:nonzero;"/>
            <path d="M622.5,667.4C621.8,667.4 621.2,667.3 620.6,667.1C620,666.9 619.4,666.7 619,666.4C618.5,666.1 618.1,665.7 617.7,665.3C617.3,664.9 617.1,664.4 616.9,663.8L619.1,662.9C619.4,663.6 619.8,664.2 620.4,664.6C621,665 621.7,665.3 622.6,665.3C623.9,665.3 624.8,664.9 625.5,664.2C626.2,663.4 626.6,662.4 626.6,661.1L626.6,659.9L626.5,659.9C626.1,660.6 625.5,661.1 624.7,661.4C624,661.8 623.1,662 622.3,662C620.7,662 619.3,661.4 618.2,660.1C617.1,658.8 616.5,657.3 616.5,655.4C616.5,653.5 617.1,652 618.2,650.7C619.4,649.4 620.7,648.8 622.3,648.8C623.2,648.8 624,649 624.7,649.4C625.4,649.8 626,650.3 626.5,650.9L626.6,650.9L626.6,649.2L628.8,649.2L628.8,661C628.8,663 628.2,664.5 627.1,665.7C625.9,666.9 624.4,667.4 622.5,667.4ZM622.6,659.9C623.7,659.9 624.7,659.5 625.4,658.7C626.2,657.9 626.5,656.8 626.5,655.5C626.5,654.2 626.1,653.1 625.4,652.3C624.7,651.5 623.7,651 622.6,651C621.5,651 620.6,651.4 619.8,652.3C619,653.1 618.7,654.2 618.7,655.5C618.7,656.8 619.1,657.9 619.8,658.7C620.5,659.5 621.5,659.9 622.6,659.9Z" style="fill:rgb(128,128,128);fill-rule:nonzero;"/>
            <rect x="632" y="643.6" width="2.3" height="18" style="fill:rgb(128,128,128);fill-rule:nonzero;"/>
            <path d="M643.1,662C641.3,662 639.8,661.4 638.6,660.1C637.4,658.8 636.8,657.3 636.8,655.4C636.8,653.5 637.4,652 638.5,650.7C639.6,649.5 641.1,648.8 642.9,648.8C644.7,648.8 646.2,649.4 647.3,650.6C648.4,651.8 648.9,653.4 648.9,655.6L648.9,655.9L639.2,655.9C639.2,657.1 639.6,658.1 640.4,658.8C641.2,659.5 642.1,659.9 643.2,659.9C644.7,659.9 645.8,659.2 646.7,657.7L648.8,658.7C648.2,659.7 647.5,660.6 646.5,661.1C645.5,661.6 644.3,662 643.1,662ZM639.4,654L646.5,654C646.4,653.1 646.1,652.4 645.5,651.9C644.9,651.3 644,651.1 643,651.1C642.1,651.1 641.4,651.4 640.7,651.9C640,652.3 639.6,653.1 639.4,654Z" style="fill:rgb(128,128,128);fill-rule:nonzero;"/>
            <path d="M668.3,656.8C668.3,658.4 667.7,659.6 666.6,660.6C665.4,661.5 664,662 662.3,662C660.8,662 659.5,661.6 658.4,660.7C657.3,659.8 656.5,658.6 656,657.1L658.2,656.2C658.4,656.7 658.6,657.2 658.8,657.7C659.1,658.1 659.4,658.5 659.7,658.8C660,659.1 660.5,659.4 660.9,659.5C661.3,659.7 661.8,659.8 662.3,659.8C663.4,659.8 664.2,659.5 664.9,659C665.6,658.5 665.9,657.7 665.9,656.8C665.9,656 665.6,655.4 665.1,654.9C664.6,654.4 663.6,653.9 662.2,653.4C660.8,652.9 659.9,652.5 659.5,652.3C657.6,651.3 656.6,649.9 656.6,648C656.6,646.7 657.1,645.5 658.2,644.6C659.3,643.7 660.6,643.2 662.1,643.2C663.5,643.2 664.7,643.6 665.7,644.3C666.7,645 667.4,645.9 667.7,646.9L665.5,647.8C665.3,647.1 664.9,646.6 664.3,646.1C663.7,645.7 663,645.4 662.1,645.4C661.2,645.4 660.4,645.7 659.8,646.2C659.2,646.7 658.9,647.3 658.9,648C658.9,648.6 659.1,649.2 659.6,649.6C660.1,650.1 661.3,650.6 663.1,651.2C664.9,651.8 666.2,652.6 667,653.5C667.8,654.4 668.3,655.5 668.3,656.8Z" style="fill:rgb(66,133,244);fill-rule:nonzero;"/>
            <path d="M676.8,662C675,662 673.5,661.4 672.3,660.1C671.1,658.8 670.5,657.3 670.5,655.4C670.5,653.5 671.1,651.9 672.3,650.7C673.5,649.5 675,648.8 676.8,648.8C678.1,648.8 679.2,649.1 680.1,649.7C681,650.3 681.7,651.2 682.2,652.3L680.1,653.2C679.4,651.7 678.3,650.9 676.7,650.9C675.6,650.9 674.7,651.3 674,652.2C673.2,653.1 672.9,654.1 672.9,655.4C672.9,656.7 673.3,657.7 674,658.6C674.8,659.5 675.7,659.9 676.7,659.9C678.4,659.9 679.6,659.1 680.3,657.6L682.4,658.5C681.9,659.6 681.2,660.5 680.3,661.1C679.4,661.7 678.1,662 676.8,662Z" style="fill:rgb(66,133,244);fill-rule:nonzero;"/>
            <path d="M687.8,645C687.8,645.5 687.6,645.8 687.3,646.2C687,646.6 686.6,646.7 686.1,646.7C685.6,646.7 685.3,646.5 684.9,646.2C684.6,645.9 684.4,645.5 684.4,645C684.4,644.5 684.6,644.2 684.9,643.8C685.2,643.5 685.6,643.3 686.1,643.3C686.6,643.3 686.9,643.5 687.3,643.8C687.7,644.1 687.8,644.6 687.8,645ZM687.3,649.3L687.3,661.6L685,661.6L685,649.3L687.3,649.3Z" style="fill:rgb(66,133,244);fill-rule:nonzero;"/>
            <path d="M696.3,662C694.5,662 693,661.4 691.8,660.1C690.6,658.9 690,657.3 690,655.4C690,653.5 690.6,652 691.7,650.7C692.8,649.5 694.3,648.8 696.1,648.8C697.9,648.8 699.4,649.4 700.5,650.6C701.6,651.8 702.1,653.4 702.1,655.6L702.1,655.9L692.4,655.9C692.4,657.1 692.8,658.1 693.6,658.8C694.4,659.5 695.3,659.9 696.4,659.9C697.9,659.9 699,659.2 699.9,657.7L702,658.7C701.4,659.7 700.7,660.6 699.7,661.1C698.7,661.6 697.5,662 696.3,662ZM692.6,654L699.7,654C699.6,653.1 699.3,652.4 698.7,651.9C698.1,651.3 697.2,651.1 696.2,651.1C695.3,651.1 694.6,651.4 693.9,651.9C693.2,652.3 692.8,653.1 692.6,654Z" style="fill:rgb(66,133,244);fill-rule:nonzero;"/>
            <path d="M704.7,649.3L706.9,649.3L706.9,651L707,651C707.4,650.4 707.9,649.9 708.6,649.5C709.3,649.1 710.1,648.9 710.9,648.9C712.4,648.9 713.6,649.3 714.4,650.2C715.2,651.1 715.6,652.3 715.6,653.9L715.6,661.6L713.3,661.6L713.3,654C713.3,652 712.2,651 710.3,651C709.4,651 708.6,651.4 708,652.1C707.4,652.8 707.1,653.7 707.1,654.8L707.1,661.6L704.8,661.6L704.8,649.3L704.7,649.3Z" style="fill:rgb(66,133,244);fill-rule:nonzero;"/>
            <path d="M724.5,662C722.7,662 721.2,661.4 720,660.1C718.8,658.8 718.2,657.3 718.2,655.4C718.2,653.5 718.8,651.9 720,650.7C721.2,649.5 722.7,648.8 724.5,648.8C725.8,648.8 726.9,649.1 727.8,649.7C728.7,650.3 729.4,651.2 729.9,652.3L727.8,653.2C727.1,651.7 726,650.9 724.4,650.9C723.3,650.9 722.4,651.3 721.7,652.2C720.9,653.1 720.6,654.1 720.6,655.4C720.6,656.7 721,657.7 721.7,658.6C722.5,659.5 723.4,659.9 724.4,659.9C726.1,659.9 727.3,659.1 728,657.6L730.1,658.5C729.6,659.6 728.9,660.5 728,661.1C726.9,661.7 725.7,662 724.5,662Z" style="fill:rgb(66,133,244);fill-rule:nonzero;"/>
            <path d="M737.9,662C736.1,662 734.6,661.4 733.4,660.1C732.2,658.8 731.6,657.3 731.6,655.4C731.6,653.5 732.2,652 733.3,650.7C734.4,649.5 735.9,648.8 737.7,648.8C739.5,648.8 741,649.4 742.1,650.6C743.2,651.8 743.7,653.4 743.7,655.6L743.7,655.9L734,655.9C734,657.1 734.4,658.1 735.2,658.8C736,659.5 736.9,659.9 738,659.9C739.5,659.9 740.6,659.2 741.5,657.7L743.6,658.7C743,659.7 742.3,660.6 741.3,661.1C740.3,661.6 739.1,662 737.9,662ZM734.2,654L741.3,654C741.2,653.1 740.9,652.4 740.3,651.9C739.7,651.4 738.8,651.1 737.8,651.1C736.9,651.1 736.2,651.4 735.6,651.9C734.8,652.3 734.4,653.1 734.2,654Z" style="fill:rgb(66,133,244);fill-rule:nonzero;"/>
        </g>
    </g>
</svg>
