<svg xmlns="http://www.w3.org/2000/svg" xmlns:xlink="http://www.w3.org/1999/xlink" viewBox="0 0 1920 1051.43"><defs><style>.cls-1,.cls-11,.cls-12,.cls-24{fill:none;}.cls-1,.cls-12,.cls-24{stroke:#4285f4;}.cls-1,.cls-11,.cls-12{stroke-miterlimit:10;}.cls-2{fill:#ff1d25;}.cls-3{fill:#333;}.cls-10,.cls-4{fill:#4285f4;}.cls-5{font-size:20.58px;}.cls-13,.cls-14,.cls-22,.cls-5{fill:#0a0a0a;}.cls-14,.cls-5{font-family:ProductSans-Regular, Product Sans;}.cls-6{letter-spacing:0em;}.cls-7{letter-spacing:0em;}.cls-8{letter-spacing:-0.01em;}.cls-10,.cls-22,.cls-9{font-size:12.96px;font-family:ArialMT, Arial;}.cls-23,.cls-9{fill:#f2f2f2;}.cls-11{stroke:#b3cefb;}.cls-11,.cls-12,.cls-24{stroke-linecap:round;}.cls-11,.cls-12{stroke-width:6px;}.cls-14{font-size:40px;}.cls-15{letter-spacing:0em;}.cls-16{letter-spacing:-0.01em;}.cls-17{letter-spacing:0em;}.cls-18{letter-spacing:0em;}.cls-19{letter-spacing:-0.01em;}.cls-20{fill:#282828;}.cls-21{fill:#4d4d4d;}.cls-24{stroke-linejoin:round;stroke-width:0.5px;}.cls-25{clip-path:url(#clip-path);}</style><clipPath id="clip-path"><rect class="cls-1" x="549.47" y="272.48" width="153.85" height="103.75" rx="12.91"/></clipPath></defs><title>controlpanelsimpldarkerAsset 6</title><g id="Layer_2" data-name="Layer 2"><g id="base"><path class="cls-2" d="M866.05,60.46l-13.32,2.4c-2.38.43-5.64.51-7.62,2.14-4.39,3.61.28,7.58,3.7,9.36,3.94,2,8,4,11.93,5.94,3.32,1.65,7.83,3.07,10.5,5.75,5.71,5.71-.67,9.3-5.61,8.12a22.15,22.15,0,0,1-5.82-2.48,27.37,27.37,0,0,1-9.24-9c-1-1.62-3.64-.12-2.59,1.51,3.91,6,9.78,11,16.85,12.84,5.41,1.41,13-1,11.78-7.88-1.25-7.31-12.21-10.4-17.76-13.17L852,72.62c-.92-.46-3.25-1.05-3.8-2l.4-4,1.09-.23c1.76-1.07,5.56-1,7.61-1.37l9.52-1.72c1.89-.34,1.09-3.23-.8-2.89Z"/><path class="cls-2" d="M876.81,69,883.9,85.7c.76,1.77,3.34.25,2.59-1.51L879.4,67.52c-.75-1.77-3.33-.24-2.59,1.52Z"/><path class="cls-2" d="M874.61,47.55v.51a1.5,1.5,0,1,0,3,0v-.51a1.5,1.5,0,1,0-3,0Z"/><path class="cls-2" d="M899,64.11a69.78,69.78,0,0,0,7.67,23.48c.84,1.57,3.06.44,2.75-1.15A45.67,45.67,0,0,1,913,57.69h-2.59a67.62,67.62,0,0,1,9.88,21c.37,1.33,2.66,1.52,2.89,0L924.78,68c.32-2,1.12-12.85,4.82-9,1.89,2,2.78,8.6,3.59,11.21L937,82.4c.57,1.84,3.47,1.06,2.89-.8-2.14-6.88-4.25-13.77-6.44-20.64-.85-2.65-1.8-6.62-5.2-6.93-2.88-.26-4.36,2.5-5,4.86-1.72,6-2,12.82-3,19h2.89A69.83,69.83,0,0,0,913,56.18a1.52,1.52,0,0,0-2.59,0,49.18,49.18,0,0,0-3.86,31.05l2.74-1.15a67.79,67.79,0,0,1-7.37-22.76c-.27-1.91-3.16-1.1-2.89.79Z"/><path class="cls-2" d="M949.59,56.59a175.83,175.83,0,0,0,15.81,52.35,1.51,1.51,0,0,0,2.79-.75l-2-32.3a66.07,66.07,0,0,1-.35-7.3c.07-1.52.53-5.18,2.07-6l6.68.4,1.47,1.93a15.45,15.45,0,0,1,1.89,8.7c-.29,4-4.6,9.6-9.11,5.62-1.44-1.27-3.57.84-2.12,2.12,4.8,4.24,11.73,1.43,13.68-4.36,2-6-.36-15.61-6.72-18.08-8.13-3.16-11,6.13-10.77,12.3.51,12.33,1.5,24.66,2.25,37l2.8-.76a173.82,173.82,0,0,1-15.51-51.64c-.26-1.9-3.15-1.09-2.89.8Z"/><path class="cls-2" d="M981.18,57.58l6.57,25.26a1.51,1.51,0,0,0,2.9-.8l-6.58-25.26a1.5,1.5,0,0,0-2.89.8Z"/><path class="cls-2" d="M998.13,70.65c5.46-.1,14.06-1.35,14.17-8.55.08-5.72-6.22-8.08-10.07-4.12-8.68,8.93-9.77,34,7.26,33.52,1.93,0,1.93-3,0-3-9.66.26-11.69-10.72-9.72-18,.52-1.93,2-8.89,4-9.55L1008,65a8.05,8.05,0,0,1-4.07,2.17,25.24,25.24,0,0,1-5.76.48c-1.92,0-1.93,3,0,3Z"/><path class="cls-2" d="M1047.51,40.36l14.6,57.11c.48,1.87,3.37,1.08,2.89-.8l-14.6-57.1a1.5,1.5,0,0,0-2.89.79Z"/><path class="cls-2" d="M1076.94,71.08a29,29,0,0,0-4.2,21c.84,4.4,3.83,10.61,9.39,8,10-4.7,8.76-31-5.09-25.34-1.76.73-1,3.63.8,2.9,6.34-2.6,8.6,5.18,7.77,9.79a29.73,29.73,0,0,1-1.46,5c-.19,2.69-1.59,3.64-4.21,2.82q-3.54,1.6-3.79-1.77c-2.22-7.08-.49-14.82,3.38-21,1-1.64-1.57-3.15-2.59-1.51Z"/><path class="cls-2" d="M1099.27,75.17c-3.74,3.74-8.1,8.38-7.32,14.13.57,4.24,3.9,8.25,8.51,7.61,11-1.51,10.4-17.23,3.44-22.75-1.49-1.19-3.63.92-2.12,2.12,4.75,3.77,6.54,12.57.77,16.48-5.09,3.46-8.58-2.13-7.41-6.73.89-3.54,3.76-6.25,6.25-8.74a1.5,1.5,0,0,0-2.12-2.12Z"/><path class="cls-2" d="M1123.85,51.38l9.44,50.12c.26,1.41,2.66,1.46,2.89,0A52.77,52.77,0,0,1,1150,73.06c1-1,0-3.08-1.46-2.51-5.37,2.07-7.77,7.7-6.42,13.23,2.12,8.63,10.92,13.22,15.18,20.57a1.5,1.5,0,0,0,2.59-1.52c-2.45-4.21-5.94-7.37-9.25-10.88-4.18-4.44-10.29-15-1.3-18.5l-1.46-2.51a55.48,55.48,0,0,0-14.63,29.76h2.89l-9.44-50.12c-.35-1.9-3.25-1.09-2.89.8Z"/><rect class="cls-3" width="1920" height="1051.43"/></g><g id="opt1"><rect class="cls-4" x="716.68" y="357.32" width="60.65" height="27.44" rx="2.85"/><rect class="cls-1" x="551.1" y="357.32" width="151.24" height="27.44" rx="2.85"/><text class="cls-5" transform="translate(137.55 337.09)">S<tspan class="cls-6" x="11.38" y="0">e</tspan><tspan class="cls-7" x="22.51" y="0">ct</tspan><tspan class="cls-8" x="40.33" y="0">o</tspan><tspan x="51.65" y="0">r </tspan><tspan class="cls-7" x="63.64" y="0">as</tspan><tspan x="83.3" y="0">p</tspan><tspan class="cls-6" x="95.07" y="0">e</tspan><tspan class="cls-7" x="106.2" y="0">c</tspan><tspan x="116.84" y="0">t</tspan></text><text class="cls-9" transform="translate(730.69 374.37)">apply</text><text class="cls-10" transform="translate(557.84 374.37)">select continent</text><line class="cls-11" x1="158.16" y1="369.65" x2="489.99" y2="369.65"/><line class="cls-12" x1="158.16" y1="369.65" x2="366.96" y2="369.65"/><circle class="cls-4" cx="366.96" cy="369.65" r="10.69"/><path class="cls-13" d="M523.45,374.68V377H518v5.44h-2.28V377h-5.44v-2.28h5.44v-5.44H518v5.44Z"/><path class="cls-13" d="M162.58,377H153v-2.28h9.62Z"/><rect class="cls-4" x="716.68" y="245.04" width="60.65" height="27.44" rx="2.85"/><rect class="cls-1" x="551.1" y="245.04" width="151.24" height="27.44" rx="2.85"/><text class="cls-14" transform="translate(181.87 71.1)">Simu<tspan class="cls-15" x="86.68" y="0">l</tspan><tspan class="cls-16" x="94.64" y="0">a</tspan><tspan class="cls-17" x="114.64" y="0">t</tspan><tspan class="cls-18" x="129" y="0">i</tspan><tspan class="cls-19" x="137.6" y="0">o</tspan><tspan x="159.6" y="0">n p</tspan><tspan class="cls-19" x="212.96" y="0">ort</tspan><tspan x="263.92" y="0">al</tspan></text><text class="cls-5" transform="translate(137.55 224.82)">S<tspan class="cls-6" x="11.38" y="0">e</tspan><tspan class="cls-7" x="22.51" y="0">ct</tspan><tspan class="cls-8" x="40.33" y="0">o</tspan><tspan x="51.65" y="0">r </tspan><tspan class="cls-7" x="63.64" y="0">as</tspan><tspan x="83.3" y="0">p</tspan><tspan class="cls-6" x="95.07" y="0">e</tspan><tspan class="cls-7" x="106.2" y="0">c</tspan><tspan x="116.84" y="0">t</tspan></text><text class="cls-9" transform="translate(730.69 262.1)">apply</text><text class="cls-10" transform="translate(557.84 262.1)">select continent</text><line class="cls-11" x1="158.16" y1="257.38" x2="489.99" y2="257.38"/><line class="cls-12" x1="158.16" y1="257.38" x2="366.96" y2="257.38"/><circle class="cls-4" cx="366.96" cy="257.38" r="10.69"/><path class="cls-13" d="M523.45,264v2.28H518v5.44h-2.28v-5.44h-5.44V264h5.44v-5.44H518V264Z"/><path class="cls-20" d="M147.75,258.54H138v-2.32h9.76Z"/><rect class="cls-4" x="716.68" y="469.59" width="60.65" height="27.44" rx="2.85"/><rect class="cls-1" x="551.1" y="469.59" width="151.24" height="27.44" rx="2.85"/><text class="cls-5" transform="translate(137.55 449.36)">S<tspan class="cls-6" x="11.38" y="0">e</tspan><tspan class="cls-7" x="22.51" y="0">ct</tspan><tspan class="cls-8" x="40.33" y="0">o</tspan><tspan x="51.65" y="0">r </tspan><tspan class="cls-7" x="63.64" y="0">as</tspan><tspan x="83.3" y="0">p</tspan><tspan class="cls-6" x="95.07" y="0">e</tspan><tspan class="cls-7" x="106.2" y="0">c</tspan><tspan x="116.84" y="0">t</tspan></text><text class="cls-9" transform="translate(730.69 486.65)">apply</text><text class="cls-10" transform="translate(557.84 486.65)">select continent</text><line class="cls-11" x1="158.16" y1="481.92" x2="489.99" y2="481.92"/><line class="cls-12" x1="158.16" y1="481.92" x2="366.96" y2="481.92"/><circle class="cls-4" cx="366.96" cy="481.92" r="10.69"/><path class="cls-13" d="M523.45,485.38v2.28H518v5.44h-2.28v-5.44h-5.44v-2.28h5.44v-5.44H518v5.44Z"/><path class="cls-13" d="M162.58,487.66H153v-2.28h9.62Z"/><rect class="cls-4" x="1409.9" y="357.32" width="60.65" height="27.44" rx="2.85"/><rect class="cls-4" x="1409.9" y="469.59" width="60.65" height="27.44" rx="2.85"/><rect class="cls-1" x="1244.32" y="357.32" width="151.24" height="27.44" rx="2.85"/><text class="cls-5" transform="translate(830.77 337.09)">S<tspan class="cls-6" x="11.38" y="0">e</tspan><tspan class="cls-7" x="22.51" y="0">ct</tspan><tspan class="cls-8" x="40.33" y="0">o</tspan><tspan x="51.65" y="0">r </tspan><tspan class="cls-7" x="63.64" y="0">as</tspan><tspan x="83.3" y="0">p</tspan><tspan class="cls-6" x="95.07" y="0">e</tspan><tspan class="cls-7" x="106.2" y="0">c</tspan><tspan x="116.84" y="0">t</tspan></text><text class="cls-9" transform="translate(1423.91 374.37)">apply</text><text class="cls-10" transform="translate(1251.06 374.37)">select continent</text><line class="cls-11" x1="851.37" y1="369.65" x2="1183.2" y2="369.65"/><line class="cls-12" x1="851.37" y1="369.65" x2="1060.18" y2="369.65"/><circle class="cls-4" cx="1060.18" cy="369.65" r="10.69"/><path class="cls-13" d="M1207,374.68V377h-5.44v5.44h-2.28V377h-5.44v-2.28h5.44v-5.44h2.28v5.44Z"/><path class="cls-13" d="M846.09,377h-9.62v-2.28h9.62Z"/><rect class="cls-4" x="1409.9" y="245.04" width="60.65" height="27.44" rx="2.85"/><rect class="cls-1" x="1244.32" y="245.04" width="151.24" height="27.44" rx="2.85"/><text class="cls-5" transform="translate(830.77 224.82)">S<tspan class="cls-6" x="11.38" y="0">e</tspan><tspan class="cls-7" x="22.51" y="0">ct</tspan><tspan class="cls-8" x="40.33" y="0">o</tspan><tspan x="51.65" y="0">r </tspan><tspan class="cls-7" x="63.64" y="0">as</tspan><tspan x="83.3" y="0">p</tspan><tspan class="cls-6" x="95.07" y="0">e</tspan><tspan class="cls-7" x="106.2" y="0">c</tspan><tspan x="116.84" y="0">t</tspan></text><text class="cls-9" transform="translate(1423.91 262.1)">apply</text><text class="cls-10" transform="translate(1251.06 262.1)">select continent</text><rect class="cls-21" x="1528.91" y="152.4" width="353.1" height="792"/><text class="cls-22" transform="translate(1557.25 189.85)">... set to ... - to continent: ... - dd/mm/yyy hh:mm:ss</text><text class="cls-22" transform="translate(1557.25 207.49)">... set to ... - to continent: ... - dd/mm/yyy hh:mm:ss</text><text class="cls-22" transform="translate(1557.25 225.13)">... set to ... - to continent: ... - dd/mm/yyy hh:mm:ss</text><text class="cls-22" transform="translate(1557.25 242.77)">... set to ... - to continent: ... - dd/mm/yyy hh:mm:ss</text><text class="cls-22" transform="translate(1557.25 260.4)">... set to ... - to continent: ... - dd/mm/yyy hh:mm:ss</text><text class="cls-22" transform="translate(1557.25 278.04)">... set to ... - to continent: ... - dd/mm/yyy hh:mm:ss</text><text class="cls-22" transform="translate(1557.25 295.68)">... set to ... - to continent: ... - dd/mm/yyy hh:mm:ss</text><text class="cls-22" transform="translate(1557.25 313.32)">... set to ... - to continent: ... - dd/mm/yyy hh:mm:ss</text><text class="cls-22" transform="translate(1557.25 330.96)">... set to ... - to continent: ... - dd/mm/yyy hh:mm:ss</text><text class="cls-22" transform="translate(1557.25 348.6)">... set to ... - to continent: ... - dd/mm/yyy hh:mm:ss</text><text class="cls-22" transform="translate(1557.25 366.24)">... set to ... - to continent: ... - dd/mm/yyy hh:mm:ss</text><text class="cls-22" transform="translate(1557.25 383.87)">... set to ... - to continent: ... - dd/mm/yyy hh:mm:ss</text><text class="cls-22" transform="translate(1557.25 401.51)">... set to ... - to continent: ... - dd/mm/yyy hh:mm:ss</text><text class="cls-22" transform="translate(1557.25 419.15)">... set to ... - to continent: ... - dd/mm/yyy hh:mm:ss</text><text class="cls-22" transform="translate(1557.25 436.79)">... set to ... - to continent: ... - dd/mm/yyy hh:mm:ss</text><text class="cls-22" transform="translate(1557.25 454.43)">... set to ... - to continent: ... - dd/mm/yyy hh:mm:ss</text><text class="cls-22" transform="translate(1557.25 472.07)">... set to ... - to continent: ... - dd/mm/yyy hh:mm:ss</text><text class="cls-22" transform="translate(1557.25 489.71)">... set to ... - to continent: ... - dd/mm/yyy hh:mm:ss</text><text class="cls-22" transform="translate(1557.25 507.34)">... set to ... - to continent: ... - dd/mm/yyy hh:mm:ss</text><text class="cls-22" transform="translate(1557.25 524.98)">... set to ... - to continent: ... - dd/mm/yyy hh:mm:ss</text><text class="cls-22" transform="translate(1557.25 542.62)">... set to ... - to continent: ... - dd/mm/yyy hh:mm:ss</text><text class="cls-22" transform="translate(1557.25 560.26)">... set to ... - to continent: ... - dd/mm/yyy hh:mm:ss</text><text class="cls-22" transform="translate(1557.25 577.9)">... set to ... - to continent: ... - dd/mm/yyy hh:mm:ss</text><text class="cls-22" transform="translate(1557.25 595.54)">... set to ... - to continent: ... - dd/mm/yyy hh:mm:ss</text><text class="cls-22" transform="translate(1557.25 613.18)">... set to ... - to continent: ... - dd/mm/yyy hh:mm:ss</text><text class="cls-22" transform="translate(1557.25 630.82)">... set to ... - to continent: ... - dd/mm/yyy hh:mm:ss</text><text class="cls-22" transform="translate(1557.25 648.45)">... set to ... - to continent: ... - dd/mm/yyy hh:mm:ss</text><text class="cls-22" transform="translate(1557.25 666.09)">... set to ... - to continent: ... - dd/mm/yyy hh:mm:ss</text><text class="cls-22" transform="translate(1557.25 683.73)">... set to ... - to continent: ... - dd/mm/yyy hh:mm:ss</text><text class="cls-22" transform="translate(1557.25 701.37)">... set to ... - to continent: ... - dd/mm/yyy hh:mm:ss</text><text class="cls-22" transform="translate(1557.25 719.01)">... set to ... - to continent: ... - dd/mm/yyy hh:mm:ss</text><text class="cls-22" transform="translate(1557.25 736.65)">... set to ... - to continent: ... - dd/mm/yyy hh:mm:ss</text><text class="cls-22" transform="translate(1557.25 754.29)">... set to ... - to continent: ... - dd/mm/yyy hh:mm:ss</text><text class="cls-22" transform="translate(1557.25 771.92)">... set to ... - to continent: ... - dd/mm/yyy hh:mm:ss</text><text class="cls-22" transform="translate(1557.25 789.56)">... set to ... - to continent: ... - dd/mm/yyy hh:mm:ss</text><line class="cls-11" x1="851.37" y1="257.38" x2="1183.2" y2="257.38"/><line class="cls-12" x1="851.37" y1="257.38" x2="1060.18" y2="257.38"/><circle class="cls-4" cx="1060.18" cy="257.38" r="10.69"/><path class="cls-13" d="M1207,264v2.28h-5.44v5.44h-2.28v-5.44h-5.44V264h5.44v-5.44h2.28V264Z"/><path class="cls-13" d="M846.09,266.26h-9.62V264h9.62Z"/><rect class="cls-1" x="1244.32" y="469.59" width="151.24" height="27.44" rx="2.85"/><text class="cls-5" transform="translate(830.77 449.36)">S<tspan class="cls-6" x="11.38" y="0">e</tspan><tspan class="cls-7" x="22.51" y="0">ct</tspan><tspan class="cls-8" x="40.33" y="0">o</tspan><tspan x="51.65" y="0">r </tspan><tspan class="cls-7" x="63.64" y="0">as</tspan><tspan x="83.3" y="0">p</tspan><tspan class="cls-6" x="95.07" y="0">e</tspan><tspan class="cls-7" x="106.2" y="0">c</tspan><tspan x="116.84" y="0">t</tspan></text><text class="cls-9" transform="translate(1423.91 486.65)">apply</text><text class="cls-10" transform="translate(1251.06 486.65)">select continent</text><line class="cls-11" x1="851.37" y1="481.92" x2="1183.2" y2="481.92"/><line class="cls-12" x1="851.37" y1="481.92" x2="1060.18" y2="481.92"/><circle class="cls-4" cx="1060.18" cy="481.92" r="10.69"/><path class="cls-13" d="M1207,485.38v2.28h-5.44v5.44h-2.28v-5.44h-5.44v-2.28h5.44v-5.44h2.28v5.44Z"/><path class="cls-13" d="M846.09,487.66h-9.62v-2.28h9.62Z"/><rect class="cls-4" x="1409.9" y="678.92" width="60.65" height="27.44" rx="2.85"/><rect class="cls-4" x="1409.9" y="791.19" width="60.65" height="27.44" rx="2.85"/><rect class="cls-1" x="1244.32" y="678.92" width="151.24" height="27.44" rx="2.85"/><text class="cls-5" transform="translate(830.77 658.7)">S<tspan class="cls-6" x="11.38" y="0">e</tspan><tspan class="cls-7" x="22.51" y="0">ct</tspan><tspan class="cls-8" x="40.33" y="0">o</tspan><tspan x="51.65" y="0">r </tspan><tspan class="cls-7" x="63.64" y="0">as</tspan><tspan x="83.3" y="0">p</tspan><tspan class="cls-6" x="95.07" y="0">e</tspan><tspan class="cls-7" x="106.2" y="0">c</tspan><tspan x="116.84" y="0">t</tspan></text><text class="cls-9" transform="translate(1423.91 695.98)">apply</text><text class="cls-10" transform="translate(1251.06 695.98)">select continent</text><line class="cls-11" x1="851.37" y1="691.26" x2="1183.2" y2="691.26"/><line class="cls-12" x1="851.37" y1="691.26" x2="1060.18" y2="691.26"/><circle class="cls-4" cx="1060.18" cy="691.26" r="10.69"/><path class="cls-13" d="M1207,691.78v2.28h-5.44v5.44h-2.28v-5.44h-5.44v-2.28h5.44v-5.44h2.28v5.44Z"/><path class="cls-13" d="M846.09,694.06h-9.62v-2.28h9.62Z"/><rect class="cls-4" x="1409.9" y="566.65" width="60.65" height="27.44" rx="2.85"/><rect class="cls-1" x="1244.32" y="566.65" width="151.24" height="27.44" rx="2.85"/><text class="cls-5" transform="translate(830.77 546.42)">S<tspan class="cls-6" x="11.38" y="0">e</tspan><tspan class="cls-7" x="22.51" y="0">ct</tspan><tspan class="cls-8" x="40.33" y="0">o</tspan><tspan x="51.65" y="0">r </tspan><tspan class="cls-7" x="63.64" y="0">as</tspan><tspan x="83.3" y="0">p</tspan><tspan class="cls-6" x="95.07" y="0">e</tspan><tspan class="cls-7" x="106.2" y="0">c</tspan><tspan x="116.84" y="0">t</tspan></text><text class="cls-9" transform="translate(1423.91 583.71)">apply</text><text class="cls-10" transform="translate(1251.06 583.71)">select continent</text><line class="cls-11" x1="851.37" y1="578.98" x2="1183.2" y2="578.98"/><line class="cls-12" x1="851.37" y1="578.98" x2="1060.18" y2="578.98"/><circle class="cls-4" cx="1060.18" cy="578.98" r="10.69"/><path class="cls-13" d="M1207,581.08v2.28h-5.44v5.44h-2.28v-5.44h-5.44v-2.28h5.44v-5.44h2.28v5.44Z"/><path class="cls-13" d="M846.09,583.36h-9.62v-2.28h9.62Z"/><rect class="cls-1" x="1244.32" y="791.19" width="151.24" height="27.44" rx="2.85"/><text class="cls-5" transform="translate(830.77 770.97)">S<tspan class="cls-6" x="11.38" y="0">e</tspan><tspan class="cls-7" x="22.51" y="0">ct</tspan><tspan class="cls-8" x="40.33" y="0">o</tspan><tspan x="51.65" y="0">r </tspan><tspan class="cls-7" x="63.64" y="0">as</tspan><tspan x="83.3" y="0">p</tspan><tspan class="cls-6" x="95.07" y="0">e</tspan><tspan class="cls-7" x="106.2" y="0">c</tspan><tspan x="116.84" y="0">t</tspan></text><text class="cls-9" transform="translate(1423.91 808.25)">apply</text><rect class="cls-4" x="1776.24" y="953.77" width="76.21" height="27.44" rx="2.85"/><text class="cls-9" transform="translate(1790.25 970.83)">apply all</text><text class="cls-10" transform="translate(1251.06 808.25)">select continent</text><line class="cls-11" x1="851.37" y1="803.53" x2="1183.2" y2="803.53"/><line class="cls-12" x1="851.37" y1="803.53" x2="1060.18" y2="803.53"/><circle class="cls-4" cx="1060.18" cy="803.53" r="10.69"/><path class="cls-13" d="M1207,802.48v2.28h-5.44v5.44h-2.28v-5.44h-5.44v-2.28h5.44V797h2.28v5.44Z"/><path class="cls-13" d="M846.09,804.76h-9.62v-2.28h9.62Z"/><rect class="cls-4" x="717.25" y="678.92" width="60.65" height="27.44" rx="2.85"/><rect class="cls-4" x="717.25" y="791.19" width="60.65" height="27.44" rx="2.85"/><rect class="cls-1" x="551.68" y="678.92" width="151.24" height="27.44" rx="2.85"/><text class="cls-5" transform="translate(138.13 658.7)">S<tspan class="cls-6" x="11.38" y="0">e</tspan><tspan class="cls-7" x="22.51" y="0">ct</tspan><tspan class="cls-8" x="40.33" y="0">o</tspan><tspan x="51.65" y="0">r </tspan><tspan class="cls-7" x="63.64" y="0">as</tspan><tspan x="83.3" y="0">p</tspan><tspan class="cls-6" x="95.07" y="0">e</tspan><tspan class="cls-7" x="106.2" y="0">c</tspan><tspan x="116.84" y="0">t</tspan></text><text class="cls-9" transform="translate(731.27 695.98)">apply</text><text class="cls-10" transform="translate(558.42 695.98)">select continent</text><line class="cls-11" x1="158.73" y1="691.26" x2="490.56" y2="691.26"/><line class="cls-12" x1="158.73" y1="691.26" x2="367.53" y2="691.26"/><circle class="cls-4" cx="367.53" cy="691.26" r="10.69"/><path class="cls-13" d="M514.32,690.1v2.31H508.8v5.52h-2.31v-5.52H501V690.1h5.52v-5.52h2.31v5.52Z"/><path class="cls-13" d="M148.32,692.41h-9.75V690.1h9.75Z"/><rect class="cls-4" x="717.25" y="566.65" width="60.65" height="27.44" rx="2.85"/><rect class="cls-1" x="551.68" y="566.65" width="151.24" height="27.44" rx="2.85"/><text class="cls-5" transform="translate(138.13 546.42)">S<tspan class="cls-6" x="11.38" y="0">e</tspan><tspan class="cls-7" x="22.51" y="0">ct</tspan><tspan class="cls-8" x="40.33" y="0">o</tspan><tspan x="51.65" y="0">r </tspan><tspan class="cls-7" x="63.64" y="0">as</tspan><tspan x="83.3" y="0">p</tspan><tspan class="cls-6" x="95.07" y="0">e</tspan><tspan class="cls-7" x="106.2" y="0">c</tspan><tspan x="116.84" y="0">t</tspan></text><text class="cls-9" transform="translate(731.27 583.71)">apply</text><text class="cls-10" transform="translate(558.42 583.71)">select continent</text><line class="cls-11" x1="158.73" y1="578.98" x2="490.56" y2="578.98"/><line class="cls-12" x1="158.73" y1="578.98" x2="367.53" y2="578.98"/><circle class="cls-4" cx="367.53" cy="578.98" r="10.69"/><path class="cls-13" d="M524,581.08v2.28h-5.44v5.44H516.3v-5.44h-5.44v-2.28h5.44v-5.44h2.28v5.44Z"/><path class="cls-13" d="M163.15,583.36h-9.62v-2.28h9.62Z"/><rect class="cls-1" x="551.68" y="791.19" width="151.24" height="27.44" rx="2.85"/><text class="cls-5" transform="translate(138.13 770.97)">S<tspan class="cls-6" x="11.38" y="0">e</tspan><tspan class="cls-7" x="22.51" y="0">ct</tspan><tspan class="cls-8" x="40.33" y="0">o</tspan><tspan x="51.65" y="0">r </tspan><tspan class="cls-7" x="63.64" y="0">as</tspan><tspan x="83.3" y="0">p</tspan><tspan class="cls-6" x="95.07" y="0">e</tspan><tspan class="cls-7" x="106.2" y="0">c</tspan><tspan x="116.84" y="0">t</tspan></text><text class="cls-9" transform="translate(731.27 808.25)">apply</text><text class="cls-10" transform="translate(558.42 808.25)">select continent</text><line class="cls-11" x1="158.73" y1="803.53" x2="490.56" y2="803.53"/><line class="cls-12" x1="158.73" y1="803.53" x2="367.53" y2="803.53"/><circle class="cls-4" cx="367.53" cy="803.53" r="10.69"/><path class="cls-13" d="M514.32,802.37v2.32H508.8v5.51h-2.31v-5.51H501v-2.32h5.52v-5.52h2.31v5.52Z"/><path class="cls-13" d="M148.32,804.69h-9.75v-2.32h9.75Z"/></g><g id="popups"><circle class="cls-23" cx="690.3" cy="371.03" r="5.18"/><polyline class="cls-24" points="692.89 372.39 690.26 368.71 687.72 372.39"/><circle class="cls-4" cx="83.11" cy="57.7" r="15.24"/><circle class="cls-23" cx="690.3" cy="258.76" r="5.18"/><polyline class="cls-24" points="692.89 260.12 690.26 256.44 687.72 260.12"/><circle class="cls-23" cx="690.3" cy="483.31" r="5.18"/><polyline class="cls-24" points="687.72 481.95 690.34 485.63 692.89 481.95"/><circle class="cls-23" cx="1383.52" cy="371.03" r="5.18"/><polyline class="cls-24" points="1380.93 369.68 1383.56 373.36 1386.11 369.68"/><circle class="cls-23" cx="1383.52" cy="258.76" r="5.18"/><polyline class="cls-24" points="1380.93 257.4 1383.56 261.08 1386.11 257.4"/><circle class="cls-23" cx="1383.52" cy="483.31" r="5.18"/><polyline class="cls-24" points="1380.93 481.95 1383.56 485.63 1386.11 481.95"/><circle class="cls-23" cx="1383.52" cy="692.64" r="5.18"/><polyline class="cls-24" points="1380.93 691.28 1383.56 694.96 1386.11 691.28"/><circle class="cls-23" cx="1383.52" cy="580.37" r="5.18"/><polyline class="cls-24" points="1380.93 579.01 1383.56 582.69 1386.11 579.01"/><circle class="cls-23" cx="1383.52" cy="804.91" r="5.18"/><polyline class="cls-24" points="1380.93 803.56 1383.56 807.24 1386.11 803.56"/><circle class="cls-23" cx="690.88" cy="692.64" r="5.18"/><polyline class="cls-24" points="688.29 691.28 690.92 694.96 693.47 691.28"/><circle class="cls-23" cx="690.88" cy="580.37" r="5.18"/><polyline class="cls-24" points="688.29 579.01 690.92 582.69 693.47 579.01"/><circle class="cls-23" cx="690.88" cy="804.91" r="5.18"/><polyline class="cls-24" points="688.29 803.56 690.92 807.24 693.47 803.56"/></g><g id="Layer_5" data-name="Layer 5"><g class="cls-25"><image width="996" height="674" transform="translate(548.09 271.33) scale(0.16)" xlink:href="../../../ShareX/Screenshots/2020-06/chrome_2020-06-08_21-50-36.png"/><path class="cls-4" d="M601.89,360l3.44,9.73c.53,1.52,3,1.39,2.95-.39-.08-2.05-.18-4.09-.23-6.13,0-.91.28-2.05.17-2.9-.32-1.17-.46-1.32-.42-.46a1.94,1.94,0,0,1-.66,1.72c-.85-1.74-3.44-.22-2.59,1.51a3,3,0,0,0,5.19.31c1.12-1.42,1.69-4.59.39-6.09-1.59-1.81-3.9-.28-4.58,1.52-1.18,3.15-.4,7.23-.27,10.52l2.94-.4-3.44-9.73c-.64-1.81-3.53-1-2.89.79Z"/><path class="cls-4" d="M607.52,357.33a60,60,0,0,0,2,7.83c.6,1.83,3.5,1,2.89-.79a60.8,60.8,0,0,1-2-7.83c-.36-1.9-3.25-1.1-2.9.79Z"/><path class="cls-4" d="M612.88,358a5.47,5.47,0,0,0-1.91,5.11c.29,1.65,1.4,3.46,3.2,3.67s2.85-1.31,3-2.93a8.62,8.62,0,0,0-1.51-5.48,1.5,1.5,0,0,0-2.59,1.51,28.66,28.66,0,0,0,4.32,5.78c1.35,1.39,3.47-.73,2.12-2.12a25.56,25.56,0,0,1-3.85-5.17l-2.59,1.51a6,6,0,0,1,1,4.07l.25-.29a2.8,2.8,0,0,1-.34-.61,2.48,2.48,0,0,1,1-2.93c1.48-1.24-.65-3.36-2.12-2.12Z"/><path class="cls-4" d="M622.15,357.45c-3,0-6.09,2.89-5.18,6.12a3,3,0,0,0,3.35,2.08,4.61,4.61,0,0,0,3.42-2.83c.86-1.72-1.72-3.25-2.59-1.52-.22.44-.54,1.2-1.06,1.37s-.27,0-.25-.29a2.24,2.24,0,0,1,2.31-1.93c1.93,0,1.93-3,0-3Z"/><path class="cls-4" d="M622.53,362.8c2.63.39,6.68-.33,7.64-3.29a2.6,2.6,0,0,0-1.32-3.16,3.78,3.78,0,0,0-3.91.59c-2.33,1.62-4.21,4.4-3.26,7.34,1.13,3.48,5.14,3.74,8.18,3.42,1.9-.2,1.92-3.2,0-3a8.45,8.45,0,0,1-4-.15,2.17,2.17,0,0,1-1-3.36,17.56,17.56,0,0,1,2.45-2.16c0-.19-1.42.57-1.6.64a4.75,4.75,0,0,1-2.39.24c-1.89-.28-2.71,2.61-.8,2.89Z"/><path class="cls-4" d="M629.41,355.61l1,7.28a1.51,1.51,0,0,0,2.94.4c.13-.39.71-3,1-3.1L633.2,360c.67.31,1.17,2.17,1.47,2.8a4.81,4.81,0,0,0,1.27,1.78c1.5,1.17,3.64-.93,2.12-2.12s-1.39-4.88-3.9-5.23c-2.67-.37-3.17,3.46-3.73,5.22l3,.4-1-7.28c-.25-1.89-3.25-1.91-3,0Z"/><path class="cls-4" d="M637.91,358.17c-1.7.76-3.41,2.29-2.76,4.37a3.54,3.54,0,0,0,4.43,2.06,3.41,3.41,0,0,0,2.2-4.22,3.14,3.14,0,0,0-4.34-1.74,1.51,1.51,0,0,0-.54,2.05,1.54,1.54,0,0,0,2.05.54c-.14.06-.06,0,0,.09.12.28,0-.05,0,0a.44.44,0,0,1-.49.42c-.14,0-.25-.1-.38-.11s0-.13-.06,0a2.87,2.87,0,0,1,1.41-.93,1.5,1.5,0,0,0,.54-2.05,1.54,1.54,0,0,0-2.05-.54Z"/><path class="cls-4" d="M642.42,359.55a1.5,1.5,0,0,0,0-3,1.5,1.5,0,0,0,0,3Z"/><path class="cls-4" d="M640.5,355.76l.87,8.66c.19,1.91,3.19,1.93,3,0l-.87-8.66c-.19-1.91-3.19-1.92-3,0Z"/><path class="cls-4" d="M649.67,359c-4.68-3.1-9.86,6-6.16,7.42,2.17.83,4.06-2.66,4.77-4.15a13.36,13.36,0,0,0,1-8.1,1.52,1.52,0,0,0-2.9,0,23.85,23.85,0,0,0,.22,10.76c.46,1.87,3.36,1.07,2.89-.8a20.11,20.11,0,0,1-.21-9.16h-2.9a10,10,0,0,1-.4,5c-.34,1-1.56,3.52-2.3,3.64l1.46.39q.17,1.05.33-.12a5.36,5.36,0,0,1,.38-1c.42-.89,1.15-2,2.29-1.27,1.62,1.07,3.12-1.53,1.52-2.59Z"/><path class="cls-4" d="M650.93,364c1.71-.12,3.57.42,4.9-1a2.64,2.64,0,0,0,0-3.74,3,3,0,0,0-3.65-.3,5,5,0,0,0-1.95,3.89c-.16,1.38-.07,2.93,1.13,3.84a3.61,3.61,0,0,0,4,0,7.05,7.05,0,0,0,3.09-7.65c-.39-1.75-2.8-1.19-2.94.4a12.46,12.46,0,0,0,1.11,6.28c.62,1.42,2.79.63,2.79-.76a12.23,12.23,0,0,1,.92-4.58c.72-1.79-2.18-2.57-2.89-.8a14.38,14.38,0,0,0-1,5.38l2.8-.75a9.4,9.4,0,0,1-.7-4.77l-2.95.4c.28,1.23-.23,4.16-1.93,4.36-1,.12-.33-1.55-.25-2.14l.27-.46a.88.88,0,0,0-1.08-.55,5.56,5.56,0,0,0-1.68,0c-1.92.13-1.93,3.13,0,3Z"/></g><rect class="cls-1" x="549.47" y="272.48" width="153.85" height="103.75" rx="12.91"/></g></g></svg>