<svg xmlns="http://www.w3.org/2000/svg" viewBox="0 0 107.34 23.45"><defs><style>.cls-1{font-size:10.53px;font-family:ArialMT, Arial;}.cls-1,.cls-2{fill:#4285f4;}.cls-3{fill:#ea4335;}.cls-4{fill:#fbbc05;}.cls-5{fill:#34a853;}</style></defs><title>employee_iconAsset 18</title><g id="Layer_2" data-name="Layer 2"><g id="Layer_1-2" data-name="Layer 1"><text class="cls-1" transform="translate(67.55 18.28)">mployee</text><path class="cls-2" d="M15,2,13.42,4.14a3.87,3.87,0,0,0-.52-.42A8,8,0,0,0,11.44,3a6.41,6.41,0,0,0-2.29-.42A6,6,0,0,0,4.56,4.53,6.82,6.82,0,0,0,2.77,9.38a6.64,6.64,0,0,0,1.82,4.74A6.11,6.11,0,0,0,9.23,16a5.88,5.88,0,0,0,4.08-1.42,6.36,6.36,0,0,0,2-3.74H9.08V8.33h9.08c0,.33.05.67.05,1A9.34,9.34,0,0,1,15.7,16a8.55,8.55,0,0,1-6.52,2.66A8.84,8.84,0,0,1,2.63,16,9.06,9.06,0,0,1,0,9.38,9.31,9.31,0,0,1,2.59,2.74,8.68,8.68,0,0,1,9.18,0a10.2,10.2,0,0,1,2,.2A7.62,7.62,0,0,1,12.8.69,12.77,12.77,0,0,1,14,1.27a6.12,6.12,0,0,1,.77.5Z"/><path class="cls-3" d="M30.11,8.89a5.48,5.48,0,0,1,1.62,4,5.55,5.55,0,0,1-5.64,5.63,5.57,5.57,0,0,1-5.64-5.63,5.57,5.57,0,0,1,5.64-5.64A5.43,5.43,0,0,1,30.11,8.89Zm-6.21,1.7A3.12,3.12,0,0,0,23,12.9a3.11,3.11,0,0,0,.88,2.3,3,3,0,0,0,2.19.89,3,3,0,0,0,2.2-.89,3.15,3.15,0,0,0,.87-2.3,3.15,3.15,0,0,0-.87-2.31,3,3,0,0,0-2.2-.89A3,3,0,0,0,23.9,10.59Z"/><path class="cls-4" d="M45.15,7.51V18.38a4.73,4.73,0,0,1-1.5,3.73,5.85,5.85,0,0,1-4,1.34A8.81,8.81,0,0,1,37,23.07a6.87,6.87,0,0,1-1.73-.74l-.52-.4,1.34-2.12.44.32a6.87,6.87,0,0,0,1.19.54,5.1,5.1,0,0,0,1.79.33,3.42,3.42,0,0,0,2.27-.68,2.43,2.43,0,0,0,.8-1.94v-.92a3.51,3.51,0,0,1-.36.3,5.12,5.12,0,0,1-1.07.47,5.3,5.3,0,0,1-1.79.3A5.13,5.13,0,0,1,35.52,17a5.58,5.58,0,0,1-1.55-4,5.58,5.58,0,0,1,1.55-4.06,5.17,5.17,0,0,1,3.84-1.58,5.44,5.44,0,0,1,1.75.27,4.36,4.36,0,0,1,1.12.53l.35.27V7.51Zm-3.34,7.72a3.14,3.14,0,0,0,.87-2.33,3.16,3.16,0,0,0-.87-2.34,3,3,0,0,0-2.2-.86,3,3,0,0,0-2.19.86,3.13,3.13,0,0,0-.88,2.34,3.11,3.11,0,0,0,.88,2.33,3,3,0,0,0,2.19.86A3,3,0,0,0,41.81,15.23Z"/><path class="cls-5" d="M48.64,18.28V.37h2.57V18.28Z"/><path class="cls-2" d="M65.36,12.79,57,14.39a3,3,0,0,0,1.17,1.24,3.24,3.24,0,0,0,1.7.46,3.08,3.08,0,0,0,1.5-.36,2.29,2.29,0,0,0,.87-.74l.25-.35,2.24,1.15a2.4,2.4,0,0,1-.16.29,5.81,5.81,0,0,1-.53.66,6.14,6.14,0,0,1-.94.83,5.56,5.56,0,0,1-1.4.66,5.83,5.83,0,0,1-1.88.3,5.54,5.54,0,0,1-4.14-1.62,5.47,5.47,0,0,1-1.6-4,5.48,5.48,0,0,1,1.62-4,5.79,5.79,0,0,1,8,0A5.53,5.53,0,0,1,65.36,12.79ZM59.72,9.7a3,3,0,0,0-3,2.75l5.76-1.1A2.77,2.77,0,0,0,59.72,9.7Z"/></g></g></svg>