<?xml version="1.0" encoding="UTF-8" standalone="no"?>
<!DOCTYPE svg PUBLIC "-//W3C//DTD SVG 1.1//EN" "http://www.w3.org/Graphics/SVG/1.1/DTD/svg11.dtd">
<svg width="100%" height="100%" viewBox="0 0 3840 1453" version="1.1" xmlns="http://www.w3.org/2000/svg" xmlns:xlink="http://www.w3.org/1999/xlink" xml:space="preserve" xmlns:serif="http://www.serif.com/" style="fill-rule:evenodd;clip-rule:evenodd;stroke-linejoin:round;stroke-miterlimit:1.5;">
    <g transform="matrix(0.83195,0,0,0.83195,297.668,-882.173)">
        <circle cx="1950.04" cy="1060.37" r="1725.26" style="fill:rgb(64,64,64);fill-opacity:0.93;"/>
    </g>
    <g transform="matrix(1,0,0,0.841089,1380,42.727)">
        <g transform="matrix(1,-0,-0,1.18894,-1380,-50.7997)">
            <path d="M3075.79,277.873C3080.76,277.873 3084.79,273.84 3084.79,268.873C3084.79,263.906 3080.76,259.873 3075.79,259.873C3070.83,259.873 3066.79,263.906 3066.79,268.873C3066.79,273.84 3070.83,277.873 3075.79,277.873Z" style="fill:rgb(52,168,83);"/>
            <path d="M3070.39,268.873L2306.1,268.873C2286.77,268.873 2271.1,284.543 2271.1,303.873C2271.1,362.553 2271.1,480.102 2271.1,538.782C2271.1,548.064 2267.41,556.967 2260.85,563.53C2254.28,570.094 2245.38,573.782 2236.1,573.782C2212.79,573.782 2186.43,573.782 2186.43,573.782" style="fill:none;stroke:rgb(52,168,83);stroke-width:6px;stroke-dasharray:30,18,0,0;"/>
        </g>
    </g>
    <g transform="matrix(1.61543,0,0,1.61543,2849.73,-934.157)">
        <text x="-165.09px" y="718.611px" style="font-family:'ProductSans-Regular', 'Product Sans', sans-serif;font-size:37.142px;fill:rgb(52,168,83);">Y<tspan x="-146.742px -126.648px -107.705px -94.966px " y="718.611px 718.611px 718.611px 718.611px ">ears</tspan> o<tspan x="-49.653px " y="718.611px ">f</tspan> D<tspan x="-2.706px 17.388px 38.782px 46.767px 65.97px 84.541px 97.875px 105.86px 126.288px " y="718.611px 718.611px 718.611px 718.611px 718.611px 718.611px 718.611px 718.611px 718.611px ">edication</tspan></text>
    </g>
    <g transform="matrix(1.61543,0,0,1.61543,2744.75,-293.828)">
        <text x="33.835px" y="718.611px" style="font-family:'ProductSans-Regular', 'Product Sans', sans-serif;font-size:37.142px;fill:rgb(66,133,244);">F<tspan x="52.48px " y="718.611px ">a</tspan>ir<tspan x="93.447px " y="718.611px ">y</tspan> du<tspan x="161.454px 178.168px " y="718.611px 718.611px ">st</tspan></text>
    </g>
    <g transform="matrix(1.23343,0,0,1.23343,863.922,-56.2009)">
        <text x="33.835px" y="718.611px" style="font-family:'ProductSans-Regular', 'Product Sans', sans-serif;font-size:48.645px;fill:rgb(234,67,53);">Fl<tspan x="68.908px " y="718.611px ">o</tspan>ck<tspan x="144.55px " y="718.611px ">s</tspan> o<tspan x="203.897px " y="718.611px ">f</tspan> en<tspan x="284.696px " y="718.611px ">g</tspan>ine<tspan x="376.099px 402.173px 418.858px " y="718.611px 718.611px 718.611px ">ers</tspan></text>
    </g>
    <g transform="matrix(1.13821,0,0,1.13821,683.18,-295.498)">
        <text x="33.835px" y="718.611px" style="font-family:'ProductSans-Regular', 'Product Sans', sans-serif;font-size:52.714px;fill:rgb(66,133,244);">Mo<tspan x="106.844px 135.415px 162.668px 180.802px " y="718.611px 718.611px 718.611px 718.611px ">unta</tspan>in<tspan x="247.591px " y="718.611px ">s</tspan> o<tspan x="311.902px " y="718.611px ">f</tspan> r<tspan x="360.452px 388.97px 413.218px 441.737px 468.621px 486.175px " y="718.611px 718.611px 718.611px 718.611px 718.611px 718.611px ">esearc</tspan>h</text>
    </g>
    <g transform="matrix(0.870178,0,0,0.870178,1458.88,-4.54747e-13)">
        <g transform="matrix(1,0,0,1.04888,65.2212,1.57159)">
            <rect x="208.708" y="0" width="26.403" height="661.327" style="fill:url(#_Linear1);"/>
        </g>
        <g transform="matrix(-1,0,0,1.05126,1014.78,0)">
            <rect x="208.708" y="0" width="26.403" height="661.327" style="fill:url(#_Linear2);"/>
        </g>
        <g transform="matrix(1,0,0,1.25428,143.801,0)">
            <rect x="208.708" y="0" width="26.403" height="661.327" style="fill:url(#_Linear3);"/>
        </g>
        <g transform="matrix(-1,0,0,1.27075,936.199,0)">
            <rect x="208.708" y="0" width="26.403" height="661.327" style="fill:url(#_Linear4);"/>
        </g>
        <g transform="matrix(1,0,0,1.40399,239.668,0)">
            <rect x="208.708" y="0" width="26.403" height="661.327" style="fill:url(#_Linear5);"/>
        </g>
        <g transform="matrix(-1,0,0,1.40399,840.332,0)">
            <rect x="208.708" y="0" width="26.403" height="661.327" style="fill:url(#_Linear6);"/>
        </g>
    </g>
    <g transform="matrix(0.870178,0,0,0.870178,1458.88,-4.54747e-13)">
        <g transform="matrix(0.125525,0,0,0.37069,535.865,26.7008)">
            <circle cx="1013.66" cy="350.853" r="54.691" style="fill:none;stroke:url(#_Linear7);stroke-width:41.03px;stroke-linecap:round;"/>
        </g>
        <g transform="matrix(0.0881274,0,0,0.37069,447.894,26.6355)">
            <circle cx="1013.66" cy="350.853" r="54.691" style="fill:rgb(163,163,163);stroke:url(#_Linear8);stroke-width:42.15px;stroke-linecap:round;"/>
        </g>
        <g transform="matrix(0.32586,0,0,0.37069,-4.1788,26.7008)">
            <circle cx="1013.66" cy="350.853" r="54.691" style="fill:none;stroke:url(#_Linear9);stroke-width:32.54px;stroke-linecap:round;"/>
        </g>
        <g transform="matrix(0.291887,0,0,0.37069,459.2,26.7008)">
            <circle cx="1013.66" cy="350.853" r="54.691" style="fill:none;stroke:url(#_Linear10);stroke-width:34.04px;stroke-linecap:round;"/>
        </g>
        <g transform="matrix(0.136172,0,0,0.37069,280.578,26.7008)">
            <circle cx="1013.66" cy="350.853" r="54.691" style="fill:none;stroke:url(#_Linear11);stroke-width:40.66px;stroke-linecap:round;"/>
        </g>
    </g>
    <g transform="matrix(0.870178,0,0,0.870178,1458.88,-4.54747e-13)">
        <g transform="matrix(0.125525,0,0,0.37069,532.6,312.747)">
            <circle cx="1013.66" cy="350.853" r="54.691" style="fill:none;stroke:url(#_Linear12);stroke-width:41.03px;stroke-linecap:round;"/>
        </g>
        <g transform="matrix(0.0881274,0,0,0.37069,450.668,312.747)">
            <circle cx="1013.66" cy="350.853" r="54.691" style="fill:rgb(163,163,163);stroke:url(#_Linear13);stroke-width:42.15px;stroke-linecap:round;"/>
        </g>
        <g transform="matrix(0.32586,0,0,0.37069,-4.1788,312.747)">
            <circle cx="1013.66" cy="350.853" r="54.691" style="fill:none;stroke:url(#_Linear14);stroke-width:32.54px;stroke-linecap:round;"/>
        </g>
        <g transform="matrix(0.291887,0,0,0.37069,459.2,312.747)">
            <circle cx="1013.66" cy="350.853" r="54.691" style="fill:none;stroke:url(#_Linear15);stroke-width:34.04px;stroke-linecap:round;"/>
        </g>
        <g transform="matrix(0.136172,0,0,0.37069,277.313,312.747)">
            <circle cx="1013.66" cy="350.853" r="54.691" style="fill:none;stroke:url(#_Linear16);stroke-width:40.66px;stroke-linecap:round;"/>
        </g>
    </g>
    <g id="right" transform="matrix(0.870178,0,0,0.870178,1481.34,109.282)">
        <g transform="matrix(1,0,0,1,577.559,156.875)">
            <path d="M171.437,379.341C170.658,379.366 223.823,376.047 223.823,409.558C223.823,443.068 171.437,439.774 171.437,439.774" style="fill:none;stroke:url(#_Linear17);stroke-width:11.36px;"/>
        </g>
        <g transform="matrix(1,0,0,0.22921,577.551,429.59)">
            <rect x="49.638" y="349.124" width="121.799" height="231.423" style="fill:url(#_Linear18);"/>
        </g>
        <g transform="matrix(1,0,0,0.22921,577.551,489.165)">
            <rect x="49.638" y="349.124" width="121.799" height="231.423" style="fill:url(#_Linear19);"/>
        </g>
        <g transform="matrix(1,0,0,1,577.559,156.879)">
            <rect x="171.428" y="427.557" width="8.821" height="22.547" style="fill:url(#_Linear20);"/>
        </g>
        <g transform="matrix(1,0,0,1,577.559,98.4949)">
            <rect x="171.428" y="427.557" width="8.821" height="22.547" style="fill:url(#_Linear21);"/>
        </g>
        <g transform="matrix(1,0,0,1,577.559,275.96)">
            <path d="M171.437,379.341C170.658,379.366 223.823,376.047 223.823,409.558C223.823,443.068 171.437,439.774 171.437,439.774" style="fill:none;stroke:url(#_Linear22);stroke-width:11.36px;"/>
        </g>
        <g transform="matrix(1,0,0,0.22921,577.551,548.676)">
            <rect x="49.638" y="349.124" width="121.799" height="231.423" style="fill:url(#_Linear23);"/>
        </g>
        <g transform="matrix(1,0,0,0.22921,577.551,608.251)">
            <rect x="49.638" y="349.124" width="121.799" height="231.423" style="fill:url(#_Linear24);"/>
        </g>
        <g transform="matrix(1,0,0,1,577.559,275.964)">
            <rect x="171.428" y="427.557" width="8.821" height="22.547" style="fill:url(#_Linear25);"/>
        </g>
        <g transform="matrix(1,0,0,1,577.559,217.58)">
            <rect x="171.428" y="427.557" width="8.821" height="22.547" style="fill:url(#_Linear26);"/>
        </g>
    </g>
    <g id="right1" serif:id="right" transform="matrix(-0.870178,0,0,0.870178,2376.06,109.282)">
        <g transform="matrix(1,0,0,1,577.559,156.875)">
            <path d="M171.437,379.341C170.658,379.366 223.823,376.047 223.823,409.558C223.823,443.068 171.437,439.774 171.437,439.774" style="fill:none;stroke:url(#_Linear27);stroke-width:11.36px;"/>
        </g>
        <g transform="matrix(1,0,0,0.22921,577.551,429.59)">
            <rect x="49.638" y="349.124" width="121.799" height="231.423" style="fill:url(#_Linear28);"/>
        </g>
        <g transform="matrix(1,0,0,0.22921,577.551,489.165)">
            <rect x="49.638" y="349.124" width="121.799" height="231.423" style="fill:url(#_Linear29);"/>
        </g>
        <g transform="matrix(1,0,0,1,577.559,156.879)">
            <rect x="171.428" y="427.557" width="8.821" height="22.547" style="fill:url(#_Linear30);"/>
        </g>
        <g transform="matrix(1,0,0,1,577.559,98.4949)">
            <rect x="171.428" y="427.557" width="8.821" height="22.547" style="fill:url(#_Linear31);"/>
        </g>
        <g transform="matrix(1,0,0,1,577.559,275.96)">
            <path d="M171.437,379.341C170.658,379.366 223.823,376.047 223.823,409.558C223.823,443.068 171.437,439.774 171.437,439.774" style="fill:none;stroke:url(#_Linear32);stroke-width:11.36px;"/>
        </g>
        <g transform="matrix(1,0,0,0.22921,577.551,548.676)">
            <rect x="49.638" y="349.124" width="121.799" height="231.423" style="fill:url(#_Linear33);"/>
        </g>
        <g transform="matrix(1,0,0,0.22921,577.551,608.251)">
            <rect x="49.638" y="349.124" width="121.799" height="231.423" style="fill:url(#_Linear34);"/>
        </g>
        <g transform="matrix(1,0,0,1,577.559,275.964)">
            <rect x="171.428" y="427.557" width="8.821" height="22.547" style="fill:url(#_Linear35);"/>
        </g>
        <g transform="matrix(1,0,0,1,577.559,217.58)">
            <rect x="171.428" y="427.557" width="8.821" height="22.547" style="fill:url(#_Linear36);"/>
        </g>
    </g>
    <g transform="matrix(0.943434,0,0,0.983253,1418.81,-70.7697)">
        <rect x="494.229" y="591.662" width="92.378" height="380.036" style="fill:url(#_Linear37);"/>
    </g>
    <g transform="matrix(0.870178,0,0,0.870178,1462.68,31.3982)">
        <ellipse cx="535.635" cy="518.705" rx="46.105" ry="8.018" style="fill:none;stroke:url(#_Linear38);stroke-width:5.35px;"/>
    </g>
    <g transform="matrix(0.870178,0,0,0.870178,1462.68,22.1814)">
        <ellipse cx="535.635" cy="518.705" rx="46.105" ry="8.018" style="fill:none;stroke:url(#_Linear39);stroke-width:5.35px;"/>
    </g>
    <g transform="matrix(0.870178,0,0,0.870178,1462.68,12.9646)">
        <ellipse cx="535.635" cy="518.705" rx="46.105" ry="8.018" style="fill:none;stroke:url(#_Linear40);stroke-width:5.35px;"/>
    </g>
    <g transform="matrix(2.07894,0,0,0.863642,829.465,-4.54747e-13)">
        <rect x="517.148" y="0" width="23.27" height="591.662" style="fill:url(#_Linear41);"/>
    </g>
    <g transform="matrix(0.870178,0,0,0.870178,1462.68,31.3982)">
        <clipPath id="_clip42">
            <rect x="485.425" y="518.705" width="100.155" height="10.592"/>
        </clipPath>
        <g clip-path="url(#_clip42)">
            <ellipse cx="535.635" cy="518.705" rx="46.105" ry="8.018" style="fill:none;stroke:url(#_Linear43);stroke-width:5.35px;"/>
        </g>
    </g>
    <g transform="matrix(0.870178,0,0,0.870178,1462.68,22.1814)">
        <clipPath id="_clip44">
            <rect x="485.425" y="518.705" width="100.155" height="10.592"/>
        </clipPath>
        <g clip-path="url(#_clip44)">
            <ellipse cx="535.635" cy="518.705" rx="46.105" ry="8.018" style="fill:none;stroke:url(#_Linear45);stroke-width:5.35px;"/>
        </g>
    </g>
    <g transform="matrix(0.870178,0,0,0.870178,1462.68,12.9646)">
        <clipPath id="_clip46">
            <rect x="485.425" y="518.705" width="100.155" height="10.592"/>
        </clipPath>
        <g clip-path="url(#_clip46)">
            <ellipse cx="535.635" cy="518.705" rx="46.105" ry="8.018" style="fill:none;stroke:url(#_Linear47);stroke-width:5.35px;"/>
        </g>
    </g>
    <g transform="matrix(0.870178,0,0,0.870178,1458.88,-4.54747e-13)">
        <rect x="249.275" y="384.349" width="575.9" height="19.002" style="fill:url(#_Linear48);"/>
    </g>
    <g transform="matrix(0.923109,0,0,0.870178,1435.55,-4.54747e-13)">
        <rect x="224.427" y="100.784" width="600.749" height="23.387" style="fill:url(#_Linear49);"/>
    </g>
    <g transform="matrix(6.12323e-17,1,-1,6.12323e-17,2474.41,-122.589)">
        <g transform="matrix(6.12323e-17,-1,1,6.12323e-17,122.589,2474.41)">
            <circle cx="917.333" cy="878.247" r="9" style="fill:rgb(234,67,53);"/>
            <path d="M922.733,878.247L1742.3,878.247C1751.58,878.247 1760.48,874.56 1767.05,867.996C1773.61,861.432 1777.3,852.53 1777.3,843.247L1777.3,786.718" style="fill:none;stroke:rgb(234,67,53);stroke-width:6px;stroke-dasharray:30,18,0,0;"/>
        </g>
    </g>
    <g transform="matrix(1,0,0,1,1380,0)">
        <g transform="matrix(1,-0,-0,1,-1380,0)">
            <path d="M2762.88,821C2762.88,816.033 2766.91,812 2771.88,812C2776.85,812 2780.88,816.033 2780.88,821C2780.88,825.967 2776.85,830 2771.88,830C2766.91,830 2762.88,825.967 2762.88,821Z" style="fill:rgb(66,133,244);"/>
            <path d="M1927.53,910.781L1927.53,931.155C1927.53,950.485 1943.2,966.155 1962.53,966.155L2736.88,966.155C2756.21,966.155 2771.88,950.485 2771.88,931.155L2771.88,826.4" style="fill:none;stroke:rgb(66,133,244);stroke-width:6px;stroke-dasharray:30,18,0,0;"/>
        </g>
    </g>
    <g transform="matrix(1,0,0,1,1380,0)">
        <g transform="matrix(1,-0,-0,1,-1380,0)">
            <path d="M702.75,531C702.75,535.967 698.717,540 693.75,540C688.783,540 684.75,535.967 684.75,531C684.75,526.033 688.783,522 693.75,522C698.717,522 702.75,526.033 702.75,531Z" style="fill:rgb(66,133,244);"/>
            <path d="M1622.64,343.996L1596.33,343.996C1577,343.996 1561.33,359.666 1561.33,378.996C1561.33,387.117 1561.33,395.761 1561.33,403.882C1561.33,423.212 1545.66,438.882 1526.33,438.882C1386.48,438.882 868.601,438.882 728.75,438.882C709.42,438.882 693.75,454.552 693.75,473.882C693.75,491.614 693.75,512.174 693.75,525.6" style="fill:none;stroke:rgb(66,133,244);stroke-width:6px;stroke-dasharray:30,18,0,0;"/>
        </g>
    </g>
    <defs>
        <linearGradient id="_Linear1" x1="0" y1="0" x2="1" y2="0" gradientUnits="userSpaceOnUse" gradientTransform="matrix(14.9344,0,0,14.9344,214.043,316.514)"><stop offset="0" style="stop-color:rgb(244,199,67);stop-opacity:1"/><stop offset="1" style="stop-color:rgb(207,154,0);stop-opacity:1"/></linearGradient>
        <linearGradient id="_Linear2" x1="0" y1="0" x2="1" y2="0" gradientUnits="userSpaceOnUse" gradientTransform="matrix(14.9344,0,0,14.9344,214.043,316.514)"><stop offset="0" style="stop-color:rgb(207,154,0);stop-opacity:1"/><stop offset="1" style="stop-color:rgb(244,199,67);stop-opacity:1"/></linearGradient>
        <linearGradient id="_Linear3" x1="0" y1="0" x2="1" y2="0" gradientUnits="userSpaceOnUse" gradientTransform="matrix(14.9344,0,0,14.9344,214.043,316.514)"><stop offset="0" style="stop-color:rgb(244,199,67);stop-opacity:1"/><stop offset="1" style="stop-color:rgb(207,154,0);stop-opacity:1"/></linearGradient>
        <linearGradient id="_Linear4" x1="0" y1="0" x2="1" y2="0" gradientUnits="userSpaceOnUse" gradientTransform="matrix(14.9344,0,0,14.9344,214.043,316.514)"><stop offset="0" style="stop-color:rgb(207,154,0);stop-opacity:1"/><stop offset="1" style="stop-color:rgb(244,199,67);stop-opacity:1"/></linearGradient>
        <linearGradient id="_Linear5" x1="0" y1="0" x2="1" y2="0" gradientUnits="userSpaceOnUse" gradientTransform="matrix(14.9344,0,0,14.9344,214.043,316.514)"><stop offset="0" style="stop-color:rgb(244,199,67);stop-opacity:1"/><stop offset="1" style="stop-color:rgb(207,154,0);stop-opacity:1"/></linearGradient>
        <linearGradient id="_Linear6" x1="0" y1="0" x2="1" y2="0" gradientUnits="userSpaceOnUse" gradientTransform="matrix(14.9344,0,0,14.9344,214.043,316.514)"><stop offset="0" style="stop-color:rgb(207,154,0);stop-opacity:1"/><stop offset="1" style="stop-color:rgb(244,199,67);stop-opacity:1"/></linearGradient>
        <linearGradient id="_Linear7" x1="0" y1="0" x2="1" y2="0" gradientUnits="userSpaceOnUse" gradientTransform="matrix(109.383,0,0,109.383,958.973,350.853)"><stop offset="0" style="stop-color:rgb(207,154,0);stop-opacity:1"/><stop offset="1" style="stop-color:rgb(244,199,67);stop-opacity:1"/></linearGradient>
        <linearGradient id="_Linear8" x1="0" y1="0" x2="1" y2="0" gradientUnits="userSpaceOnUse" gradientTransform="matrix(109.383,0,0,109.383,958.973,350.853)"><stop offset="0" style="stop-color:rgb(207,154,0);stop-opacity:1"/><stop offset="1" style="stop-color:rgb(244,199,67);stop-opacity:1"/></linearGradient>
        <linearGradient id="_Linear9" x1="0" y1="0" x2="1" y2="0" gradientUnits="userSpaceOnUse" gradientTransform="matrix(109.383,0,0,109.383,958.973,350.853)"><stop offset="0" style="stop-color:rgb(207,154,0);stop-opacity:1"/><stop offset="1" style="stop-color:rgb(244,199,67);stop-opacity:1"/></linearGradient>
        <linearGradient id="_Linear10" x1="0" y1="0" x2="1" y2="0" gradientUnits="userSpaceOnUse" gradientTransform="matrix(109.383,0,0,109.383,958.973,350.853)"><stop offset="0" style="stop-color:rgb(207,154,0);stop-opacity:1"/><stop offset="1" style="stop-color:rgb(244,199,67);stop-opacity:1"/></linearGradient>
        <linearGradient id="_Linear11" x1="0" y1="0" x2="1" y2="0" gradientUnits="userSpaceOnUse" gradientTransform="matrix(109.383,0,0,109.383,958.973,350.853)"><stop offset="0" style="stop-color:rgb(207,154,0);stop-opacity:1"/><stop offset="1" style="stop-color:rgb(244,199,67);stop-opacity:1"/></linearGradient>
        <linearGradient id="_Linear12" x1="0" y1="0" x2="1" y2="0" gradientUnits="userSpaceOnUse" gradientTransform="matrix(109.383,0,0,109.383,958.973,350.853)"><stop offset="0" style="stop-color:rgb(207,154,0);stop-opacity:1"/><stop offset="1" style="stop-color:rgb(244,199,67);stop-opacity:1"/></linearGradient>
        <linearGradient id="_Linear13" x1="0" y1="0" x2="1" y2="0" gradientUnits="userSpaceOnUse" gradientTransform="matrix(109.383,0,0,109.383,958.973,350.853)"><stop offset="0" style="stop-color:rgb(207,154,0);stop-opacity:1"/><stop offset="1" style="stop-color:rgb(244,199,67);stop-opacity:1"/></linearGradient>
        <linearGradient id="_Linear14" x1="0" y1="0" x2="1" y2="0" gradientUnits="userSpaceOnUse" gradientTransform="matrix(109.383,0,0,109.383,958.973,350.853)"><stop offset="0" style="stop-color:rgb(207,154,0);stop-opacity:1"/><stop offset="1" style="stop-color:rgb(244,199,67);stop-opacity:1"/></linearGradient>
        <linearGradient id="_Linear15" x1="0" y1="0" x2="1" y2="0" gradientUnits="userSpaceOnUse" gradientTransform="matrix(109.383,0,0,109.383,958.973,350.853)"><stop offset="0" style="stop-color:rgb(207,154,0);stop-opacity:1"/><stop offset="1" style="stop-color:rgb(244,199,67);stop-opacity:1"/></linearGradient>
        <linearGradient id="_Linear16" x1="0" y1="0" x2="1" y2="0" gradientUnits="userSpaceOnUse" gradientTransform="matrix(109.383,0,0,109.383,958.973,350.853)"><stop offset="0" style="stop-color:rgb(207,154,0);stop-opacity:1"/><stop offset="1" style="stop-color:rgb(244,199,67);stop-opacity:1"/></linearGradient>
        <linearGradient id="_Linear17" x1="0" y1="0" x2="1" y2="0" gradientUnits="userSpaceOnUse" gradientTransform="matrix(52.3949,0,0,60.6026,171.428,409.562)"><stop offset="0" style="stop-color:rgb(66,133,244);stop-opacity:1"/><stop offset="1" style="stop-color:rgb(0,74,197);stop-opacity:1"/></linearGradient>
        <linearGradient id="_Linear18" x1="0" y1="0" x2="1" y2="0" gradientUnits="userSpaceOnUse" gradientTransform="matrix(87.7863,104.751,-24.0099,382.995,55.9454,397.637)"><stop offset="0" style="stop-color:rgb(52,168,83);stop-opacity:1"/><stop offset="1" style="stop-color:rgb(14,111,40);stop-opacity:1"/></linearGradient>
        <linearGradient id="_Linear19" x1="0" y1="0" x2="1" y2="0" gradientUnits="userSpaceOnUse" gradientTransform="matrix(88.5366,108.024,-24.7602,386.268,61.1975,383.233)"><stop offset="0" style="stop-color:rgb(234,67,53);stop-opacity:1"/><stop offset="1" style="stop-color:rgb(179,14,0);stop-opacity:1"/></linearGradient>
        <linearGradient id="_Linear20" x1="0" y1="0" x2="1" y2="0" gradientUnits="userSpaceOnUse" gradientTransform="matrix(8.82089,0,0,22.5474,171.428,438.831)"><stop offset="0" style="stop-color:rgb(238,233,218);stop-opacity:1"/><stop offset="1" style="stop-color:rgb(251,188,5);stop-opacity:1"/></linearGradient>
        <linearGradient id="_Linear21" x1="0" y1="0" x2="1" y2="0" gradientUnits="userSpaceOnUse" gradientTransform="matrix(8.82089,0,0,22.5474,171.428,438.831)"><stop offset="0" style="stop-color:rgb(238,233,218);stop-opacity:1"/><stop offset="1" style="stop-color:rgb(251,188,5);stop-opacity:1"/></linearGradient>
        <linearGradient id="_Linear22" x1="0" y1="0" x2="1" y2="0" gradientUnits="userSpaceOnUse" gradientTransform="matrix(52.3949,0,0,60.6026,171.428,409.562)"><stop offset="0" style="stop-color:rgb(52,168,83);stop-opacity:1"/><stop offset="1" style="stop-color:rgb(14,111,40);stop-opacity:1"/></linearGradient>
        <linearGradient id="_Linear23" x1="0" y1="0" x2="1" y2="0" gradientUnits="userSpaceOnUse" gradientTransform="matrix(81.0335,111.298,-25.5105,353.534,64.1988,398.569)"><stop offset="0" style="stop-color:rgb(66,133,244);stop-opacity:1"/><stop offset="1" style="stop-color:rgb(0,74,197);stop-opacity:1"/></linearGradient>
        <linearGradient id="_Linear24" x1="0" y1="0" x2="1" y2="0" gradientUnits="userSpaceOnUse" gradientTransform="matrix(86.2857,94.9304,-21.759,376.448,57.446,393.986)"><stop offset="0" style="stop-color:rgb(234,67,53);stop-opacity:1"/><stop offset="1" style="stop-color:rgb(179,14,0);stop-opacity:1"/></linearGradient>
        <linearGradient id="_Linear25" x1="0" y1="0" x2="1" y2="0" gradientUnits="userSpaceOnUse" gradientTransform="matrix(8.82089,0,0,22.5474,171.428,438.831)"><stop offset="0" style="stop-color:rgb(238,233,218);stop-opacity:1"/><stop offset="1" style="stop-color:rgb(251,188,5);stop-opacity:1"/></linearGradient>
        <linearGradient id="_Linear26" x1="0" y1="0" x2="1" y2="0" gradientUnits="userSpaceOnUse" gradientTransform="matrix(8.82089,0,0,22.5474,171.428,438.831)"><stop offset="0" style="stop-color:rgb(238,233,218);stop-opacity:1"/><stop offset="1" style="stop-color:rgb(251,188,5);stop-opacity:1"/></linearGradient>
        <linearGradient id="_Linear27" x1="0" y1="0" x2="1" y2="0" gradientUnits="userSpaceOnUse" gradientTransform="matrix(52.3949,0,0,60.6026,171.428,409.562)"><stop offset="0" style="stop-color:rgb(14,111,40);stop-opacity:1"/><stop offset="1" style="stop-color:rgb(52,168,83);stop-opacity:1"/></linearGradient>
        <linearGradient id="_Linear28" x1="0" y1="0" x2="1" y2="0" gradientUnits="userSpaceOnUse" gradientTransform="matrix(-81.7838,114.571,26.2609,356.807,151.037,400.91)"><stop offset="0" style="stop-color:rgb(234,67,53);stop-opacity:1"/><stop offset="1" style="stop-color:rgb(179,14,0);stop-opacity:1"/></linearGradient>
        <linearGradient id="_Linear29" x1="0" y1="0" x2="1" y2="0" gradientUnits="userSpaceOnUse" gradientTransform="matrix(-84.785,108.024,24.7602,369.901,160.04,402.874)"><stop offset="0" style="stop-color:rgb(66,133,244);stop-opacity:1"/><stop offset="1" style="stop-color:rgb(0,74,197);stop-opacity:1"/></linearGradient>
        <linearGradient id="_Linear30" x1="0" y1="0" x2="1" y2="0" gradientUnits="userSpaceOnUse" gradientTransform="matrix(8.82089,0,0,22.5474,171.428,438.831)"><stop offset="0" style="stop-color:rgb(251,188,5);stop-opacity:1"/><stop offset="1" style="stop-color:rgb(238,233,218);stop-opacity:1"/></linearGradient>
        <linearGradient id="_Linear31" x1="0" y1="0" x2="1" y2="0" gradientUnits="userSpaceOnUse" gradientTransform="matrix(8.82089,0,0,22.5474,171.428,438.831)"><stop offset="0" style="stop-color:rgb(251,188,5);stop-opacity:1"/><stop offset="1" style="stop-color:rgb(238,233,218);stop-opacity:1"/></linearGradient>
        <linearGradient id="_Linear32" x1="0" y1="0" x2="1" y2="0" gradientUnits="userSpaceOnUse" gradientTransform="matrix(52.3949,0,0,60.6026,171.428,409.562)"><stop offset="0" style="stop-color:rgb(0,74,197);stop-opacity:1"/><stop offset="1" style="stop-color:rgb(66,133,244);stop-opacity:1"/></linearGradient>
        <linearGradient id="_Linear33" x1="0" y1="0" x2="1" y2="0" gradientUnits="userSpaceOnUse" gradientTransform="matrix(-94.5391,78.5631,18.0074,412.456,157.039,437.851)"><stop offset="0" style="stop-color:rgb(52,168,83);stop-opacity:1"/><stop offset="1" style="stop-color:rgb(14,111,40);stop-opacity:1"/></linearGradient>
        <linearGradient id="_Linear34" x1="0" y1="0" x2="1" y2="0" gradientUnits="userSpaceOnUse" gradientTransform="matrix(-91.5378,29.4611,6.75279,399.362,163.042,407.08)"><stop offset="0" style="stop-color:rgb(234,67,53);stop-opacity:1"/><stop offset="1" style="stop-color:rgb(179,14,0);stop-opacity:1"/></linearGradient>
        <linearGradient id="_Linear35" x1="0" y1="0" x2="1" y2="0" gradientUnits="userSpaceOnUse" gradientTransform="matrix(8.82089,0,0,22.5474,171.428,438.831)"><stop offset="0" style="stop-color:rgb(251,188,5);stop-opacity:1"/><stop offset="1" style="stop-color:rgb(238,233,218);stop-opacity:1"/></linearGradient>
        <linearGradient id="_Linear36" x1="0" y1="0" x2="1" y2="0" gradientUnits="userSpaceOnUse" gradientTransform="matrix(8.82089,0,0,22.5474,171.428,438.831)"><stop offset="0" style="stop-color:rgb(251,188,5);stop-opacity:1"/><stop offset="1" style="stop-color:rgb(238,233,218);stop-opacity:1"/></linearGradient>
        <linearGradient id="_Linear37" x1="0" y1="0" x2="1" y2="0" gradientUnits="userSpaceOnUse" gradientTransform="matrix(92.3779,0,0,380.036,494.229,781.68)"><stop offset="0" style="stop-color:rgb(244,199,67);stop-opacity:1"/><stop offset="1" style="stop-color:rgb(207,154,0);stop-opacity:1"/></linearGradient>
        <linearGradient id="_Linear38" x1="0" y1="0" x2="1" y2="0" gradientUnits="userSpaceOnUse" gradientTransform="matrix(92.2109,0,0,16.0367,489.529,518.705)"><stop offset="0" style="stop-color:rgb(244,199,67);stop-opacity:1"/><stop offset="1" style="stop-color:rgb(207,154,0);stop-opacity:1"/></linearGradient>
        <linearGradient id="_Linear39" x1="0" y1="0" x2="1" y2="0" gradientUnits="userSpaceOnUse" gradientTransform="matrix(92.2109,0,0,16.0367,489.529,518.705)"><stop offset="0" style="stop-color:rgb(244,199,67);stop-opacity:1"/><stop offset="1" style="stop-color:rgb(207,154,0);stop-opacity:1"/></linearGradient>
        <linearGradient id="_Linear40" x1="0" y1="0" x2="1" y2="0" gradientUnits="userSpaceOnUse" gradientTransform="matrix(92.2109,0,0,16.0367,489.529,518.705)"><stop offset="0" style="stop-color:rgb(244,199,67);stop-opacity:1"/><stop offset="1" style="stop-color:rgb(207,154,0);stop-opacity:1"/></linearGradient>
        <linearGradient id="_Linear41" x1="0" y1="0" x2="1" y2="0" gradientUnits="userSpaceOnUse" gradientTransform="matrix(20.8404,0,0,529.894,519.577,295.831)"><stop offset="0" style="stop-color:rgb(244,199,67);stop-opacity:1"/><stop offset="1" style="stop-color:rgb(207,154,0);stop-opacity:1"/></linearGradient>
        <linearGradient id="_Linear43" x1="0" y1="0" x2="1" y2="0" gradientUnits="userSpaceOnUse" gradientTransform="matrix(92.2109,0,0,16.0367,489.529,518.705)"><stop offset="0" style="stop-color:rgb(244,199,67);stop-opacity:1"/><stop offset="1" style="stop-color:rgb(207,154,0);stop-opacity:1"/></linearGradient>
        <linearGradient id="_Linear45" x1="0" y1="0" x2="1" y2="0" gradientUnits="userSpaceOnUse" gradientTransform="matrix(92.2109,0,0,16.0367,489.529,518.705)"><stop offset="0" style="stop-color:rgb(244,199,67);stop-opacity:1"/><stop offset="1" style="stop-color:rgb(207,154,0);stop-opacity:1"/></linearGradient>
        <linearGradient id="_Linear47" x1="0" y1="0" x2="1" y2="0" gradientUnits="userSpaceOnUse" gradientTransform="matrix(92.2109,0,0,8.01834,489.529,522.714)"><stop offset="0" style="stop-color:rgb(244,199,67);stop-opacity:1"/><stop offset="1" style="stop-color:rgb(207,154,0);stop-opacity:1"/></linearGradient>
        <linearGradient id="_Linear48" x1="0" y1="0" x2="1" y2="0" gradientUnits="userSpaceOnUse" gradientTransform="matrix(448.34,0,0,448.34,306.677,393.85)"><stop offset="0" style="stop-color:rgb(244,199,67);stop-opacity:1"/><stop offset="1" style="stop-color:rgb(207,154,0);stop-opacity:1"/></linearGradient>
        <linearGradient id="_Linear49" x1="0" y1="0" x2="1" y2="0" gradientUnits="userSpaceOnUse" gradientTransform="matrix(-410.637,5.33475e-14,-5.02886e-14,-435.615,755.175,393.85)"><stop offset="0" style="stop-color:rgb(207,154,0);stop-opacity:1"/><stop offset="1" style="stop-color:rgb(244,199,67);stop-opacity:1"/></linearGradient>
    </defs>
</svg>
