<?xml version="1.0" encoding="UTF-8" standalone="no"?>
<!DOCTYPE svg PUBLIC "-//W3C//DTD SVG 1.1//EN" "http://www.w3.org/Graphics/SVG/1.1/DTD/svg11.dtd">
<svg width="100%" height="100%" viewBox="0 0 1312 364" version="1.1" xmlns="http://www.w3.org/2000/svg" xmlns:xlink="http://www.w3.org/1999/xlink" xml:space="preserve" xmlns:serif="http://www.serif.com/" style="fill-rule:evenodd;clip-rule:evenodd;">
    <g transform="matrix(1.08871,0,0,1.08871,-40.6407,12.7823)">
        <g id="Layer_2">
            <g id="Layer_1-2">
                <g>
                    <path d="M891.08,129.95L1020.68,0.35" style="fill:none;fill-rule:nonzero;stroke:url(#_Linear1);stroke-width:1px;"/>
                    <path d="M1311.95,168.5L1054.46,77.95" style="fill:none;fill-rule:nonzero;stroke:url(#_Linear2);stroke-width:1px;"/>
                    <path d="M886.25,315.38L799.26,56.66" style="fill:none;fill-rule:nonzero;stroke:url(#_Linear3);stroke-width:1px;"/>
                    <path d="M0.05,63.6L271.49,92.3" style="fill:none;fill-rule:nonzero;stroke:url(#_Linear4);stroke-width:1px;"/>
                    <path d="M103.77,262.15L308.36,81.47" style="fill:none;fill-rule:nonzero;stroke:url(#_Linear5);stroke-width:1px;"/>
                    <path d="M495.98,192.17L753.47,282.73" style="fill:none;fill-rule:nonzero;stroke:url(#_Linear6);stroke-width:1px;"/>
                    <path d="M699.97,133.14L970.56,113.31" style="fill:none;fill-rule:nonzero;stroke:url(#_Linear7);stroke-width:1px;"/>
                    <path d="M681.12,123.22L930.11,15.46" style="fill:none;fill-rule:nonzero;stroke:url(#_Linear8);stroke-width:1px;"/>
                    <path d="M268.56,186.02L525.91,309.58" style="fill:none;fill-rule:nonzero;stroke:url(#_Linear9);stroke-width:1px;"/>
                    <path d="M783.52,190.15L514.18,284.75" style="fill:none;fill-rule:nonzero;stroke:url(#_Linear10);stroke-width:1px;"/>
                    <path d="M379.32,133.14L109.98,227.74" style="fill:none;fill-rule:nonzero;stroke:url(#_Linear11);stroke-width:1px;"/>
                    <path d="M264.52,194.38L494.13,364.01" style="fill:none;fill-rule:nonzero;stroke:url(#_Linear12);stroke-width:1px;"/>
                    <path d="M430.06,54.22L578.27,134.27" style="fill:none;fill-rule:nonzero;stroke:url(#_Linear13);stroke-width:1px;"/>
                    <path d="M586.66,122.39L510.33,9.07" style="fill:none;fill-rule:nonzero;stroke:url(#_Linear14);stroke-width:1px;"/>
                    <path d="M835.26,105.46C835.263,105.46 835.267,105.46 835.27,105.46C866.254,105.46 891.75,130.956 891.75,161.94C891.75,192.924 866.254,218.42 835.27,218.42C804.286,218.42 778.79,192.924 778.79,161.94C778.828,130.974 804.294,105.504 835.26,105.46M835.26,92.46C797.144,92.46 765.78,123.824 765.78,161.94C765.78,200.056 797.144,231.42 835.26,231.42C873.376,231.42 904.74,200.056 904.74,161.94C904.74,123.824 873.376,92.46 835.26,92.46Z" style="fill:url(#_Linear15);fill-rule:nonzero;"/>
                    <path d="M866,130.88L866,140.88C880,140.88 885.89,144.64 886.45,146.35C887.01,148.06 885,152.9 877.45,159.35C868.65,166.89 855.15,173.97 840.39,178.75C827.95,182.75 815.22,185.01 804.57,185.01C790.57,185.01 784.68,181.25 784.12,179.53C783.56,177.81 785.57,172.99 793.12,166.53C801.92,158.98 815.42,151.91 830.18,147.12C842.62,143.12 855.35,140.87 866,140.87L866,130.87M866,130.87C854.65,130.87 841.11,133.07 827.1,137.61C793.6,148.48 770.1,168.61 774.65,182.61C777.29,190.74 788.82,195 804.65,195C816,195 829.54,192.8 843.55,188.25C877.05,177.39 900.55,157.25 896,143.25C893.36,135.11 881.83,130.86 866,130.86L866,130.87Z" style="fill:url(#_Linear16);fill-rule:nonzero;"/>
                    <path d="M214.75,105.46C245.734,105.46 271.23,130.956 271.23,161.94C271.23,192.924 245.734,218.42 214.75,218.42C183.766,218.42 158.27,192.924 158.27,161.94C158.303,130.968 183.778,105.493 214.75,105.46M214.75,92.46C214.747,92.46 214.743,92.46 214.74,92.46C176.624,92.46 145.26,123.824 145.26,161.94C145.26,200.056 176.624,231.42 214.74,231.42C252.856,231.42 284.22,200.056 284.22,161.94C284.22,123.828 252.862,92.465 214.75,92.46Z" style="fill:url(#_Linear17);fill-rule:nonzero;"/>
                    <path d="M177.33,113.69L177.33,123.69C186.57,123.69 205.08,132.25 223.88,151.05C234.94,162.11 243.88,174.65 248.27,185.46C252.08,194.71 251.57,200.09 250.35,201.3C249.8,201.86 248.41,202.19 246.63,202.19C237.39,202.19 218.89,193.63 200.09,174.83C189.03,163.77 180.09,151.23 175.69,140.42C171.89,131.16 172.4,125.79 173.62,124.57C174.17,124.02 175.56,123.69 177.33,123.69L177.33,113.69M177.33,113.69C172.84,113.69 169.13,114.91 166.55,117.5C156.07,128 167.92,156.81 193,181.9C211.9,200.8 232.91,212.19 246.61,212.19C251.11,212.19 254.81,210.96 257.4,208.38C267.89,197.9 256,169.07 231,144C212.1,125.11 191.08,113.72 177.38,113.72L177.33,113.69Z" style="fill:url(#_Linear18);fill-rule:nonzero;"/>
                    <path d="M432.41,98.49L432.41,111.49C432.462,111.49 432.515,111.49 432.567,111.49C463.562,111.49 489.067,136.995 489.067,167.99C489.067,198.985 463.562,224.49 432.567,224.49C412.662,224.49 394.171,213.971 384,196.86C378.803,188.124 376.06,178.145 376.06,167.98C376.06,137.024 401.504,111.539 432.46,111.49L432.46,98.49M432.46,98.49C394.353,98.502 363.002,129.863 363.002,167.97C363.002,206.086 394.366,237.45 432.482,237.45C470.598,237.45 501.962,206.086 501.962,167.97C501.962,155.484 498.596,143.225 492.22,132.49C479.742,111.406 456.96,98.463 432.46,98.54L432.46,98.49Z" style="fill:url(#_Linear19);fill-rule:nonzero;"/>
                    <path d="M443.14,103.47L443.14,113.47C443.273,113.454 443.407,113.454 443.54,113.47C445.21,113.89 448.39,118.25 449.86,128.15C451.57,139.71 450.35,155.03 446.5,170.2C442.86,184.53 437.24,197.61 430.68,207.01C424.22,216.26 419.07,218.7 417.26,218.7C417.125,218.705 416.99,218.688 416.86,218.65C415.19,218.23 412,213.87 410.54,203.98C408.83,192.42 410.05,177.09 413.9,161.93C417.53,147.59 423.15,134.51 429.72,125.11C436.18,115.87 441.32,113.42 443.14,113.42L443.14,103.42M443.14,103.42C429.25,103.42 412.36,127.31 404.2,159.47C395.48,193.87 400.04,224.71 414.4,228.35C415.336,228.582 416.296,228.7 417.26,228.7C431.15,228.7 448.04,204.81 456.19,172.7C464.92,138.3 460.35,107.46 446,103.82C445.066,103.581 444.105,103.46 443.14,103.46L443.14,103.42Z" style="fill:url(#_Linear20);fill-rule:nonzero;"/>
                    <circle cx="1030.67" cy="160.2" r="69.47" style="fill:url(#_Linear21);"/>
                    <circle cx="636.17" cy="160.2" r="69.47" style="fill:url(#_Linear22);"/>
                </g>
            </g>
        </g>
    </g>
    <defs>
        <linearGradient id="_Linear1" x1="0" y1="0" x2="1" y2="0" gradientUnits="userSpaceOnUse" gradientTransform="matrix(130.31,0,0,130.31,890.73,65.15)"><stop offset="0" style="stop-color:rgb(66,133,244);stop-opacity:1"/><stop offset="0.18" style="stop-color:rgb(66,133,244);stop-opacity:0.8"/><stop offset="0.59" style="stop-color:rgb(66,133,244);stop-opacity:0.37"/><stop offset="0.87" style="stop-color:rgb(66,133,244);stop-opacity:0.1"/><stop offset="1" style="stop-color:rgb(66,133,244);stop-opacity:0"/></linearGradient>
        <linearGradient id="_Linear2" x1="0" y1="0" x2="1" y2="0" gradientUnits="userSpaceOnUse" gradientTransform="matrix(-83.7603,-174.665,174.665,-83.7603,1225.45,210.54)"><stop offset="0" style="stop-color:rgb(66,133,244);stop-opacity:1"/><stop offset="0.18" style="stop-color:rgb(66,133,244);stop-opacity:0.8"/><stop offset="0.59" style="stop-color:rgb(66,133,244);stop-opacity:0.37"/><stop offset="0.87" style="stop-color:rgb(66,133,244);stop-opacity:0.1"/><stop offset="1" style="stop-color:rgb(66,133,244);stop-opacity:0"/></linearGradient>
        <linearGradient id="_Linear3" x1="0" y1="0" x2="1" y2="0" gradientUnits="userSpaceOnUse" gradientTransform="matrix(86.1908,-173.478,173.478,86.1908,799.916,272.89)"><stop offset="0" style="stop-color:rgb(66,133,244);stop-opacity:1"/><stop offset="0.18" style="stop-color:rgb(66,133,244);stop-opacity:0.8"/><stop offset="0.59" style="stop-color:rgb(66,133,244);stop-opacity:0.37"/><stop offset="0.87" style="stop-color:rgb(66,133,244);stop-opacity:0.1"/><stop offset="1" style="stop-color:rgb(66,133,244);stop-opacity:0"/></linearGradient>
        <linearGradient id="_Linear4" x1="0" y1="0" x2="1" y2="0" gradientUnits="userSpaceOnUse" gradientTransform="matrix(121.807,150.634,-150.634,121.807,74.8145,2.56758)"><stop offset="0" style="stop-color:rgb(66,133,244);stop-opacity:1"/><stop offset="0.18" style="stop-color:rgb(66,133,244);stop-opacity:0.8"/><stop offset="0.59" style="stop-color:rgb(66,133,244);stop-opacity:0.37"/><stop offset="0.87" style="stop-color:rgb(66,133,244);stop-opacity:0.1"/><stop offset="1" style="stop-color:rgb(66,133,244);stop-opacity:0"/></linearGradient>
        <linearGradient id="_Linear5" x1="0" y1="0" x2="1" y2="0" gradientUnits="userSpaceOnUse" gradientTransform="matrix(193.338,11.9944,-11.9944,193.338,109.364,165.756)"><stop offset="0" style="stop-color:rgb(66,133,244);stop-opacity:1"/><stop offset="0.18" style="stop-color:rgb(66,133,244);stop-opacity:0.8"/><stop offset="0.59" style="stop-color:rgb(66,133,244);stop-opacity:0.37"/><stop offset="0.87" style="stop-color:rgb(66,133,244);stop-opacity:0.1"/><stop offset="1" style="stop-color:rgb(66,133,244);stop-opacity:0"/></linearGradient>
        <linearGradient id="_Linear6" x1="0" y1="0" x2="1" y2="0" gradientUnits="userSpaceOnUse" gradientTransform="matrix(83.7603,174.665,-174.665,83.7603,582.761,150)"><stop offset="0" style="stop-color:rgb(66,133,244);stop-opacity:1"/><stop offset="0.18" style="stop-color:rgb(66,133,244);stop-opacity:0.8"/><stop offset="0.59" style="stop-color:rgb(66,133,244);stop-opacity:0.37"/><stop offset="0.87" style="stop-color:rgb(66,133,244);stop-opacity:0.1"/><stop offset="1" style="stop-color:rgb(66,133,244);stop-opacity:0"/></linearGradient>
        <linearGradient id="_Linear7" x1="0" y1="0" x2="1" y2="0" gradientUnits="userSpaceOnUse" gradientTransform="matrix(81.3582,114.289,-114.289,81.3582,799.675,59.7157)"><stop offset="0" style="stop-color:rgb(66,133,244);stop-opacity:1"/><stop offset="0.18" style="stop-color:rgb(66,133,244);stop-opacity:0.8"/><stop offset="0.59" style="stop-color:rgb(66,133,244);stop-opacity:0.37"/><stop offset="0.87" style="stop-color:rgb(66,133,244);stop-opacity:0.1"/><stop offset="1" style="stop-color:rgb(66,133,244);stop-opacity:0"/></linearGradient>
        <linearGradient id="_Linear8" x1="0" y1="0" x2="1" y2="0" gradientUnits="userSpaceOnUse" gradientTransform="matrix(114.295,81.3624,-81.3624,114.295,748.691,29.5334)"><stop offset="0" style="stop-color:rgb(66,133,244);stop-opacity:1"/><stop offset="0.18" style="stop-color:rgb(66,133,244);stop-opacity:0.8"/><stop offset="0.59" style="stop-color:rgb(66,133,244);stop-opacity:0.37"/><stop offset="0.87" style="stop-color:rgb(66,133,244);stop-opacity:0.1"/><stop offset="1" style="stop-color:rgb(66,133,244);stop-opacity:0"/></linearGradient>
        <linearGradient id="_Linear9" x1="0" y1="0" x2="1" y2="0" gradientUnits="userSpaceOnUse" gradientTransform="matrix(257.338,123.572,-123.572,257.338,268.509,185.964)"><stop offset="0" style="stop-color:rgb(66,133,244);stop-opacity:1"/><stop offset="0.18" style="stop-color:rgb(66,133,244);stop-opacity:0.8"/><stop offset="0.59" style="stop-color:rgb(66,133,244);stop-opacity:0.37"/><stop offset="0.87" style="stop-color:rgb(66,133,244);stop-opacity:0.1"/><stop offset="1" style="stop-color:rgb(66,133,244);stop-opacity:0"/></linearGradient>
        <linearGradient id="_Linear10" x1="0" y1="0" x2="1" y2="0" gradientUnits="userSpaceOnUse" gradientTransform="matrix(-269.354,94.5903,-94.5903,-269.354,783.736,189.904)"><stop offset="0" style="stop-color:rgb(66,133,244);stop-opacity:1"/><stop offset="0.18" style="stop-color:rgb(66,133,244);stop-opacity:0.8"/><stop offset="0.59" style="stop-color:rgb(66,133,244);stop-opacity:0.37"/><stop offset="0.87" style="stop-color:rgb(66,133,244);stop-opacity:0.1"/><stop offset="1" style="stop-color:rgb(66,133,244);stop-opacity:0"/></linearGradient>
        <linearGradient id="_Linear11" x1="0" y1="0" x2="1" y2="0" gradientUnits="userSpaceOnUse" gradientTransform="matrix(-269.344,94.587,-94.587,-269.344,379.539,132.878)"><stop offset="0" style="stop-color:rgb(66,133,244);stop-opacity:1"/><stop offset="0.18" style="stop-color:rgb(66,133,244);stop-opacity:0.8"/><stop offset="0.59" style="stop-color:rgb(66,133,244);stop-opacity:0.37"/><stop offset="0.87" style="stop-color:rgb(66,133,244);stop-opacity:0.1"/><stop offset="1" style="stop-color:rgb(66,133,244);stop-opacity:0"/></linearGradient>
        <linearGradient id="_Linear12" x1="0" y1="0" x2="1" y2="0" gradientUnits="userSpaceOnUse" gradientTransform="matrix(228.376,168.427,-168.427,228.376,275.782,189.726)"><stop offset="0" style="stop-color:rgb(66,133,244);stop-opacity:1"/><stop offset="0.18" style="stop-color:rgb(66,133,244);stop-opacity:0.8"/><stop offset="0.59" style="stop-color:rgb(66,133,244);stop-opacity:0.37"/><stop offset="0.87" style="stop-color:rgb(66,133,244);stop-opacity:0.1"/><stop offset="1" style="stop-color:rgb(66,133,244);stop-opacity:0"/></linearGradient>
        <linearGradient id="_Linear13" x1="0" y1="0" x2="1" y2="0" gradientUnits="userSpaceOnUse" gradientTransform="matrix(148.219,80.0413,-80.0413,148.219,430.082,54.2761)"><stop offset="0" style="stop-color:rgb(66,133,244);stop-opacity:1"/><stop offset="0.18" style="stop-color:rgb(66,133,244);stop-opacity:0.8"/><stop offset="0.59" style="stop-color:rgb(66,133,244);stop-opacity:0.37"/><stop offset="0.87" style="stop-color:rgb(66,133,244);stop-opacity:0.1"/><stop offset="1" style="stop-color:rgb(66,133,244);stop-opacity:0"/></linearGradient>
        <linearGradient id="_Linear14" x1="0" y1="0" x2="1" y2="0" gradientUnits="userSpaceOnUse" gradientTransform="matrix(-76.5128,-113.403,113.403,-76.5128,581.847,116.393)"><stop offset="0" style="stop-color:rgb(66,133,244);stop-opacity:1"/><stop offset="0.18" style="stop-color:rgb(66,133,244);stop-opacity:0.8"/><stop offset="0.59" style="stop-color:rgb(66,133,244);stop-opacity:0.37"/><stop offset="0.87" style="stop-color:rgb(66,133,244);stop-opacity:0.1"/><stop offset="1" style="stop-color:rgb(66,133,244);stop-opacity:0"/></linearGradient>
        <linearGradient id="_Linear15" x1="0" y1="0" x2="1" y2="0" gradientUnits="userSpaceOnUse" gradientTransform="matrix(8.50823e-15,138.95,-138.95,8.50823e-15,835.26,92.46)"><stop offset="0" style="stop-color:rgb(110,161,247);stop-opacity:1"/><stop offset="0.31" style="stop-color:rgb(91,149,246);stop-opacity:1"/><stop offset="0.71" style="stop-color:rgb(73,137,244);stop-opacity:1"/><stop offset="1" style="stop-color:rgb(66,133,244);stop-opacity:1"/></linearGradient>
        <linearGradient id="_Linear16" x1="0" y1="0" x2="1" y2="0" gradientUnits="userSpaceOnUse" gradientTransform="matrix(122.43,0,0,122.43,774.05,162.94)"><stop offset="0" style="stop-color:rgb(110,161,247);stop-opacity:1"/><stop offset="0.31" style="stop-color:rgb(91,149,246);stop-opacity:1"/><stop offset="0.71" style="stop-color:rgb(73,137,244);stop-opacity:1"/><stop offset="1" style="stop-color:rgb(66,133,244);stop-opacity:1"/></linearGradient>
        <linearGradient id="_Linear17" x1="0" y1="0" x2="1" y2="0" gradientUnits="userSpaceOnUse" gradientTransform="matrix(138.95,0,0,138.95,145.27,161.94)"><stop offset="0" style="stop-color:rgb(110,161,247);stop-opacity:1"/><stop offset="0.31" style="stop-color:rgb(91,149,246);stop-opacity:1"/><stop offset="0.71" style="stop-color:rgb(73,137,244);stop-opacity:1"/><stop offset="1" style="stop-color:rgb(66,133,244);stop-opacity:1"/></linearGradient>
        <linearGradient id="_Linear18" x1="0" y1="0" x2="1" y2="0" gradientUnits="userSpaceOnUse" gradientTransform="matrix(6.03139e-15,-98.5,98.5,6.03139e-15,211.98,212.19)"><stop offset="0" style="stop-color:rgb(110,161,247);stop-opacity:1"/><stop offset="0.31" style="stop-color:rgb(91,149,246);stop-opacity:1"/><stop offset="0.71" style="stop-color:rgb(73,137,244);stop-opacity:1"/><stop offset="1" style="stop-color:rgb(66,133,244);stop-opacity:1"/></linearGradient>
        <linearGradient id="_Linear19" x1="0" y1="0" x2="1" y2="0" gradientUnits="userSpaceOnUse" gradientTransform="matrix(138.97,0,0,138.97,362.99,167.97)"><stop offset="0" style="stop-color:rgb(234,67,53);stop-opacity:1"/><stop offset="1" style="stop-color:rgb(241,131,122);stop-opacity:1"/></linearGradient>
        <linearGradient id="_Linear20" x1="0" y1="0" x2="1" y2="0" gradientUnits="userSpaceOnUse" gradientTransform="matrix(84.64,-50.38,50.38,84.64,387.88,191.3)"><stop offset="0" style="stop-color:rgb(234,67,53);stop-opacity:1"/><stop offset="1" style="stop-color:rgb(241,131,122);stop-opacity:1"/></linearGradient>
        <linearGradient id="_Linear21" x1="0" y1="0" x2="1" y2="0" gradientUnits="userSpaceOnUse" gradientTransform="matrix(-3.93,-139.515,139.515,-3.93,1023.54,214.488)"><stop offset="0" style="stop-color:rgb(52,168,83);stop-opacity:1"/><stop offset="1" style="stop-color:rgb(129,201,148);stop-opacity:1"/></linearGradient>
        <linearGradient id="_Linear22" x1="0" y1="0" x2="1" y2="0" gradientUnits="userSpaceOnUse" gradientTransform="matrix(-82.7849,-111.592,111.592,-82.7849,677.645,215.79)"><stop offset="0" style="stop-color:rgb(251,188,5);stop-opacity:1"/><stop offset="1" style="stop-color:rgb(253,224,140);stop-opacity:1"/></linearGradient>
    </defs>
</svg>
